<?xml version="1.0" encoding="UTF-8" standalone="no"?>
<!-- Created with Inkscape (http://www.inkscape.org/) -->

<svg
   xmlns:dc="http://purl.org/dc/elements/1.1/"
   xmlns:cc="http://creativecommons.org/ns#"
   xmlns:rdf="http://www.w3.org/1999/02/22-rdf-syntax-ns#"
   xmlns:svg="http://www.w3.org/2000/svg"
   xmlns="http://www.w3.org/2000/svg"
   xmlns:sodipodi="http://sodipodi.sourceforge.net/DTD/sodipodi-0.dtd"
   xmlns:inkscape="http://www.inkscape.org/namespaces/inkscape"
   width="290.99786"
   height="276"
   id="svg2"
   version="1.1"
   inkscape:version="0.48.4 r9939"
   sodipodi:docname="tick.svg">
  <defs
     id="defs4" />
  <sodipodi:namedview
     id="base"
     pagecolor="#ffffff"
     bordercolor="#666666"
     borderopacity="1.0"
     inkscape:pageopacity="0.0"
     inkscape:pageshadow="2"
     inkscape:zoom="1.4"
     inkscape:cx="-22.344457"
     inkscape:cy="56.895549"
     inkscape:document-units="px"
     inkscape:current-layer="layer1"
     showgrid="false"
     fit-margin-top="0"
     fit-margin-left="0"
     fit-margin-right="0"
     fit-margin-bottom="0"
     inkscape:window-width="1440"
     inkscape:window-height="848"
     inkscape:window-x="-8"
     inkscape:window-y="-8"
     inkscape:window-maximized="1" />
  <metadata
     id="metadata7">
    <rdf:RDF>
      <cc:Work
         rdf:about="">
        <dc:format>image/svg+xml</dc:format>
        <dc:type
           rdf:resource="http://purl.org/dc/dcmitype/StillImage" />
      </cc:Work>
    </rdf:RDF>
  </metadata>
  <g
     inkscape:label="Calque 1"
     inkscape:groupmode="layer"
     id="layer1"
     transform="translate(-184.07142,-279.57643)">
    <path
       style="fill:#000000"
       d="m 246.64798,549.82643 c -5.89451,-18.94876 -25.20451,-61.54503 -34.39445,-75.87133 -6.0764,-9.47258 -14.49904,-17.84734 -22.47835,-22.35058 -3.13707,-1.77046 -5.70376,-3.7961 -5.70376,-4.50143 0,-1.46609 10.30422,-10.68101 17,-15.20286 8.06663,-5.44762 13.93231,-7.54841 22.52344,-8.06674 7.90378,-0.47686 8.09009,-0.43324 12.49285,2.92486 8.88029,6.77322 17.55071,19.89244 26.97645,40.81808 2.35355,5.225 4.60446,9.86396 5.00203,10.30881 0.39757,0.44485 4.62159,-5.32528 9.38672,-12.8225 35.21813,-55.41051 92.93109,-117.39063 147.61851,-158.53306 14.47034,-10.88632 39.54647,-26.95325 42.06674,-26.95325 1.79257,0 7.9349,8.58684 7.93113,11.08755 -0.001,0.77685 -3.48866,4.1723 -7.75,7.54546 -51.96306,41.13254 -127.87515,137.49025 -166.51818,211.36699 l -8.63072,16.5 -8.2299,5.5 c -4.52645,3.025 -13.83084,9.6625 -20.67644,14.75 -6.8456,5.0875 -12.98223,9.25 -13.63696,9.25 -0.65474,0 -1.99534,-2.5875 -2.97911,-5.75 z m 34.71488,-19.8258 8.79144,-5.9242 8.63877,-16.5 c 38.5576,-73.64481 115.41578,-171.28437 165.98232,-210.86162 3.96218,-3.10111 7.22468,-5.98219 7.25,-6.4024 0.0746,-1.23912 -4.37658,-7.71011 -5.31288,-7.7236 -1.82134,-0.0263 -24.78745,14.96352 -38.14109,24.89435 -55.45384,41.23988 -113.89757,103.94712 -150.01911,160.96312 -5.40185,8.52654 -9.53353,14.06713 -10.36764,13.90301 -0.76272,-0.15007 -4.13772,-6.16048 -7.5,-13.35646 -11.00989,-23.5634 -17.38775,-33.21039 -26.60314,-40.2392 -4.22084,-3.21934 -4.81812,-3.38406 -10.49286,-2.89369 -9.47554,0.8188 -18.67016,5.61398 -30.74357,16.0334 l -5.72633,4.94184 5.72633,3.42922 c 12.91076,7.73162 21.51868,19.22517 34.29014,45.78515 7.46802,15.53078 17.92998,40.60124 21.37596,51.22419 l 1.68595,5.19731 11.18714,-8.27311 c 6.15292,-4.55022 15.14328,-10.93901 19.97857,-14.19731 z"
       id="path2996"
       inkscape:connector-curvature="0" />
    <path
       style="opacity:1;fill:#000000;fill-opacity:1;fill-rule:nonzero;stroke:#000000;stroke-width:0.69785713999999999;stroke-miterlimit:4;stroke-opacity:1;stroke-dasharray:none"
       d="m 65.655543,272.11172 c 0,-1.35536 -7.356014,-20.46199 -13.065232,-33.93584 -7.149256,-16.87237 -18.3539,-39.11591 -23.849632,-47.34645 -5.341581,-7.99969 -12.700183,-15.36704 -19.6922792,-19.71569 -3.0446428,-1.89357 -5.5357143,-3.69477 -5.5357143,-4.00265 0,-0.8832 13.4711775,-11.61019 18.2541855,-14.53565 5.631664,-3.44454 10.53577,-5.27029 16.74357,-6.23346 4.661721,-0.72329 5.276039,-0.66099 8.401399,0.85196 4.801843,2.32454 12.055366,9.90428 16.766793,17.52086 2.22425,3.59577 7.247876,12.91694 11.16361,20.71371 8.461721,16.84845 8.78635,17.34747 10.409,16.00079 0.648371,-0.5381 6.207164,-8.40096 12.352864,-17.47303 26.055813,-38.46266 49.250813,-66.53015 82.405163,-99.715704 29.30314,-29.330713 57.50038,-52.687402 86.68924,-71.807501 11.46125,-7.5076644 15.5115,-9.7110084 16.58978,-9.0248798 1.16371,0.7404833 4.51011,5.9197353 4.51011,6.9803318 0,0.518021 -4.90179,5.028134 -10.89286,10.022473 -27.58111,22.992451 -62.65767,61.633347 -95.30775,104.99253 -29.70625,39.4498 -48.7981,69.02009 -68.42949,105.98665 -3.85966,7.26785 -7.38698,13.43583 -7.83849,13.70661 -1.84104,1.10409 -19.25766,13.43329 -28.731496,20.33896 -5.570761,4.06065 -10.311833,7.383 -10.535714,7.383 -0.223882,0 -0.407057,-0.31816 -0.407057,-0.70702 z"
       id="path3780"
       inkscape:connector-curvature="0"
       transform="translate(184.07142,279.57643)" />
  </g>
</svg>
