<?xml version="1.0" encoding="UTF-8" standalone="no"?>
<!-- Created with Inkscape (http://www.inkscape.org/) -->
<svg
   xmlns:dc="http://purl.org/dc/elements/1.1/"
   xmlns:cc="http://creativecommons.org/ns#"
   xmlns:rdf="http://www.w3.org/1999/02/22-rdf-syntax-ns#"
   xmlns:svg="http://www.w3.org/2000/svg"
   xmlns="http://www.w3.org/2000/svg"
   xmlns:sodipodi="http://sodipodi.sourceforge.net/DTD/sodipodi-0.dtd"
   xmlns:inkscape="http://www.inkscape.org/namespaces/inkscape"
   width="60.999729"
   height="111.99989"
   id="svg2"
   sodipodi:version="0.32"
   inkscape:version="0.46"
   sodipodi:docbase="C:\Documents and Settings\Anthony\Bureau"
   sodipodi:docname="carreau-02.svg"
   inkscape:output_extension="org.inkscape.output.svg.inkscape"
   version="1.0">
  <sodipodi:namedview
     id="base"
     pagecolor="#d3d3d3"
     bordercolor="#666666"
     borderopacity="1.0"
     inkscape:pageopacity="0.78431373"
     inkscape:pageshadow="2"
     inkscape:zoom="7.6115483"
     inkscape:cx="45.366715"
     inkscape:cy="84.103126"
     inkscape:document-units="px"
     inkscape:current-layer="layer1"
     showgrid="true"
     showguides="false"
     inkscape:window-width="1280"
     inkscape:window-height="904"
     inkscape:window-x="168"
     inkscape:window-y="216" />
  <defs
     id="defs4">
    <inkscape:perspective
       sodipodi:type="inkscape:persp3d"
       inkscape:vp_x="0 : 526.18109 : 1"
       inkscape:vp_y="0 : 1000 : 0"
       inkscape:vp_z="744.09448 : 526.18109 : 1"
       inkscape:persp3d-origin="372.04724 : 350.78739 : 1"
       id="perspective2669" />
  </defs>
  <metadata
     id="metadata7">
    <rdf:RDF>
      <cc:Work
         rdf:about="">
        <dc:format>image/svg+xml</dc:format>
        <dc:type
           rdf:resource="http://purl.org/dc/dcmitype/StillImage" />
      </cc:Work>
    </rdf:RDF>
  </metadata>
  <g
     inkscape:label="Calque 1"
     id="layer1"
     inkscape:groupmode="layer"
     transform="translate(0,-940.3623)">
    <rect
       style="fill:#ffffff;fill-opacity:1;fill-rule:evenodd;stroke:#000000;stroke-width:0.10020415;stroke-linecap:butt;stroke-linejoin:round;stroke-miterlimit:79.19999695;stroke-dasharray:none;stroke-opacity:1"
       id="rect2160"
       width="60.874729"
       y="940.4248"
       x="0.0625"
       height="111.87489"
       ry="4.5875664" />
    <text
       xml:space="preserve"
       style="font-size:11.8381424px;font-style:normal;font-weight:normal;fill:#e61408;fill-opacity:1;stroke:none;stroke-width:1px;stroke-linecap:butt;stroke-linejoin:miter;stroke-opacity:1;font-family:Bitstream Vera Sans"
       x="2.5160134"
       y="1002.6628"
       id="text7838"
       transform="scale(1.0539234,0.9488356)"><tspan
         sodipodi:role="line"
         id="tspan7840"
         x="2.5160134"
         y="1002.6628"
         style="font-size:10.91693974px;fill:#e61408;fill-opacity:1;font-family:Times New Roman">2</tspan></text>
    <text
       transform="scale(1.0539234,0.9488356)"
       id="text7842"
       y="1002.6628"
       x="49.957794"
       style="font-size:11.8381424px;font-style:normal;font-weight:normal;fill:#e61408;fill-opacity:1;stroke:none;stroke-width:1px;stroke-linecap:butt;stroke-linejoin:miter;stroke-opacity:1;font-family:Bitstream Vera Sans"
       xml:space="preserve"><tspan
         style="font-size:10.91693974px;fill:#e61408;fill-opacity:1;font-family:Times New Roman"
         y="1002.6628"
         x="49.957794"
         id="tspan7844"
         sodipodi:role="line">2</tspan></text>
    <text
       xml:space="preserve"
       style="font-size:11.8381424px;font-style:normal;font-weight:normal;fill:#e61408;fill-opacity:1;stroke:none;stroke-width:1px;stroke-linecap:butt;stroke-linejoin:miter;stroke-opacity:1;font-family:Bitstream Vera Sans"
       x="-7.9211779"
       y="-1097.516"
       id="text7846"
       transform="scale(-1.0539234,-0.9488356)"><tspan
         sodipodi:role="line"
         id="tspan7848"
         x="-7.9211779"
         y="-1097.516"
         style="font-size:10.91693974px;fill:#e61408;fill-opacity:1;font-family:Times New Roman">2</tspan></text>
    <text
       transform="scale(-1.0539234,-0.9488356)"
       id="text7850"
       y="-1097.516"
       x="-55.362961"
       style="font-size:11.8381424px;font-style:normal;font-weight:normal;fill:#e61408;fill-opacity:1;stroke:none;stroke-width:1px;stroke-linecap:butt;stroke-linejoin:miter;stroke-opacity:1;font-family:Bitstream Vera Sans"
       xml:space="preserve"><tspan
         style="font-size:10.91693974px;fill:#e61408;fill-opacity:1;font-family:Times New Roman"
         y="-1097.516"
         x="-55.362961"
         id="tspan7852"
         sodipodi:role="line">2</tspan></text>
    <path
       id="path2293"
       d="M 31.25,959.36218 C 31.25,959.36218 31.476931,957.72148 28.304659,954.67456 C 25.132614,951.62787 24,951.86202 24,951.86202 L 31.25,951.86202 M 31.25,951.86202 L 31.25,944.36214 C 31.25,944.36214 31.476931,945.53403 28.531136,948.8151 C 25.586023,952.0964 24,951.86202 24,951.86202 M 31.25,951.86202 L 38.5,951.86202 C 38.5,951.86202 37.367611,952.0964 34.195567,949.04948 C 31.023977,946.00279 31.25,944.36214 31.25,944.36214 M 31.25,951.86202 L 31.25,959.36218 C 31.25,959.36218 31.023977,958.19028 33.96909,954.90894 C 36.914203,951.62764 38.5,951.86202 38.5,951.86202"
       style="fill:#e61408;fill-rule:nonzero;stroke:none;stroke-miterlimit:4" />
    <path
       style="fill:#e61408;fill-rule:nonzero;stroke:none;stroke-miterlimit:4"
       d="M 5.25,957.36218 C 5.25,957.36218 5.320427,956.81528 4.335929,955.79964 C 3.351501,954.78408 3,954.86213 3,954.86213 L 5.25,954.86213 M 5.25,954.86213 L 5.25,952.36218 C 5.25,952.36218 5.320427,952.75281 4.406215,953.8465 C 3.492214,954.94026 3,954.86213 3,954.86213 M 5.25,954.86213 L 7.5,954.86213 C 7.5,954.86213 7.148569,954.94026 6.164141,953.92462 C 5.179855,952.90906 5.25,952.36218 5.25,952.36218 M 5.25,954.86213 L 5.25,957.36218 C 5.25,957.36218 5.179855,956.97155 6.093856,955.87777 C 7.007856,954.78401 7.5,954.86213 7.5,954.86213"
       id="path2342" />
    <path
       id="path2344"
       d="M 55.75,957.36218 C 55.75,957.36218 55.820427,956.81528 54.835929,955.79964 C 53.851501,954.78408 53.5,954.86213 53.5,954.86213 L 55.75,954.86213 M 55.75,954.86213 L 55.75,952.36218 C 55.75,952.36218 55.820427,952.75281 54.906215,953.8465 C 53.992214,954.94026 53.5,954.86213 53.5,954.86213 M 55.75,954.86213 L 58,954.86213 C 58,954.86213 57.648569,954.94026 56.664141,953.92462 C 55.679855,952.90906 55.75,952.36218 55.75,952.36218 M 55.75,954.86213 L 55.75,957.36218 C 55.75,957.36218 55.679855,956.97155 56.593856,955.87777 C 57.507856,954.78401 58,954.86213 58,954.86213"
       style="fill:#e61408;fill-rule:nonzero;stroke:none;stroke-miterlimit:4" />
    <path
       style="fill:#e61408;fill-rule:nonzero;stroke:none;stroke-miterlimit:4"
       d="M 55.75,1040.3622 C 55.75,1040.3622 55.820427,1039.8153 54.835929,1038.7996 C 53.851501,1037.7841 53.5,1037.8621 53.5,1037.8621 L 55.75,1037.8621 M 55.75,1037.8621 L 55.75,1035.3622 C 55.75,1035.3622 55.820427,1035.7528 54.906215,1036.8465 C 53.992214,1037.9403 53.5,1037.8621 53.5,1037.8621 M 55.75,1037.8621 L 58,1037.8621 C 58,1037.8621 57.648569,1037.9403 56.664141,1036.9246 C 55.679855,1035.9091 55.75,1035.3622 55.75,1035.3622 M 55.75,1037.8621 L 55.75,1040.3622 C 55.75,1040.3622 55.679855,1039.9716 56.593856,1038.8778 C 57.507856,1037.784 58,1037.8621 58,1037.8621"
       id="path2346" />
    <path
       id="path2348"
       d="M 5.25,1040.3622 C 5.25,1040.3622 5.320427,1039.8153 4.335929,1038.7996 C 3.351501,1037.7841 3,1037.8621 3,1037.8621 L 5.25,1037.8621 M 5.25,1037.8621 L 5.25,1035.3622 C 5.25,1035.3622 5.320427,1035.7528 4.406215,1036.8465 C 3.492214,1037.9403 3,1037.8621 3,1037.8621 M 5.25,1037.8621 L 7.5,1037.8621 C 7.5,1037.8621 7.148569,1037.9403 6.164141,1036.9246 C 5.179855,1035.9091 5.25,1035.3622 5.25,1035.3622 M 5.25,1037.8621 L 5.25,1040.3622 C 5.25,1040.3622 5.179855,1039.9716 6.093856,1038.8778 C 7.007856,1037.784 7.5,1037.8621 7.5,1037.8621"
       style="fill:#e61408;fill-rule:nonzero;stroke:none;stroke-miterlimit:4" />
    <path
       style="fill:#e61408;fill-rule:nonzero;stroke:none;stroke-miterlimit:4"
       d="M 31.25,1048.3622 C 31.25,1048.3622 31.476931,1046.7215 28.304659,1043.6746 C 25.132614,1040.6279 24,1040.862 24,1040.862 L 31.25,1040.862 M 31.25,1040.862 L 31.25,1033.3621 C 31.25,1033.3621 31.476931,1034.534 28.531136,1037.8151 C 25.586023,1041.0964 24,1040.862 24,1040.862 M 31.25,1040.862 L 38.5,1040.862 C 38.5,1040.862 37.367611,1041.0964 34.195567,1038.0495 C 31.023977,1035.0028 31.25,1033.3621 31.25,1033.3621 M 31.25,1040.862 L 31.25,1048.3622 C 31.25,1048.3622 31.023977,1047.1903 33.96909,1043.9089 C 36.914203,1040.6276 38.5,1040.862 38.5,1040.862"
       id="path2420" />
  </g>
</svg>
