<?xml version="1.0" encoding="UTF-8"?>
<svg xmlns="http://www.w3.org/2000/svg" xmlns:xlink="http://www.w3.org/1999/xlink" version="1.1" width="920" height="2100" id="svg">
  <defs>
    <!-- ============================= spade SVG file ============================= -->
    <defs xmlns="http://www.w3.org/2000/svg" xmlns:xlink="http://www.w3.org/1999/xlink" id="spadedefs">
    <linearGradient id="linearGradient4034">
      <stop id="stop4036" style="stop-color:#fffcff;stop-opacity:0.93377483" offset="0"/>
      <stop id="stop4038" style="stop-color:#fffcff;stop-opacity:0" offset="1"/>
    </linearGradient>
    <linearGradient x1="85.612862" y1="96.19783" x2="87.309921" y2="120.74483" id="linearGradient6216" xlink:href="#linearGradient4083" gradientUnits="userSpaceOnUse" gradientTransform="translate(-22.061732,-30.829856)"/>
    <linearGradient id="linearGradient4083">
      <stop id="stop4085" style="stop-color:#fffcff;stop-opacity:1" offset="0"/>
      <stop id="stop4087" style="stop-color:#fffcff;stop-opacity:0" offset="1"/>
    </linearGradient>
    <linearGradient x1="73.141052" y1="102.64289" x2="99.216049" y2="102.64289" id="linearGradient3180" xlink:href="#linearGradient4034" gradientUnits="userSpaceOnUse"/>
  </defs>
    <g xmlns="http://www.w3.org/2000/svg" transform="matrix(3.8796112,0,0,3.8796112,-728.56485,-241.92117)" id="spade">
    <g transform="matrix(1.25,0,0,1.25,98.691737,-68.034253)" id="g3246" style="fill-rule:nonzero;stroke-miterlimit:4">
      <path d="m -45,334.6875 c -3.978271,7.16431 -17.524048,13.72851 -17.5625,22.78125 -0.0177,4.27491 3.928955,7.75 8.78125,7.75 2.997523,0 5.633555,-1.32474 7.21875,-3.34375 -0.721405,5.49015 -2.782911,14.15125 -8.71875,14.15625 l 20.5,0 c -4.349367,0.004 -6.643799,-4.64501 -7.84375,-9.28125 -0.457031,-1.76542 -0.74173,-3.52141 -0.9375,-5.03125 1.569779,2.10798 4.267742,3.5 7.34375,3.5 4.852295,0 8.78125,-3.4751 8.78125,-7.75 C -27.475342,348.41602 -41.020509,341.85182 -45,334.6875 z" transform="matrix(0.8,0,0,0.8,121.33127,-163.35518)" id="path3248"/>
    </g>
    <g transform="matrix(1.25,0,0,1.25,125.99253,-19.352903)" id="g2005" style="fill:url(#linearGradient3180);fill-opacity:1;fill-rule:nonzero;stroke-miterlimit:4">
      <path d="m 63.563634,65.367975 c -2.594166,4.671719 -10.282232,9.02808 -13.05,14.4 0,0 1.004852,2.85189 12.188972,-2.54558 10.568286,-5.10028 13.886028,2.54558 13.886028,2.54558 -2.767414,-5.37192 -10.43004,-9.728261 -13.025,-14.4 z" id="path2007" style="fill:url(#linearGradient6216);fill-opacity:1;stroke:none"/>
    </g>
  </g>
    <!-- ============================= heart SVG file ============================= -->
    <defs xmlns="http://www.w3.org/2000/svg" xmlns:xlink="http://www.w3.org/1999/xlink" id="heartdefs">
    <linearGradient id="linearGradient4034">
      <stop id="stop4036" style="stop-color:#fffcff;stop-opacity:0.93377483" offset="0"/>
      <stop id="stop4038" style="stop-color:#fffcff;stop-opacity:0" offset="1"/>
    </linearGradient>
    <linearGradient x1="-117.23642" y1="378.87509" x2="-115.06044" y2="405.03806" id="linearGradient3078" xlink:href="#linearGradient4034" gradientUnits="userSpaceOnUse" gradientTransform="matrix(1.0050816,0,0,1.0050816,-159.89259,-97.771221)"/>
  </defs>
    <g xmlns="http://www.w3.org/2000/svg" transform="matrix(3.8796112,0,0,3.8796112,1146.6083,-1111.9338)" id="heart">
    <path d="m -295.49523,295.8397 c 0.0154,10.8293 13.59017,18.7167 17.56422,27.29073 4.00939,-8.55306 17.62496,-16.37091 17.69561,-27.19966 0.0309,-5.10667 -3.92327,-9.26232 -8.79151,-9.2728 -4.86932,-0.01 -8.82351,4.11535 -8.83786,9.23195 0.0144,-5.1166 -3.92382,-9.26231 -8.7926,-9.27225 -4.86877,-0.0204 -8.82241,4.11537 -8.83786,9.22203 l 0,0 z" id="path1904" style="fill:#e61408;fill-rule:nonzero;stroke:none"/>
    <path d="m -286.60748,286.60968 c -4.92072,-0.0206 -8.92413,4.17848 -8.93974,9.33961 0.003,2.39419 0.64377,4.62107 1.71369,6.76907 0,0 7.18424,6.8092 16.09438,0 11.88129,-9.07977 16.09437,0 16.09437,0 1.05679,-2.11793 1.72684,-4.31972 1.74226,-6.68338 0.0312,-5.16115 -3.99102,-9.35756 -8.91118,-9.36816 -4.92127,-0.01 -8.89666,4.13983 -8.91116,9.31103 0.0145,-5.1712 -3.96191,-9.35811 -8.88262,-9.36817 z" id="path3259" style="fill:url(#linearGradient3078);fill-opacity:1;fill-rule:nonzero;stroke:none"/>
  </g>
    <!-- ============================= diamond SVG file ============================= -->
    <defs xmlns="http://www.w3.org/2000/svg" xmlns:xlink="http://www.w3.org/1999/xlink" id="diamonddefs">
    <linearGradient id="linearGradient4034">
      <stop id="stop4036" style="stop-color:#fffcff;stop-opacity:0.93377483" offset="0"/>
      <stop id="stop4038" style="stop-color:#fffcff;stop-opacity:0" offset="1"/>
    </linearGradient>
    <linearGradient x1="-99.3125" y1="450.14349" x2="-69.25" y2="450.14349" id="linearGradient3126" xlink:href="#linearGradient4034" gradientUnits="userSpaceOnUse" gradientTransform="translate(250.48021,-376.51049)"/>
  </defs>
    <g xmlns="http://www.w3.org/2000/svg" transform="matrix(3.8796112,0,0,3.8796112,-570.45935,-245.82965)" id="diamond">
    <path d="m 147.04034,83.269717 c 4.50061,1.23345 8.7625,3.58518 12.29614,7.11882 3.70439,3.70438 6.1034,8.16888 7.28062,12.910963 1.17721,-4.742073 3.54388,-9.238943 7.24825,-12.943313 3.50934,-3.50934 7.73279,-5.84606 12.19908,-7.08647 -4.57308,-1.21524 -8.87182,-3.56505 -12.45794,-7.15117 -3.42402,-3.42402 -5.75864,-7.52962 -7.02175,-11.87549 -1.26341,4.34418 -3.53422,8.45267 -6.95702,11.87549 -3.60975,3.60972 -7.98058,5.94315 -12.58738,7.15117 z" id="rect6158" style="fill:#e61408;fill-opacity:1;fill-rule:nonzero;stroke:none"/>
    <path d="m 166.44896,63.364507 c 0,0 -0.0466,0.14842 -0.0312,0.375 -0.0499,1.18763 -0.76324,5.36293 -7.90625,12.21875 -3.16591,3.0384 -9.65976,6.25632 -11.43972,7.34911 0,0 5.69938,2.10056 18.95044,-2.64905 7.71074,-2.76378 15.20803,1.23744 15.20803,1.23744 -1.93329,-1.16801 -4.41122,-3.15865 -7.46875,-6.5625 -5.94086,-6.61377 -7.11217,-10.04461 -7.3125,-11.34375 l 0,-0.4375 c -3e-5,-0.13656 0,-0.1875 0,-0.1875 z" id="path4046" style="fill:url(#linearGradient3126);fill-opacity:1;fill-rule:nonzero;stroke:none"/>
  </g>
    <!-- ============================= club SVG file ============================= -->
    <defs xmlns="http://www.w3.org/2000/svg" xmlns:xlink="http://www.w3.org/1999/xlink" id="clubdefs">
    <linearGradient x1="-76.609657" y1="474.58395" x2="-76.609535" y2="485.72888" id="linearGradient4144" xlink:href="#linearGradient4034" gradientUnits="userSpaceOnUse" gradientTransform="translate(-8,-14.646447)"/>
    <linearGradient id="linearGradient4034">
      <stop id="stop4036" style="stop-color:#fffcff;stop-opacity:0.93377483" offset="0"/>
      <stop id="stop4038" style="stop-color:#fffcff;stop-opacity:0" offset="1"/>
    </linearGradient>
    <linearGradient x1="-76.609657" y1="474.58395" x2="-76.609535" y2="485.72888" id="linearGradient4146" xlink:href="#linearGradient4034" gradientUnits="userSpaceOnUse" gradientTransform="translate(-19,1.353553)"/>
    <linearGradient x1="-76.609657" y1="474.58395" x2="-76.609535" y2="485.72888" id="linearGradient4886" xlink:href="#linearGradient4034" gradientUnits="userSpaceOnUse" gradientTransform="translate(3.75,1.353553)"/>
  </defs>
    <g xmlns="http://www.w3.org/2000/svg" transform="matrix(3.9628483,0,0,3.8698248,413.86997,-1779.8775)" id="club">
    <path d="m -84.4375,459.93934 c -4.863891,0 -8.781253,3.81446 -8.78125,8.53125 0,2.47614 1.084737,4.69297 2.8125,6.25 0.0108,0.01 0.0204,0.0216 0.03125,0.0312 1.825286,1.83731 2.966199,4.02286 3.6875,6.03125 -0.964163,-0.57534 -1.870582,-1.27673 -2.71875,-2.125 -1.594986,-1.54314 -3.786195,-2.5 -6.21875,-2.5 -4.8645,0 -8.8125,3.81386 -8.8125,8.53125 0,4.71802 3.948,8.56251 8.8125,8.5625 2.754392,0 5.196641,-1.23416 6.8125,-3.15625 1.044253,-0.93255 2.178476,-1.70186 3.3125,-2.28125 -0.216313,2.8579 -1.536099,13.46241 -9.0625,13.46875 l 20.46875,0 c -4.349369,0.002 -6.642579,-3.55738 -7.84375,-7.09375 -0.84807,-2.5002 -1.1441,-4.93986 -1.25,-6.1875 1.27599,0.67377 2.553404,1.52216 3.6875,2.65625 l 0,-0.1875 c 1.600201,1.66909 3.869854,2.71876 6.40625,2.71875 4.864502,0 8.812502,-3.84326 8.8125,-8.5625 0,-4.7168 -3.948001,-8.53125 -8.8125,-8.53125 -2.530784,0 -4.806595,1.03269 -6.40625,2.6875 l 0,-0.0937 c -0.775831,0.77593 -1.623027,1.42307 -2.5,1.96875 0.707053,-2.00066 1.797391,-4.17261 3.5625,-5.9375 1.725752,-1.55629 2.812499,-3.78201 2.8125,-6.25 0,-4.71679 -3.946781,-8.53124 -8.8125,-8.53125 z" id="path1422" style="fill-rule:nonzero;stroke-miterlimit:4"/>
    <path d="m -84.625,459.9375 c -4.863895,10e-6 -8.781253,3.81446 -8.78125,8.53125 -0.02969,5.50268 1.984888,1.19308 9.125919,-2.65441 10.11649,-4.7025 7.986011,5.85913 8.467831,2.65441 -4e-6,-4.71678 -3.946781,-8.53124 -8.8125,-8.53125 z" id="path4112" style="fill:url(#linearGradient4144);fill-opacity:1;fill-rule:nonzero;stroke-miterlimit:4"/>
    <path d="m -95.625,475.9375 c -4.8639,10e-6 -8.78125,3.81446 -8.78125,8.53125 -0.0297,5.50268 1.98489,1.19308 9.125919,-2.65441 10.11649,-4.7025 7.986011,5.85913 8.467831,2.65441 -4e-6,-4.71678 -3.946781,-8.53124 -8.8125,-8.53125 z" id="path4130" style="fill:url(#linearGradient4146);fill-opacity:1;fill-rule:nonzero;stroke-miterlimit:4"/>
    <path d="m -72.875,475.9375 c -4.8639,10e-6 -8.78125,3.81446 -8.78125,8.53125 -0.02969,5.50268 1.98489,1.19308 9.125919,-2.65441 10.11649,-4.7025 7.986011,5.85913 8.467831,2.65441 -4e-6,-4.71678 -3.946781,-8.53124 -8.8125,-8.53125 z" id="path4134" style="fill:url(#linearGradient4886);fill-opacity:1;fill-rule:nonzero;stroke-miterlimit:4"/>
  </g>
    <!-- ============================= trump SVG file ============================= -->
    <defs xmlns="http://www.w3.org/2000/svg" id="trumpdefs">
    <path d="m -904.191,-904.191 v 318.198 l 445.092,445.092 C -416.903,-98.7053 -359.674,-75 -300,-75 c 124.264,0 225,-100.736 225,-225 0,-124.264 -100.736,-225 -225,-225 -59.674,0 -116.903,23.706 -159.099,65.901 l -300,300 848.1942,848.194 C 112.725,712.725 126,744.774 126,778.191 c 0,69.588 -56.4124,126 -126,126 -499.371,0 -904.191,-404.82 -904.191,-904.191 0,-499.371 404.82,-904.191 904.191,-904.191 69.5876,0 126,56.412 126,126 0,33.417 -13.275,65.466 -36.9048,89.096 l -848.1942,848.194 300,300 C -416.903,501.294 -359.674,525 -300,525 -175.736,525 -75,424.264 -75,300 -75,175.736 -175.736,75 -300,75 c -59.674,0 -116.903,23.7053 -159.099,65.901 l -445.092,445.092 v 318.198" id="KnotArc1"/>
    <path d="M -904.191,904.191 H -525 V 618.198 c 0,-59.674 23.706,-116.904 65.901,-159.099 L 459.099,-459.099 C 501.294,-501.294 525,-558.524 525,-618.198 l 0,-285.993 h 379.191" id="KnotArc3"/>
  </defs>
    <g xmlns="http://www.w3.org/2000/svg" xmlns:xlink="http://www.w3.org/1999/xlink" transform="translate(-85.244334,-833.67701)" id="trump">
    <use transform="matrix(0.08267652,0,0,-0.08267683,165.20834,913.64134)" id="use4395" style="fill:none;stroke:#000000;stroke-width:126;stroke-linejoin:round" x="0" y="0" width="1" height="1" xlink:href="#KnotArc1"/>
    <use transform="matrix(0.08267652,0,0,-0.08267683,165.20834,913.64134)" id="use4397" style="fill:none;stroke:#666666;stroke-width:54;stroke-linejoin:round;stroke-opacity:1" x="0" y="0" width="1" height="1" xlink:href="#KnotArc1"/>
    <use transform="matrix(-0.08267652,0,0,-0.08267683,165.20834,913.64134)" id="use4399" style="fill:none;stroke:#000000;stroke-width:126;stroke-linejoin:round" x="0" y="0" width="1" height="1" xlink:href="#KnotArc1"/>
    <use transform="matrix(-0.08267652,0,0,-0.08267683,165.20834,913.64134)" id="use4401" style="fill:none;stroke:#666666;stroke-width:54;stroke-linejoin:round;stroke-opacity:1" x="0" y="0" width="1" height="1" xlink:href="#KnotArc1"/>
    <use transform="matrix(0.08267652,0,0,-0.08267683,165.20834,913.64134)" id="use4403" style="fill:none;stroke:#000000;stroke-width:126;stroke-linejoin:round" x="0" y="0" width="1" height="1" xlink:href="#KnotArc3"/>
    <use transform="matrix(0.08267652,0,0,-0.08267683,165.20834,913.64134)" id="use4405" style="fill:none;stroke:#666666;stroke-width:54;stroke-linejoin:round;stroke-opacity:1" x="0" y="0" width="1" height="1" xlink:href="#KnotArc3"/>
    <use transform="matrix(0.08267652,0,0,0.08267683,165.20834,913.64134)" id="use4407" style="fill:none;stroke:#000000;stroke-width:126;stroke-linejoin:round" x="0" y="0" width="1" height="1" xlink:href="#KnotArc3"/>
    <use transform="matrix(0.08267652,0,0,0.08267683,165.20834,913.64134)" id="use4409" style="fill:none;stroke:#666666;stroke-width:54;stroke-linejoin:round;stroke-opacity:1" x="0" y="0" width="1" height="1" xlink:href="#KnotArc3"/>
    <path d="m 157.26473,930.58278 c -1.84827,-3.96379 -5.03405,-7.14956 -8.99772,-8.9978 m 24.88493,-24.88506 c 1.84827,3.96378 5.03405,7.14955 8.99773,8.99779 M 157.26473,880.9766 c -1.84827,-3.96367 -5.03405,-7.14943 -8.99772,-8.99767 m 24.88493,74.32716 c 1.84827,3.96367 5.03405,7.14943 8.99773,8.99767 m -49.60592,-49.60605 c -1.96662,-0.91686 -3.75772,-2.17116 -5.29212,-3.70564 l -3.96848,-3.96855 m 74.58977,23.56146 c 1.96663,0.91686 3.75773,2.17116 5.29212,3.70564 l 3.96848,3.96855 m -74.58977,26.04459 c -1.96662,-0.91686 -3.75772,-2.17115 -5.29212,-3.70551 l -3.96848,-3.96855 m 74.58977,-75.65077 c 1.96663,0.91686 3.75773,2.17116 5.29212,3.70552 l 3.96848,3.96855 m 25.82615,2.39537 c -1.83914,-3.94437 -4.01923,-7.72038 -6.51532,-11.28516 M 97.456995,945.23433 c 1.839141,3.94437 4.019235,7.72038 6.515325,11.28515 m 24.99394,-108.26085 c -5.71386,3.16719 -10.98797,7.06977 -15.68738,11.60795 m 88.17153,119.15748 c 5.71386,-3.16718 10.98797,-7.06977 15.68738,-11.60795 m -41.82167,13.08385 c -1.15697,4.64059 -5.32521,7.89708 -10.10778,7.89708 -5.22366,0 -10.43295,-0.54773 -15.54253,-1.63354 m -13.22891,-93.95663 7.93695,-7.93709 m 49.60592,49.60605 -7.93695,7.93709 m -16.86601,-82.34617 -7.93694,7.93697 m 57.54286,41.6692 -7.93696,7.93686 m -91.27487,-7.93686 -7.93696,7.93686 m 108.65333,-32.74 -7.93695,7.93709 m -94.28397,-7.93709 -7.93695,7.93709 m 110.15787,41.66896 -7.93695,7.93709 m -94.28397,-7.93709 -7.93695,7.93709 m 62.75966,-70.6969 7.93696,7.93698 m 18.37055,18.37052 7.93695,7.9371 m -83.85037,15.36145 7.93695,7.9371 m 18.37055,18.37053 7.93696,7.93697 m -51.86275,-75.16149 -9.177083,-9.17712 m 128.264033,75.64946 9.17709,9.17711 m 6.03481,-98.56662 V 838.88564 H 221.36148 M 90.452966,969.79469 v 18.60235 h 18.602224 m 130.90852,-18.60235 v 18.60235 H 221.36148 M 90.452966,857.48801 v -18.60237 h 18.602224" id="path4411" style="fill:none;stroke:#000000;stroke-width:10.41726398"/>
    <path d="m 157.39938,930.87807 c -1.86974,-4.19943 -5.22831,-7.55797 -9.42778,-9.42775 m 25.0457,-25.04569 c 1.86973,4.19942 5.2283,7.55797 9.42777,9.42775 m -25.04569,-24.56036 c -1.86974,-4.19954 -5.22831,-7.55797 -9.42778,-9.42776 m 25.0457,74.16642 c 1.86973,4.19954 5.2283,7.55797 9.42777,9.42775 m -49.60592,-49.60605 c -2.08195,-0.92638 -3.97599,-2.22879 -5.58752,-3.84031 l -4.21651,-4.21645 m 74.54241,23.6747 c 2.08194,0.92638 3.97599,2.22879 5.58751,3.8403 l 4.21651,4.21646 m -74.5424,25.93135 c -2.08195,-0.92638 -3.97599,-2.22867 -5.58752,-3.84018 l -4.21651,-4.21658 m 74.54241,-75.53741 c 2.08194,0.92639 3.97599,2.22867 5.58751,3.84019 l 4.21651,4.21658 m 26.11916,3.33436 c -2.12462,-4.77192 -4.74364,-9.3082 -7.814,-13.5343 M 96.915958,944.0473 c 2.124623,4.77193 4.743652,9.30821 7.814002,13.5343 M 130.11282,847.636 c -6.53997,3.47738 -12.5269,7.90757 -17.76447,13.14506 m 87.95551,118.86563 c 6.53996,-3.47737 12.5269,-7.90756 17.76446,-13.14505 m -42.7097,13.8215 c -1.09117,4.72608 -5.29981,8.0739 -10.15028,8.0739 -5.65987,0 -11.30146,-0.64298 -16.81632,-1.91598 m -12.20315,-93.42629 8.43301,-8.43302 m 49.60592,49.60617 -8.43301,8.43303 m -16.36995,-82.84223 -8.433,8.43303 m 58.03892,41.17302 -8.43302,8.43315 m -90.77881,-8.43315 -8.43301,8.43315 m 109.14939,-33.23617 -8.43302,8.43302 m -93.78791,-8.43302 -8.43302,8.43302 m 110.65395,41.17315 -8.43302,8.43303 m -93.78791,-8.43303 -8.43302,8.43303 m 62.75966,-71.19296 8.43303,8.43304 m 17.87449,17.87459 8.43301,8.43302 m -84.34643,14.86541 8.43301,8.43303 m 17.87449,17.87459 8.43303,8.43303 m -51.86275,-75.16138 -9.673149,-9.67328 m 128.264019,75.64933 9.67316,9.67328 m 5.78678,-98.56674 V 838.88564 H 221.11346 M 90.452966,969.54678 v 18.85026 h 18.850244 m 130.6605,-18.85026 v 18.85026 H 221.11346 M 90.452966,857.73591 v -18.85027 h 18.850244" id="path4413" style="fill:none;stroke:#666666;stroke-width:4.46454191;stroke-opacity:1"/>
  </g>
    <!-- ============================= card SVG file ============================= -->
    <defs xmlns="http://www.w3.org/2000/svg">  
   <g id="card">
    <rect width="61" height="112" ry="4.6" style="fill:#ffffff;fill-opacity:1;fill-rule:evenodd;stroke:#000000;stroke-width:0.4;stroke-linecap:butt;stroke-linejoin:round;stroke-miterlimit:79.19999695;stroke-opacity:1;stroke-dasharray:none"/>
	</g>
	
	</defs>
    <g xmlns="http://www.w3.org/2000/svg" id="card">
    <rect width="61" height="112" ry="4.6" style="fill:#ffffff;fill-opacity:1;fill-rule:evenodd;stroke:#000000;stroke-width:0.4;stroke-linecap:butt;stroke-linejoin:round;stroke-miterlimit:79.19999695;stroke-opacity:1;stroke-dasharray:none"/>
	</g>
  </defs>
  <g id="c01-S">
    <use xlink:href="#card"/>
    <use xlink:href="#spade" transform="scale(0.15) translate(30, 230)"/>
    <text x="5" y="30" style="font-size: 25; font-family: 'kanzlei';">1</text>
  </g>
  <g id="c02-S">
    <use xlink:href="#card"/>
    <use xlink:href="#spade" transform="scale(0.15) translate(30, 230)"/>
    <text x="5" y="30" style="font-size: 25; font-family: 'kanzlei';">2</text>
  </g>
  <g id="c03-S">
    <use xlink:href="#card"/>
    <use xlink:href="#spade" transform="scale(0.15) translate(30, 230)"/>
    <text x="5" y="30" style="font-size: 25; font-family: 'kanzlei';">3</text>
  </g>
  <g id="c04-S">
    <use xlink:href="#card"/>
    <use xlink:href="#spade" transform="scale(0.15) translate(30, 230)"/>
    <text x="5" y="30" style="font-size: 25; font-family: 'kanzlei';">4</text>
  </g>
  <g id="c05-S">
    <use xlink:href="#card"/>
    <use xlink:href="#spade" transform="scale(0.15) translate(30, 230)"/>
    <text x="5" y="30" style="font-size: 25; font-family: 'kanzlei';">5</text>
  </g>
  <g id="c06-S">
    <use xlink:href="#card"/>
    <use xlink:href="#spade" transform="scale(0.15) translate(30, 230)"/>
    <text x="5" y="30" style="font-size: 25; font-family: 'kanzlei';">6</text>
  </g>
  <g id="c07-S">
    <use xlink:href="#card"/>
    <use xlink:href="#spade" transform="scale(0.15) translate(30, 230)"/>
    <text x="5" y="30" style="font-size: 25; font-family: 'kanzlei';">7</text>
  </g>
  <g id="c08-S">
    <use xlink:href="#card"/>
    <use xlink:href="#spade" transform="scale(0.15) translate(30, 230)"/>
    <text x="5" y="30" style="font-size: 25; font-family: 'kanzlei';">8</text>
  </g>
  <g id="c09-S">
    <use xlink:href="#card"/>
    <use xlink:href="#spade" transform="scale(0.15) translate(30, 230)"/>
    <text x="5" y="30" style="font-size: 25; font-family: 'kanzlei';">9</text>
  </g>
  <g id="c10-S">
    <use xlink:href="#card"/>
    <use xlink:href="#spade" transform="scale(0.15) translate(30, 230)"/>
    <text x="5" y="30" style="font-size: 25; font-family: 'kanzlei';">10</text>
  </g>
  <g id="c11-S">
    <use xlink:href="#card"/>
    <use xlink:href="#spade" transform="scale(0.15) translate(30, 230)"/>
    <text x="5" y="30" style="font-size: 25; font-family: 'kanzlei';">11</text>
  </g>
  <g id="c12-S">
    <use xlink:href="#card"/>
    <use xlink:href="#spade" transform="scale(0.15) translate(30, 230)"/>
    <text x="5" y="30" style="font-size: 25; font-family: 'kanzlei';">12</text>
  </g>
  <g id="c13-S">
    <use xlink:href="#card"/>
    <use xlink:href="#spade" transform="scale(0.15) translate(30, 230)"/>
    <text x="5" y="30" style="font-size: 25; font-family: 'kanzlei';">13</text>
  </g>
  <g id="c14-S">
    <use xlink:href="#card"/>
    <use xlink:href="#spade" transform="scale(0.15) translate(30, 230)"/>
    <text x="5" y="30" style="font-size: 25; font-family: 'kanzlei';">14</text>
  </g>
  <g id="c01-H">
    <use xlink:href="#card"/>
    <use xlink:href="#heart" transform="scale(0.15) translate(30, 230)"/>
    <text x="5" y="30" style="font-size: 25; font-family: 'kanzlei';">1</text>
  </g>
  <g id="c02-H">
    <use xlink:href="#card"/>
    <use xlink:href="#heart" transform="scale(0.15) translate(30, 230)"/>
    <text x="5" y="30" style="font-size: 25; font-family: 'kanzlei';">2</text>
  </g>
  <g id="c03-H">
    <use xlink:href="#card"/>
    <use xlink:href="#heart" transform="scale(0.15) translate(30, 230)"/>
    <text x="5" y="30" style="font-size: 25; font-family: 'kanzlei';">3</text>
  </g>
  <g id="c04-H">
    <use xlink:href="#card"/>
    <use xlink:href="#heart" transform="scale(0.15) translate(30, 230)"/>
    <text x="5" y="30" style="font-size: 25; font-family: 'kanzlei';">4</text>
  </g>
  <g id="c05-H">
    <use xlink:href="#card"/>
    <use xlink:href="#heart" transform="scale(0.15) translate(30, 230)"/>
    <text x="5" y="30" style="font-size: 25; font-family: 'kanzlei';">5</text>
  </g>
  <g id="c06-H">
    <use xlink:href="#card"/>
    <use xlink:href="#heart" transform="scale(0.15) translate(30, 230)"/>
    <text x="5" y="30" style="font-size: 25; font-family: 'kanzlei';">6</text>
  </g>
  <g id="c07-H">
    <use xlink:href="#card"/>
    <use xlink:href="#heart" transform="scale(0.15) translate(30, 230)"/>
    <text x="5" y="30" style="font-size: 25; font-family: 'kanzlei';">7</text>
  </g>
  <g id="c08-H">
    <use xlink:href="#card"/>
    <use xlink:href="#heart" transform="scale(0.15) translate(30, 230)"/>
    <text x="5" y="30" style="font-size: 25; font-family: 'kanzlei';">8</text>
  </g>
  <g id="c09-H">
    <use xlink:href="#card"/>
    <use xlink:href="#heart" transform="scale(0.15) translate(30, 230)"/>
    <text x="5" y="30" style="font-size: 25; font-family: 'kanzlei';">9</text>
  </g>
  <g id="c10-H">
    <use xlink:href="#card"/>
    <use xlink:href="#heart" transform="scale(0.15) translate(30, 230)"/>
    <text x="5" y="30" style="font-size: 25; font-family: 'kanzlei';">10</text>
  </g>
  <g id="c11-H">
    <use xlink:href="#card"/>
    <use xlink:href="#heart" transform="scale(0.15) translate(30, 230)"/>
    <text x="5" y="30" style="font-size: 25; font-family: 'kanzlei';">11</text>
  </g>
  <g id="c12-H">
    <use xlink:href="#card"/>
    <use xlink:href="#heart" transform="scale(0.15) translate(30, 230)"/>
    <text x="5" y="30" style="font-size: 25; font-family: 'kanzlei';">12</text>
  </g>
  <g id="c13-H">
    <use xlink:href="#card"/>
    <use xlink:href="#heart" transform="scale(0.15) translate(30, 230)"/>
    <text x="5" y="30" style="font-size: 25; font-family: 'kanzlei';">13</text>
  </g>
  <g id="c14-H">
    <use xlink:href="#card"/>
    <use xlink:href="#heart" transform="scale(0.15) translate(30, 230)"/>
    <text x="5" y="30" style="font-size: 25; font-family: 'kanzlei';">14</text>
  </g>
  <g id="c01-D">
    <use xlink:href="#card"/>
    <use xlink:href="#diamond" transform="scale(0.15) translate(30, 230)"/>
    <text x="5" y="30" style="font-size: 25; font-family: 'kanzlei';">1</text>
  </g>
  <g id="c02-D">
    <use xlink:href="#card"/>
    <use xlink:href="#diamond" transform="scale(0.15) translate(30, 230)"/>
    <text x="5" y="30" style="font-size: 25; font-family: 'kanzlei';">2</text>
  </g>
  <g id="c03-D">
    <use xlink:href="#card"/>
    <use xlink:href="#diamond" transform="scale(0.15) translate(30, 230)"/>
    <text x="5" y="30" style="font-size: 25; font-family: 'kanzlei';">3</text>
  </g>
  <g id="c04-D">
    <use xlink:href="#card"/>
    <use xlink:href="#diamond" transform="scale(0.15) translate(30, 230)"/>
    <text x="5" y="30" style="font-size: 25; font-family: 'kanzlei';">4</text>
  </g>
  <g id="c05-D">
    <use xlink:href="#card"/>
    <use xlink:href="#diamond" transform="scale(0.15) translate(30, 230)"/>
    <text x="5" y="30" style="font-size: 25; font-family: 'kanzlei';">5</text>
  </g>
  <g id="c06-D">
    <use xlink:href="#card"/>
    <use xlink:href="#diamond" transform="scale(0.15) translate(30, 230)"/>
    <text x="5" y="30" style="font-size: 25; font-family: 'kanzlei';">6</text>
  </g>
  <g id="c07-D">
    <use xlink:href="#card"/>
    <use xlink:href="#diamond" transform="scale(0.15) translate(30, 230)"/>
    <text x="5" y="30" style="font-size: 25; font-family: 'kanzlei';">7</text>
  </g>
  <g id="c08-D">
    <use xlink:href="#card"/>
    <use xlink:href="#diamond" transform="scale(0.15) translate(30, 230)"/>
    <text x="5" y="30" style="font-size: 25; font-family: 'kanzlei';">8</text>
  </g>
  <g id="c09-D">
    <use xlink:href="#card"/>
    <use xlink:href="#diamond" transform="scale(0.15) translate(30, 230)"/>
    <text x="5" y="30" style="font-size: 25; font-family: 'kanzlei';">9</text>
  </g>
  <g id="c10-D">
    <use xlink:href="#card"/>
    <use xlink:href="#diamond" transform="scale(0.15) translate(30, 230)"/>
    <text x="5" y="30" style="font-size: 25; font-family: 'kanzlei';">10</text>
  </g>
  <g id="c11-D">
    <use xlink:href="#card"/>
    <use xlink:href="#diamond" transform="scale(0.15) translate(30, 230)"/>
    <text x="5" y="30" style="font-size: 25; font-family: 'kanzlei';">11</text>
  </g>
  <g id="c12-D">
    <use xlink:href="#card"/>
    <use xlink:href="#diamond" transform="scale(0.15) translate(30, 230)"/>
    <text x="5" y="30" style="font-size: 25; font-family: 'kanzlei';">12</text>
  </g>
  <g id="c13-D">
    <use xlink:href="#card"/>
    <use xlink:href="#diamond" transform="scale(0.15) translate(30, 230)"/>
    <text x="5" y="30" style="font-size: 25; font-family: 'kanzlei';">13</text>
  </g>
  <g id="c14-D">
    <use xlink:href="#card"/>
    <use xlink:href="#diamond" transform="scale(0.15) translate(30, 230)"/>
    <text x="5" y="30" style="font-size: 25; font-family: 'kanzlei';">14</text>
  </g>
  <g id="c01-C">
    <use xlink:href="#card"/>
    <use xlink:href="#club" transform="scale(0.15) translate(30, 230)"/>
    <text x="5" y="30" style="font-size: 25; font-family: 'kanzlei';">1</text>
  </g>
  <g id="c02-C">
    <use xlink:href="#card"/>
    <use xlink:href="#club" transform="scale(0.15) translate(30, 230)"/>
    <text x="5" y="30" style="font-size: 25; font-family: 'kanzlei';">2</text>
  </g>
  <g id="c03-C">
    <use xlink:href="#card"/>
    <use xlink:href="#club" transform="scale(0.15) translate(30, 230)"/>
    <text x="5" y="30" style="font-size: 25; font-family: 'kanzlei';">3</text>
  </g>
  <g id="c04-C">
    <use xlink:href="#card"/>
    <use xlink:href="#club" transform="scale(0.15) translate(30, 230)"/>
    <text x="5" y="30" style="font-size: 25; font-family: 'kanzlei';">4</text>
  </g>
  <g id="c05-C">
    <use xlink:href="#card"/>
    <use xlink:href="#club" transform="scale(0.15) translate(30, 230)"/>
    <text x="5" y="30" style="font-size: 25; font-family: 'kanzlei';">5</text>
  </g>
  <g id="c06-C">
    <use xlink:href="#card"/>
    <use xlink:href="#club" transform="scale(0.15) translate(30, 230)"/>
    <text x="5" y="30" style="font-size: 25; font-family: 'kanzlei';">6</text>
  </g>
  <g id="c07-C">
    <use xlink:href="#card"/>
    <use xlink:href="#club" transform="scale(0.15) translate(30, 230)"/>
    <text x="5" y="30" style="font-size: 25; font-family: 'kanzlei';">7</text>
  </g>
  <g id="c08-C">
    <use xlink:href="#card"/>
    <use xlink:href="#club" transform="scale(0.15) translate(30, 230)"/>
    <text x="5" y="30" style="font-size: 25; font-family: 'kanzlei';">8</text>
  </g>
  <g id="c09-C">
    <use xlink:href="#card"/>
    <use xlink:href="#club" transform="scale(0.15) translate(30, 230)"/>
    <text x="5" y="30" style="font-size: 25; font-family: 'kanzlei';">9</text>
  </g>
  <g id="c10-C">
    <use xlink:href="#card"/>
    <use xlink:href="#club" transform="scale(0.15) translate(30, 230)"/>
    <text x="5" y="30" style="font-size: 25; font-family: 'kanzlei';">10</text>
  </g>
  <g id="c11-C">
    <use xlink:href="#card"/>
    <use xlink:href="#club" transform="scale(0.15) translate(30, 230)"/>
    <text x="5" y="30" style="font-size: 25; font-family: 'kanzlei';">11</text>
  </g>
  <g id="c12-C">
    <use xlink:href="#card"/>
    <use xlink:href="#club" transform="scale(0.15) translate(30, 230)"/>
    <text x="5" y="30" style="font-size: 25; font-family: 'kanzlei';">12</text>
  </g>
  <g id="c13-C">
    <use xlink:href="#card"/>
    <use xlink:href="#club" transform="scale(0.15) translate(30, 230)"/>
    <text x="5" y="30" style="font-size: 25; font-family: 'kanzlei';">13</text>
  </g>
  <g id="c14-C">
    <use xlink:href="#card"/>
    <use xlink:href="#club" transform="scale(0.15) translate(30, 230)"/>
    <text x="5" y="30" style="font-size: 25; font-family: 'kanzlei';">14</text>
  </g>
  <g id="c00-T">
    <use xlink:href="#card"/>
    <use xlink:href="#trump" transform="scale(0.25) translate(30, 230)"/>
    <text x="5" y="30" style="font-size: 25; font-family: 'kanzlei';">0</text>
  </g>
  <g id="c01-T">
    <use xlink:href="#card"/>
    <use xlink:href="#trump" transform="scale(0.25) translate(30, 230)"/>
    <text x="5" y="30" style="font-size: 25; font-family: 'kanzlei';">1</text>
  </g>
  <g id="c02-T">
    <use xlink:href="#card"/>
    <use xlink:href="#trump" transform="scale(0.25) translate(30, 230)"/>
    <text x="5" y="30" style="font-size: 25; font-family: 'kanzlei';">2</text>
  </g>
  <g id="c03-T">
    <use xlink:href="#card"/>
    <use xlink:href="#trump" transform="scale(0.25) translate(30, 230)"/>
    <text x="5" y="30" style="font-size: 25; font-family: 'kanzlei';">3</text>
  </g>
  <g id="c04-T">
    <use xlink:href="#card"/>
    <use xlink:href="#trump" transform="scale(0.25) translate(30, 230)"/>
    <text x="5" y="30" style="font-size: 25; font-family: 'kanzlei';">4</text>
  </g>
  <g id="c05-T">
    <use xlink:href="#card"/>
    <use xlink:href="#trump" transform="scale(0.25) translate(30, 230)"/>
    <text x="5" y="30" style="font-size: 25; font-family: 'kanzlei';">5</text>
  </g>
  <g id="c06-T">
    <use xlink:href="#card"/>
    <use xlink:href="#trump" transform="scale(0.25) translate(30, 230)"/>
    <text x="5" y="30" style="font-size: 25; font-family: 'kanzlei';">6</text>
  </g>
  <g id="c07-T">
    <use xlink:href="#card"/>
    <use xlink:href="#trump" transform="scale(0.25) translate(30, 230)"/>
    <text x="5" y="30" style="font-size: 25; font-family: 'kanzlei';">7</text>
  </g>
  <g id="c08-T">
    <use xlink:href="#card"/>
    <use xlink:href="#trump" transform="scale(0.25) translate(30, 230)"/>
    <text x="5" y="30" style="font-size: 25; font-family: 'kanzlei';">8</text>
  </g>
  <g id="c09-T">
    <use xlink:href="#card"/>
    <use xlink:href="#trump" transform="scale(0.25) translate(30, 230)"/>
    <text x="5" y="30" style="font-size: 25; font-family: 'kanzlei';">9</text>
  </g>
  <g id="c10-T">
    <use xlink:href="#card"/>
    <use xlink:href="#trump" transform="scale(0.25) translate(30, 230)"/>
    <text x="5" y="30" style="font-size: 25; font-family: 'kanzlei';">10</text>
  </g>
  <g id="c11-T">
    <use xlink:href="#card"/>
    <use xlink:href="#trump" transform="scale(0.25) translate(30, 230)"/>
    <text x="5" y="30" style="font-size: 25; font-family: 'kanzlei';">11</text>
  </g>
  <g id="c12-T">
    <use xlink:href="#card"/>
    <use xlink:href="#trump" transform="scale(0.25) translate(30, 230)"/>
    <text x="5" y="30" style="font-size: 25; font-family: 'kanzlei';">12</text>
  </g>
  <g id="c13-T">
    <use xlink:href="#card"/>
    <use xlink:href="#trump" transform="scale(0.25) translate(30, 230)"/>
    <text x="5" y="30" style="font-size: 25; font-family: 'kanzlei';">13</text>
  </g>
  <g id="c14-T">
    <use xlink:href="#card"/>
    <use xlink:href="#trump" transform="scale(0.25) translate(30, 230)"/>
    <text x="5" y="30" style="font-size: 25; font-family: 'kanzlei';">14</text>
  </g>
  <g id="c15-T">
    <use xlink:href="#card"/>
    <use xlink:href="#trump" transform="scale(0.25) translate(30, 230)"/>
    <text x="5" y="30" style="font-size: 25; font-family: 'kanzlei';">15</text>
  </g>
  <g id="c16-T">
    <use xlink:href="#card"/>
    <use xlink:href="#trump" transform="scale(0.25) translate(30, 230)"/>
    <text x="5" y="30" style="font-size: 25; font-family: 'kanzlei';">16</text>
  </g>
  <g id="c17-T">
    <use xlink:href="#card"/>
    <use xlink:href="#trump" transform="scale(0.25) translate(30, 230)"/>
    <text x="5" y="30" style="font-size: 25; font-family: 'kanzlei';">17</text>
  </g>
  <g id="c18-T">
    <use xlink:href="#card"/>
    <use xlink:href="#trump" transform="scale(0.25) translate(30, 230)"/>
    <text x="5" y="30" style="font-size: 25; font-family: 'kanzlei';">18</text>
  </g>
  <g id="c19-T">
    <use xlink:href="#card"/>
    <use xlink:href="#trump" transform="scale(0.25) translate(30, 230)"/>
    <text x="5" y="30" style="font-size: 25; font-family: 'kanzlei';">19</text>
  </g>
  <g id="c20-T">
    <use xlink:href="#card"/>
    <use xlink:href="#trump" transform="scale(0.25) translate(30, 230)"/>
    <text x="5" y="30" style="font-size: 25; font-family: 'kanzlei';">20</text>
  </g>
  <g id="c21-T">
    <use xlink:href="#card"/>
    <use xlink:href="#trump" transform="scale(0.25) translate(30, 230)"/>
    <text x="5" y="30" style="font-size: 25; font-family: 'kanzlei';">21</text>
  </g>
</svg>
