<?xml version="1.0" encoding="UTF-8" standalone="no"?>
<!-- Created with Inkscape (http://www.inkscape.org/) -->

<svg
   xmlns:dc="http://purl.org/dc/elements/1.1/"
   xmlns:cc="http://creativecommons.org/ns#"
   xmlns:rdf="http://www.w3.org/1999/02/22-rdf-syntax-ns#"
   xmlns:svg="http://www.w3.org/2000/svg"
   xmlns="http://www.w3.org/2000/svg"
   xmlns:xlink="http://www.w3.org/1999/xlink"
   xmlns:sodipodi="http://sodipodi.sourceforge.net/DTD/sodipodi-0.dtd"
   xmlns:inkscape="http://www.inkscape.org/namespaces/inkscape"
   width="138.28828"
   height="141.6866"
   id="svg3080"
   version="1.1"
   inkscape:version="0.48.4 r9939"
   sodipodi:docname="Nouveau document 3">
  <defs
     id="defs3082">
    <linearGradient
       inkscape:collect="always"
       xlink:href="#linearGradient4034"
       id="linearGradient4206"
       gradientUnits="userSpaceOnUse"
       gradientTransform="matrix(1.0050816,0,0,1.0050816,-159.89259,-97.771221)"
       x1="-117.23642"
       y1="378.87509"
       x2="-115.06044"
       y2="405.03806" />
    <linearGradient
       id="linearGradient4034">
      <stop
         style="stop-color:#fffcff;stop-opacity:0.93377483;"
         offset="0"
         id="stop4036" />
      <stop
         style="stop-color:#fffcff;stop-opacity:0;"
         offset="1"
         id="stop4038" />
    </linearGradient>
    <linearGradient
       y2="405.03806"
       x2="-115.06044"
       y1="378.87509"
       x1="-117.23642"
       gradientTransform="matrix(1.0050816,0,0,1.0050816,-159.89259,-97.771221)"
       gradientUnits="userSpaceOnUse"
       id="linearGradient3078"
       xlink:href="#linearGradient4034"
       inkscape:collect="always" />
  </defs>
  <sodipodi:namedview
     id="base"
     pagecolor="#ffffff"
     bordercolor="#666666"
     borderopacity="1.0"
     inkscape:pageopacity="0.0"
     inkscape:pageshadow="2"
     inkscape:zoom="0.35"
     inkscape:cx="187.0013"
     inkscape:cy="-29.156697"
     inkscape:document-units="px"
     inkscape:current-layer="layer1"
     showgrid="false"
     fit-margin-top="0"
     fit-margin-left="0"
     fit-margin-right="0"
     fit-margin-bottom="0"
     inkscape:window-width="511"
     inkscape:window-height="453"
     inkscape:window-x="441"
     inkscape:window-y="184"
     inkscape:window-maximized="0" />
  <metadata
     id="metadata3085">
    <rdf:RDF>
      <cc:Work
         rdf:about="">
        <dc:format>image/svg+xml</dc:format>
        <dc:type
           rdf:resource="http://purl.org/dc/dcmitype/StillImage" />
        <dc:title></dc:title>
      </cc:Work>
    </rdf:RDF>
  </metadata>
  <g
     inkscape:label="Calque 1"
     inkscape:groupmode="layer"
     id="layer1"
     transform="translate(-187.9987,-361.51888)">
    <g
       id="g4201"
       transform="matrix(3.8796112,0,0,3.8796112,1334.607,-750.41495)">
      <path
         inkscape:connector-curvature="0"
         d="m -295.49523,295.8397 c 0.0154,10.8293 13.59017,18.7167 17.56422,27.29073 4.00939,-8.55306 17.62496,-16.37091 17.69561,-27.19966 0.0309,-5.10667 -3.92327,-9.26232 -8.79151,-9.2728 -4.86932,-0.01 -8.82351,4.11535 -8.83786,9.23195 0.0144,-5.1166 -3.92382,-9.26231 -8.7926,-9.27225 -4.86877,-0.0204 -8.82241,4.11537 -8.83786,9.22203 l 0,0 z"
         id="path1904"
         style="fill:#e61408;fill-rule:nonzero;stroke:none" />
      <path
         inkscape:connector-curvature="0"
         sodipodi:nodetypes="ccssssssc"
         id="path3259"
         d="m -286.60748,286.60968 c -4.92072,-0.0206 -8.92413,4.17848 -8.93974,9.33961 0.003,2.39419 0.64377,4.62107 1.71369,6.76907 0,0 7.18424,6.8092 16.09438,0 11.88129,-9.07977 16.09437,0 16.09437,0 1.05679,-2.11793 1.72684,-4.31972 1.74226,-6.68338 0.0312,-5.16115 -3.99102,-9.35756 -8.91118,-9.36816 -4.92127,-0.01 -8.89666,4.13983 -8.91116,9.31103 0.0145,-5.1712 -3.96191,-9.35811 -8.88262,-9.36817 z"
         style="fill:url(#linearGradient3078);fill-opacity:1;fill-rule:nonzero;stroke:none" />
    </g>
  </g>
</svg>
