<?xml version="1.0" encoding="UTF-8" standalone="no"?>
<!-- Created with Inkscape (http://www.inkscape.org/) -->

<svg
   xmlns:dc="http://purl.org/dc/elements/1.1/"
   xmlns:cc="http://creativecommons.org/ns#"
   xmlns:rdf="http://www.w3.org/1999/02/22-rdf-syntax-ns#"
   xmlns:svg="http://www.w3.org/2000/svg"
   xmlns="http://www.w3.org/2000/svg"
   xmlns:xlink="http://www.w3.org/1999/xlink"
   version="1.1"
   width="159.92801"
   height="159.92867"
   id="svg2">
  <defs
     id="defs4">
    <path
       d="m -904.191,-904.191 v 318.198 l 445.092,445.092 C -416.903,-98.7053 -359.674,-75 -300,-75 c 124.264,0 225,-100.736 225,-225 0,-124.264 -100.736,-225 -225,-225 -59.674,0 -116.903,23.706 -159.099,65.901 l -300,300 848.1942,848.194 C 112.725,712.725 126,744.774 126,778.191 c 0,69.588 -56.4124,126 -126,126 -499.371,0 -904.191,-404.82 -904.191,-904.191 0,-499.371 404.82,-904.191 904.191,-904.191 69.5876,0 126,56.412 126,126 0,33.417 -13.275,65.466 -36.9048,89.096 l -848.1942,848.194 300,300 C -416.903,501.294 -359.674,525 -300,525 -175.736,525 -75,424.264 -75,300 -75,175.736 -175.736,75 -300,75 c -59.674,0 -116.903,23.7053 -159.099,65.901 l -445.092,445.092 v 318.198"
       id="KnotArc1" />
    <path
       d="M -904.191,904.191 H -525 V 618.198 c 0,-59.674 23.706,-116.904 65.901,-159.099 L 459.099,-459.099 C 501.294,-501.294 525,-558.524 525,-618.198 l 0,-285.993 h 379.191"
       id="KnotArc3" />
  </defs>
  <metadata
     id="metadata7">
    <rdf:RDF>
      <cc:Work
         rdf:about="">
        <dc:format>image/svg+xml</dc:format>
        <dc:type
           rdf:resource="http://purl.org/dc/dcmitype/StillImage" />
        <dc:title></dc:title>
      </cc:Work>
    </rdf:RDF>
  </metadata>
  <g
     transform="translate(-85.244334,-833.67701)"
     id="g6715">
    <use
       transform="matrix(0.08267652,0,0,-0.08267683,165.20834,913.64134)"
       id="use4395"
       style="fill:none;stroke:#000000;stroke-width:126;stroke-linejoin:round"
       x="0"
       y="0"
       width="1"
       height="1"
       xlink:href="#KnotArc1" />
    <use
       transform="matrix(0.08267652,0,0,-0.08267683,165.20834,913.64134)"
       id="use4397"
       style="fill:none;stroke:#666666;stroke-width:54;stroke-linejoin:round;stroke-opacity:1"
       x="0"
       y="0"
       width="1"
       height="1"
       xlink:href="#KnotArc1" />
    <use
       transform="matrix(-0.08267652,0,0,-0.08267683,165.20834,913.64134)"
       id="use4399"
       style="fill:none;stroke:#000000;stroke-width:126;stroke-linejoin:round"
       x="0"
       y="0"
       width="1"
       height="1"
       xlink:href="#KnotArc1" />
    <use
       transform="matrix(-0.08267652,0,0,-0.08267683,165.20834,913.64134)"
       id="use4401"
       style="fill:none;stroke:#666666;stroke-width:54;stroke-linejoin:round;stroke-opacity:1"
       x="0"
       y="0"
       width="1"
       height="1"
       xlink:href="#KnotArc1" />
    <use
       transform="matrix(0.08267652,0,0,-0.08267683,165.20834,913.64134)"
       id="use4403"
       style="fill:none;stroke:#000000;stroke-width:126;stroke-linejoin:round"
       x="0"
       y="0"
       width="1"
       height="1"
       xlink:href="#KnotArc3" />
    <use
       transform="matrix(0.08267652,0,0,-0.08267683,165.20834,913.64134)"
       id="use4405"
       style="fill:none;stroke:#666666;stroke-width:54;stroke-linejoin:round;stroke-opacity:1"
       x="0"
       y="0"
       width="1"
       height="1"
       xlink:href="#KnotArc3" />
    <use
       transform="matrix(0.08267652,0,0,0.08267683,165.20834,913.64134)"
       id="use4407"
       style="fill:none;stroke:#000000;stroke-width:126;stroke-linejoin:round"
       x="0"
       y="0"
       width="1"
       height="1"
       xlink:href="#KnotArc3" />
    <use
       transform="matrix(0.08267652,0,0,0.08267683,165.20834,913.64134)"
       id="use4409"
       style="fill:none;stroke:#666666;stroke-width:54;stroke-linejoin:round;stroke-opacity:1"
       x="0"
       y="0"
       width="1"
       height="1"
       xlink:href="#KnotArc3" />
    <path
       d="m 157.26473,930.58278 c -1.84827,-3.96379 -5.03405,-7.14956 -8.99772,-8.9978 m 24.88493,-24.88506 c 1.84827,3.96378 5.03405,7.14955 8.99773,8.99779 M 157.26473,880.9766 c -1.84827,-3.96367 -5.03405,-7.14943 -8.99772,-8.99767 m 24.88493,74.32716 c 1.84827,3.96367 5.03405,7.14943 8.99773,8.99767 m -49.60592,-49.60605 c -1.96662,-0.91686 -3.75772,-2.17116 -5.29212,-3.70564 l -3.96848,-3.96855 m 74.58977,23.56146 c 1.96663,0.91686 3.75773,2.17116 5.29212,3.70564 l 3.96848,3.96855 m -74.58977,26.04459 c -1.96662,-0.91686 -3.75772,-2.17115 -5.29212,-3.70551 l -3.96848,-3.96855 m 74.58977,-75.65077 c 1.96663,0.91686 3.75773,2.17116 5.29212,3.70552 l 3.96848,3.96855 m 25.82615,2.39537 c -1.83914,-3.94437 -4.01923,-7.72038 -6.51532,-11.28516 M 97.456995,945.23433 c 1.839141,3.94437 4.019235,7.72038 6.515325,11.28515 m 24.99394,-108.26085 c -5.71386,3.16719 -10.98797,7.06977 -15.68738,11.60795 m 88.17153,119.15748 c 5.71386,-3.16718 10.98797,-7.06977 15.68738,-11.60795 m -41.82167,13.08385 c -1.15697,4.64059 -5.32521,7.89708 -10.10778,7.89708 -5.22366,0 -10.43295,-0.54773 -15.54253,-1.63354 m -13.22891,-93.95663 7.93695,-7.93709 m 49.60592,49.60605 -7.93695,7.93709 m -16.86601,-82.34617 -7.93694,7.93697 m 57.54286,41.6692 -7.93696,7.93686 m -91.27487,-7.93686 -7.93696,7.93686 m 108.65333,-32.74 -7.93695,7.93709 m -94.28397,-7.93709 -7.93695,7.93709 m 110.15787,41.66896 -7.93695,7.93709 m -94.28397,-7.93709 -7.93695,7.93709 m 62.75966,-70.6969 7.93696,7.93698 m 18.37055,18.37052 7.93695,7.9371 m -83.85037,15.36145 7.93695,7.9371 m 18.37055,18.37053 7.93696,7.93697 m -51.86275,-75.16149 -9.177083,-9.17712 m 128.264033,75.64946 9.17709,9.17711 m 6.03481,-98.56662 V 838.88564 H 221.36148 M 90.452966,969.79469 v 18.60235 h 18.602224 m 130.90852,-18.60235 v 18.60235 H 221.36148 M 90.452966,857.48801 v -18.60237 h 18.602224"
       id="path4411"
       style="fill:none;stroke:#000000;stroke-width:10.41726398" />
    <path
       d="m 157.39938,930.87807 c -1.86974,-4.19943 -5.22831,-7.55797 -9.42778,-9.42775 m 25.0457,-25.04569 c 1.86973,4.19942 5.2283,7.55797 9.42777,9.42775 m -25.04569,-24.56036 c -1.86974,-4.19954 -5.22831,-7.55797 -9.42778,-9.42776 m 25.0457,74.16642 c 1.86973,4.19954 5.2283,7.55797 9.42777,9.42775 m -49.60592,-49.60605 c -2.08195,-0.92638 -3.97599,-2.22879 -5.58752,-3.84031 l -4.21651,-4.21645 m 74.54241,23.6747 c 2.08194,0.92638 3.97599,2.22879 5.58751,3.8403 l 4.21651,4.21646 m -74.5424,25.93135 c -2.08195,-0.92638 -3.97599,-2.22867 -5.58752,-3.84018 l -4.21651,-4.21658 m 74.54241,-75.53741 c 2.08194,0.92639 3.97599,2.22867 5.58751,3.84019 l 4.21651,4.21658 m 26.11916,3.33436 c -2.12462,-4.77192 -4.74364,-9.3082 -7.814,-13.5343 M 96.915958,944.0473 c 2.124623,4.77193 4.743652,9.30821 7.814002,13.5343 M 130.11282,847.636 c -6.53997,3.47738 -12.5269,7.90757 -17.76447,13.14506 m 87.95551,118.86563 c 6.53996,-3.47737 12.5269,-7.90756 17.76446,-13.14505 m -42.7097,13.8215 c -1.09117,4.72608 -5.29981,8.0739 -10.15028,8.0739 -5.65987,0 -11.30146,-0.64298 -16.81632,-1.91598 m -12.20315,-93.42629 8.43301,-8.43302 m 49.60592,49.60617 -8.43301,8.43303 m -16.36995,-82.84223 -8.433,8.43303 m 58.03892,41.17302 -8.43302,8.43315 m -90.77881,-8.43315 -8.43301,8.43315 m 109.14939,-33.23617 -8.43302,8.43302 m -93.78791,-8.43302 -8.43302,8.43302 m 110.65395,41.17315 -8.43302,8.43303 m -93.78791,-8.43303 -8.43302,8.43303 m 62.75966,-71.19296 8.43303,8.43304 m 17.87449,17.87459 8.43301,8.43302 m -84.34643,14.86541 8.43301,8.43303 m 17.87449,17.87459 8.43303,8.43303 m -51.86275,-75.16138 -9.673149,-9.67328 m 128.264019,75.64933 9.67316,9.67328 m 5.78678,-98.56674 V 838.88564 H 221.11346 M 90.452966,969.54678 v 18.85026 h 18.850244 m 130.6605,-18.85026 v 18.85026 H 221.11346 M 90.452966,857.73591 v -18.85027 h 18.850244"
       id="path4413"
       style="fill:none;stroke:#666666;stroke-width:4.46454191;stroke-opacity:1" />
  </g>
</svg>
