<svg xmlns="http://www.w3.org/2000/svg" x="0px" y="0px" viewBox="0 0 800 800" style="overflow:hidden!important;"><g id="svga-group-wrapper" transform="scale(4 4)"><g id="svga-group-backs-single"><path id="SvgjsPath8103" d="M225,225H-25V-25h250V225z" fill="#00a8c6" stroke-width="none" opacity="1"></path><path id="SvgjsPath8104" d="M137.635-25h14.142L225,48.224v14.142L137.635-25z M225,90.649V76.507L123.492-25h-14.142L225,90.649z M225,118.934v-14.142L95.208-25H81.065L225,118.934z M225,147.219v-14.143L66.925-25H52.782L225,147.219z M225,225v-7.071L-17.929-25H-25v7.071L217.929,225H225z M225,5.796V-8.345L208.345-25h-14.142L225,5.796z M225,34.081V19.939L180.061-25h-14.142L225,34.081z M225,175.503V161.36L38.64-25H24.497L225,175.503z M222.487-25L225-22.487V-25H222.487z M48.224,225h14.143L-25,137.635v14.142L48.224,225z M19.938,225h14.143L-25,165.919v14.143L19.938,225z M-8.345,225H5.798L-25,194.203v14.143L-8.345,225z M76.507,225h14.143L-25,109.351v14.142L76.507,225z M-22.487,225L-25,222.487V225H-22.487z M161.36,225h14.143L-25,24.497V38.64L161.36,225z M104.792,225h14.142L-25,81.066v14.142L104.792,225z M189.645,225h14.142L-25-3.787v14.142L189.645,225z M225,203.787v-14.143L10.354-25H-3.786L225,203.787z M133.076,225h14.142L-25,52.782v14.142L133.076,225z" fill="#009bb7" stroke-width="none" opacity="1"></path></g><g id="svga-group-subwrapper" ><g id="svga-group-hair-back" ><path id="SvgjsPath7951" d="M19.273 278.474c-2.987 0-5.493-0.846-7.277-2.449 0.26 0.058 0.551 0.086 0.869 0.086 3.453 0 9.151-3.228 11.324-7.389 0.217-2.067-0.396-4.376-1.812-6.896 -3.315-5.838-8.82-7.466-14.648-9.189 -4.849-1.434-9.862-2.916-13.504-7.058 -9.954-10.596-9.202-23.263 2.233-37.651 -0.092-0.686-0.144-1.071-0.196-1.463 -3.866-7.445-4.552-14.183-2.053-20.081 3.215-7.589 11.649-13.6 24.39-17.383l0.078-0.022 -0.006-0.081c-0.188-2.399 0.79-5.015 2.684-7.174 2.575-2.938 6.422-4.685 10.832-4.919l0.178-0.009 -0.101-0.147c-2.886-4.215-3.457-8.688-1.566-12.274 1.472-2.79 4.241-4.593 7.055-4.593 1.668 0 3.204 0.638 4.439 1.846 0.103 0.064 0.497 0.535 0.59 0.659 1.017 1.34 1.395 2.912 1.182 4.919 -0.374-3.863-2.871-5.271-5.219-5.271 -2.852 0-5.581 1.867-6.489 4.44 -0.638 1.809-0.888 5.502 4.603 9.93l0.146-0.134c-1.75-2.598-2.347-5.018-1.775-7.19 0.577-2.192 2.337-4.074 5.237-5.6 -2.102 3.184-0.972 7.345 1.311 9.902 2.368 2.658 7.015 4.122 13.083 4.121 9.51 0 19.561-3.474 22.882-7.908 2.887-3.866 2.608-10.002 2.232-12.271 3.171 3.053 4.943 8.707 4.871 15.585 -0.113 10.844-5.03 26.601-18.489 38.301 -5.133 4.465-10.948 8.174-16.572 11.762 -1.728 1.103-3.456 2.205-5.167 3.329 -21.479 14.074-16.134 26.021-10.476 38.668 0.681 1.521 1.385 3.096 2.029 4.654 5.482 7.098 4.38 13.164 2.493 17.009C34.99 274.007 25.921 278.474 19.273 278.474L19.273 278.474z" fill="#d6c4c4" stroke-width="none" opacity="1" stroke="none"></path><path id="SvgjsPath7952" d="M12.475 191.111c0.852-1.361 2.349-3.862 4.827-6.614 12.467-14.117 39.351-14.11 51.802-22.074 4.492-2.792 13.153-11.878 5.33-3.896 -7.607 7.618-16.997 10.345-36.132 15.341C18.656 178.969 14.58 188.9 12.45 191.035 12.463 190.377 12.466 190.111 12.475 191.111zM42.065 186.044c18.531-10.538 27.64-4.63 40.413-28.171 1.319-2.504 2.089-4.04 1.927-3.741 -14.254 28.508-25.318 17.027-51.257 37.2 -1.104 0.854-4.972 3.886-4.727 5.26C28.421 196.592 27.396 194.433 42.065 186.044zM60.336 161.681c8.71-1.954 14.749-6.304 13.749-5.729 -20.646 10.732-50.717-0.626-52.951 17.25C24.177 159.171 41.118 166.536 60.336 161.681zM14.671 242.974c1.967 2.627 5.455 6.543 7.947 11.192 1.007 2.038 1.655 3.269 1.536 3.021 -0.15-0.233-0.734-1.797-1.758-3.979 -5.519-10.923-26.096-32.407-9.883-48.119C0.955 215.395 5.45 230.647 14.671 242.974zM37.148 153.208c1.112 1.929 3.154 3.298 4.97 3.814 3.627 1.172-5.838-1.214-4.942-7.852 0.154-1.678 0.952-3.258 1.145-3.711C36.638 148.252 35.984 150.327 37.148 153.208z" fill="#c7a2a2" stroke-width="none" opacity="1" stroke="none"></path><path id="SvgjsPath7953" d="M24.172 184.311c-14.06 5.821-44.699 43.764-21.156 59.208l1.699 1.207c16.558 9.814 13.79 8.106 20.289 15.289 -4.825-5.396-11.641-8.378-18.119-11.143 -2.706-1.175-5.711-2.516-8.177-4.419 -5.273-3.865-7.719-8.127-8.96-13.253C-14.371 216.803 9.198 189.661 24.172 184.311zM18.99 212.724c-2.208 7.286-2.518 14.654 0.167 22.124 1.798 3.846-0.713-7.868-0.577-9.888 0.646-9.091 4.533-16.651 10.343-23.616 8.475-11.28 20.252-14.138 34.692-21.842C45.168 187.34 26.252 189.657 18.99 212.724zM71.565 158.462c-2.912 1.841-5.708 3.029-5.574 2.941 -20.028 7.146-49.126 4.403-56.009 31.838 0 0 0.205-0.613 0.567-1.694 0.548-1.896 2.616-6.506 5.634-9.749 8.07-8.863 21.092-10.477 29.116-12.297 4.584-1.002 10.72-2.457 15.161-3.974 11.71-4.021 17.587-10.996 19.145-15.144 0.121-0.286 0.216-0.501 0.292-0.666C79.197 151.03 76.515 155.457 71.565 158.462zM79.896 149.718C80.146 149.248 80.141 149.182 79.896 149.718L79.896 149.718zM47.45 160.992c9.354 0.252 18.606-0.313 27.512-6.406 5.241-3.517 7.248-8.298 6.702-13.057 -0.076-0.789-0.115-1.153-0.104-0.972 -0.027 0.342 0.266 2.631-0.726 5.634 -0.648 1.879-1.709 3.466-3.079 4.816 0.37-0.723 0.602-1.56 0.62-2.501 -0.194 0.341-0.401 0.674-0.636 0.988 -3.322 4.435-13.373 7.908-22.882 7.908 -6.068 0.001-10.714-1.463-13.083-4.121 -2.282-2.558-3.413-6.719-1.311-9.902 -0.345 0.182-0.672 0.369-0.985 0.561 -0.983 3.555-1.464 6.757 0.521 9.06 2.653 3.077 6.233 4.825 10.177 5.602 -5.993 0.279-11.489 0.254-15.006 0.646 -14.071 1.387-14.16 8.158-14.964 10.815C23.55 160.304 29.329 160.377 47.45 160.992zM31 146c1.601-4.003 5.766-5.438 9.929-5.34 -0.963-0.574-2.038-0.879-3.179-0.879 -2.814 0-5.583 1.803-7.055 4.593 -1.89 3.586-1.319 8.06 1.566 12.274l0.101 0.147 -0.178 0.009c-4.41 0.234-8.257 1.981-10.832 4.919 -1.894 2.159-2.872 4.774-2.684 7.174l0.006 0.081 -0.078 0.022c-12.741 3.783-21.175 9.794-24.39 17.383 -2.143 5.058-1.937 10.734 0.602 16.943 -2.575-15.776 6.479-28.02 24.293-32.77 -0.505-1.557 1.681-5.714 3.897-8.558 1.298-1.666 7-6 12-4C32 155 30 151 31 146z" fill="#e5e5e5" stroke-width="none" opacity="1" stroke="none"></path><path id="SvgjsPath7954" d="M79.819 136.945c0.458 2.279 0.748 8.596-2.16 12.49 -5.553 7.413-29.061 11.355-35.81 3.78 -2.465-2.763-3.387-7.021-1.07-10.11 -6.617 3.309-7.218 8.135-3.86 13.12 -14.194-11.442 6.99-20.876 6.99-7.99 0.402-2.144 0.317-4.209-1.02-5.97 0-0.011-0.01-0.03-0.03-0.04 -0.071-0.095-0.506-0.624-0.6-0.67 -6.176-6.035-18.103 3.432-10.08 15.149 -8.822 0.469-14.027 6.88-13.61 12.2 -20.399 6.058-32.254 18.669-22.41 37.55 0.053 0.4 0.104 0.791 0.22 1.41 -10.107 12.719-13.392 25.898-2.23 37.78 7.915 8.998 22.008 5.433 28.14 16.229 1.13 2.011 2.05 4.44 1.81 6.801 -2.576 4.933-9.791 8.206-12.48 7.13 9.597 9.559 39.416-7.206 24.64-26.32 -5.823-14.095-15.662-27.427 8.41-43.2 7.38-4.85 15.06-9.28 21.75-15.1C86.719 173.539 88.938 145.213 79.819 136.945zM18.599 169.165c0.025 0.389 0.171 1.045 0.26 1.38 -16.569 7.271-24.051 21.227-22.81 34.94C-12.354 187.513-0.388 175.129 18.599 169.165zM-3.331 207.405c0.02 0.021 0.03 0.04 0.04 0.061 0 0-0.02 0.01-0.02 0.02C-3.321 207.466-3.331 207.436-3.331 207.405zM71.899 183.785c-15.535 17.703-45.832 24.573-43.55 45.75 1.207 11.019 10.133 22.296 11.35 27.311 3.174 13.123-17.963 26.659-27.43 19.31 4.433 0.477 9.54-2.942 11.94-6.96 0.302-1.101 0.302-4.294-1.93-8.06 -5.682-9.708-17.007-7.609-25.5-14.44 -3.81-3.06-6.81-7.27-8.18-12 -3.542-12.195 5.291-22.773 8.35-27.4 0 0-0.357-0.704-0.4-0.79 -1.744-13.806 8.071-30.664 22.64-35.979 -0.044-0.089-0.22-1.106-0.22-1.74 -0.058-6.386 7.545-11.939 13.5-11.939 -7.29-12.228 3.765-20.163 9.51-15.08 0.046 0.022 0.415 0.359 0.58 0.58 0.02 0.01 0.04 0.029 0.04 0.05 0.97 1.14 1.33 2.56 1.35 4.03 -0.25-1.46-0.85-2.78-2.03-3.721 -3.075-4.464-20.004 4.023-3.53 14.99 -4.196-5.593-4.388-10.792 1.97-14.22 -1.868 2.829-1.264 6.942 1.13 9.819 5.876 7.062 22.977 4.923 30.75 1.011 5.573-2.813 9.361-6.896 7.93-16.73C89.706 148.64 81.552 172.8 71.899 183.785z" fill="#a86868" stroke-width="none" opacity="1" stroke="none"></path></g><g id="svga-group-humanbody-single"><path id="SvgjsPath7661" d="M190.858 199.866c-6.008-10.158-13.474-11.973-19.628-13.936 -6.323-2.016-19.346-3.178-26.449-4.6 -6.86-1.373-23.153-5.789-23.339-13.488 -0.192-8.066 4.291-40.09 4.291-40.09H74.005c0 0 4.487 32.023 4.294 40.09 -0.184 7.699-16.48 12.115-23.341 13.488 -7.104 1.422-20.125 2.584-26.448 4.6 -6.156 1.963-13.624 3.777-19.632 13.936 -3.644 6.16-6.008 16.133-6.008 27.133h194C196.869 215.999 194.509 206.026 190.858 199.866z" fill="#753915" stroke-width="none" opacity="1" stroke="none"></path><path id="SvgjsPath7662" d="M121.442 167.843c2.495 10.929 18.165 13.698 26.293 15.325 21.909 4.379 33.772 5.134 42.297 19.539 2.903 4.916 5.459 15.864 5.962 24.153 1.835 0.291 0.531-17.432-5.136-26.994 -9.742-16.472-29.089-15.135-46.077-18.535C137.921 179.958 121.628 175.542 121.442 167.843L121.442 167.843zM78.558 167.843c-0.186 7.699-16.479 12.115-23.339 13.488 -16.988 3.4-36.335 2.063-46.077 18.535 -5.667 9.563-6.971 27.285-5.136 26.994 0.503-8.289 3.059-19.237 5.962-24.153 8.524-14.405 20.388-15.16 42.297-19.539C60.393 181.541 76.063 178.771 78.558 167.843L78.558 167.843z" fill="#844925" stroke-width="none" opacity="1" stroke="none"></path><path id="SvgjsPath7663" d="M51.206 189.513c0 0 28.641 0.299 33.473 1.885 2.314 0.758 8.372 5.633 8.372 5.633s-6.556-3.17-8.658-3.758C79.51 191.909 51.206 189.513 51.206 189.513zM99.795 199.999c2.053-0.041 7.887-3.799 7.887-3.799s-5.574 2.059-7.342 2.16c-1.491 0.086-6.366-1.238-6.366-1.238S98.112 200.032 99.795 199.999zM117.008 192.757c6.75-1.818 29.786-3.23 29.786-3.23s-23.791-0.516-30.51 1.725c-2.252 0.752-7.562 5.16-7.562 5.16S114.786 193.354 117.008 192.757z" fill="#662b08" stroke-width="none" opacity="1" stroke="none"></path><path id="SvgjsPath7664" d="M190.858 199.866c-9.741-16.471-29.122-15.142-46.077-18.535 -6.86-1.373-23.153-5.789-23.339-13.488 -0.192-8.066 4.291-40.09 4.291-40.09H74.005c0 0 4.487 32.023 4.294 40.09 -0.184 7.699-16.48 12.115-23.341 13.488 -7.104 1.422-20.125 2.584-26.448 4.6 -6.156 1.963-13.624 3.777-19.632 13.936 -3.644 6.16-6.008 16.133-6.008 27.133h194C196.869 215.999 194.509 206.026 190.858 199.866z" fill="none" stroke="#471b00" stroke-width="1.5" opacity="1"></path></g><g id="svga-group-chinshadow-single"><path id="SvgjsPath8035" d="M100.021 171.27c5.607-0.009 13.53-3.627 20.967-8.478 0.485-6.84 1.756-17.341 2.758-25.098 -13.972-1.825-33.828-1.785-47.741 0.101 0.995 7.702 2.249 18.065 2.739 24.877C86.278 167.593 94.344 171.279 100.021 171.27z" fill="url(#SvgjsLinearGradient8036)" opacity="1"></path></g><g id="svga-group-clothes-single" ><path id="SvgjsPath7923" d="M176.662 239.205c-4.731-0.031-142.126-1.232-153.208-1.823 1.595-10.032 4.924-15.048 10.136-20.336 0.397-10.141-3-24.685-4.583-31.951 1.592-4.057 4.741 0.357 20.731-4.584 4.066-1.013 8.65-7.315 14.947-2.354 -2.199 0.903-4.148 1.319-5.923 1.756 -2.657 14.611 31.716 40.78 40.839 45.67 11.181-5.065 44.953-33.159 41.373-45.645 -0.346-0.158-4.268-1.11-5.551-1.71 2.176-1.919 5.892-2.672 9.589-0.353 4.431 2.771 12.578 5.406 22.848 5.406 1.323 0 2.337 0.34 2.986 1.999 -1.114 5.095-4.727 22.604-4.667 31.635C174.006 224.707 175.121 229.664 176.662 239.205z" fill="#653220" stroke-width="none" opacity="1" stroke="none"></path><path id="SvgjsPath7924" d="M150.077 185.14c-3.109 8.592-5.631 11.417-7.907 14.465 -2.618 3.506-3.455 5.129-2.205 2.785C144.613 193.068 145.855 193.511 150.077 185.14zM147.508 213.521c-0.232 1.071-0.375 1.72-0.344 1.593 2.81-9.574 9.184-26.459 9.184-26.459C154.178 195.795 151.241 196.15 147.508 213.521zM55.885 200c14.044 17.188-2.303-2.73-7.432-12.774C50.601 192.177 52.189 195.138 55.885 200zM54.307 216.992c-0.395-1-6.421-22.676-11.549-26.604C45.151 192.344 54.679 217.992 54.307 216.992z" fill="#562413" stroke-width="none" opacity="1" stroke="none"></path><path id="SvgjsPath7925" d="M170.847 185.281c-0.14 0.637-0.436 1.843-0.642 2.827 -2.355-0.396-5.961-1.215-5.961-0.373 -0.866 9.101-1.283 8.2-2.025 16.167 0.073-10.926 2.019-11.629-0.219-16.902 -6.053-1.017-11.768-2.581-17.019-4.186 -2.151 8.861-12.232 20.261-8.525 15.445 3.343-4.392 6.313-10.895 7.528-15.751 -0.939-0.29-1.867-0.581-2.774-0.869 -0.021-0.591-0.082-1.165-0.235-1.701 -0.346-0.158-4.268-1.11-5.551-1.71 2.176-1.919 5.892-2.672 9.589-0.353 4.431 2.771 12.578 5.406 22.848 5.406C169.184 183.282 170.197 183.622 170.847 185.281zM29.153 185.281c0.14 0.637 0.436 1.843 0.642 2.827 2.355-0.396 5.895-0.783 5.895-0.783 -0.26 5.06 1.35 7.61 2.092 15.577C37.708 191.977 36.014 192.189 37 187c6.053-1.017 12.768-2.581 18.019-4.186 2.151 8.861 13.232 22.001 9.525 17.186 -3.343-4.392-7.313-12.635-8.528-17.491 0.939-0.29 1.867-0.581 2.774-0.869 0.021-0.591 0.082-1.165 0.235-1.701 0.346-0.158 4.268-1.11 5.551-1.71 -2.176-1.919-5.892-2.672-9.589-0.353 -4.431 2.771-12.578 5.406-22.848 5.406C30.816 183.282 29.803 183.622 29.153 185.281z" fill="#744230" stroke-width="none" opacity="1" stroke="none"></path><path id="SvgjsPath7926" d="M58.769 179.936c0-0.801 0.47-1.651 1.339-1.651 0.476 0 1.025 0.247 1.633 0.733l0.146 0.117 -0.178 0.057c-0.73 0.23-1.982 0.597-2.722 0.813l-0.128 0.038L58.769 179.936zM140.869 179.995c-0.016 0-0.016 0-1.14-0.35l-1.301-0.402 0.162-0.119c0.529-0.385 0.955-0.572 1.3-0.572 0.533 0 0.885 0.433 1.076 1.323l0.026 0.12H140.869z" fill="#461808" stroke-width="none" opacity="1" stroke="none"></path><path id="SvgjsPath7927" d="M166.279 216.915c-0.055-8.281 2.988-23.902 4.66-31.67 -1.18-3.017-3.58-1.753-6.03-2.02 -15.956-1.477-19.064-5.281-21.12-6.16 -2.655-1.258-6.253-0.91-8.479 1.13 -0.021 0.01-0.04 0.03-0.061 0.06 1.22 0.625 4.63 1.429 5.63 1.711 3.549 12.378-29.553 40.193-41.23 45.529 -9.231-4.947-43.363-30.894-40.8-45.5 0.113-0.027 2.995-0.729 3.1-0.779 0.039 0 2.487-0.819 2.92-1.03 -0.02-0.01-0.04-0.03-0.05-0.05 -6.392-5.112-11.061 1.27-15.11 2.279 -16.079 4.97-19.171 0.454-20.8 4.7 0.213 1 5.017 20.344 4.61 31.86 -5.072 5.146-8.551 10.14-10.16 20.399 -0.01 0.04-0.02 0.07-0.02 0.101 10.231 0.588 152.439 1.83 153.44 1.83C175.204 229.537 174.033 224.594 166.279 216.915zM138.649 179.205c1.198-0.872 1.907-0.766 2.22 0.69C140.868 179.896 138.65 179.205 138.649 179.205zM58.869 179.936c0-1 0.825-2.429 2.81-0.84C60.919 179.336 59.593 179.724 58.869 179.936zM23.899 237.365c3.735-15.164 12.067-23.607 14.47-23.68 -1.422 0-3.53 1.973-4.53 2.96 0.941-11.17-2.007-22.558-4.63-31.54 1.216-2.388 3.067-1.38 5.53-1.38 22.481 0 21.745-12.367 29.94-5.54 -0.409 0.163-2.524 0.757-2.9 0.88 -3.441-3.277-3.946 2.577-2.91 7.54 5.004 16.15 35.575 39.59 40.71 39.59 15.945-6.354 44.861-31.908 41.59-46.16 0.01-0.02 0-0.04-0.01-0.06 -0.188-1.347-1.059-2.112-2.62-0.811 -0.904-0.285-1.897-0.549-3.09-0.92 5.239-4.381 10.854 1.216 12.77 2.19 4.607 2.536 12.876 3.43 16.681 3.43 2.626 0.086 4.562-1.097 5.739 1.351 -2.909 9.728-5.29 21.217-4.67 31.39 -1.057-1.004-2.635-2.41-4.05-2.76 6.852 2.486 13.144 17.17 14.4 25.26C108.784 236.728 100.525 237.005 23.899 237.365z" fill="#370f01" stroke-width="none" opacity="1" stroke="none"></path></g><g id="svga-group-head" ><g id="svga-group-ears-left" ><path id="SvgjsPath7918" d="M45.671 83.846c-1.485-2.408-6.327-8.995-10.031-8.071 -3.012 0.755-2.973 4.861-3.206 7.289 -0.34 3.563-0.464 9.771 0.525 12.29 0.951 2.418 3.96 7.092 5.828 8.874 2.299 2.185 5.97 9.15 6.422 9.872 0.711 1.142 2.137 2.776 4.325 2.647 3.071-0.181 5.724-3.018 5.965-4.386C56.8 104.941 49.536 90.11 45.671 83.846z" fill="#753915" stroke="#471b00" stroke-width="1.5" opacity="1"></path><path id="SvgjsPath7919" d="M44.2 98.511c-0.143-0.55 0.007-1.479 0.154-2.375 0.133-0.817 0.258-1.588 0.182-2.134 -0.289-2.043-1.915-5.926-2.976-8.03 -1.223-2.421-3.199-5.471-5.679-6.257 -1.024-0.326-1.699 0.063-2.089 0.458 -0.288 0.29-0.353 0.63-0.259 0.671 0.095 0.04 0.307-0.242 0.617-0.508 0.254-0.217-0.508-0.039 0 0 -0.205 1.017-0.865 6.162-0.41 9.918 0.358 2.955 1.05 5.162 1.263 5.492 0.031 0.349 0.083 0.689 0.16 1.02 1.002 4.312 7.518 9.95 9.034 11.557 0.28 0.296 0.574 0.473 0.646 0.4 0.072-0.073-0.101-0.365-0.379-0.664 -1.498-1.595-7.971-7.214-8.939-11.375 -1.027-4.414 3.912-10.958 4.699-12.343 0.401 0.65 0.742 1.274 1.004 1.795 0.207 0.408 0.434 0.886 0.67 1.403 -0.463 0.721-5.118 5.992-3.934 10.21 0.438 1.556 3.822 3.561 5.131 4.11 0.72 0.303 0.99 0.754 1.304 1.277 0.364 0.608 0.033 2.179 1.23 2.677 0.244 0.103 0.464 0.144 0.659 0.144 0.338 0 0.594-0.127 0.783-0.278 0.02 0.266 0.019 0.605 0.009 0.921 -0.012 0.407 0.047 0.596 0.148 0.604 0.103 0.008 0.21-0.17 0.223-0.574 0.017-0.5 0.014-1.116-0.077-1.412 -0.269-0.868-1.088-1.851-1.957-2.89C44.563 101.304 44.422 99.364 44.2 98.511zM34.969 94.688c-2.348-6.77 1.283-12.936 1.81-13.865 1.012 0.39 2.562 2.145 3.221 3.163C39.52 84.802 35.067 90.135 34.969 94.688zM45.772 105.475c-1.084-0.451-0.706-1.939-1.056-2.525 -0.318-0.531-0.646-1.078-1.479-1.429 -0.18-0.076-0.379-0.191-0.583-0.325 -2.682-5.939 0.293-8.537 1.039-9.068 0.229 0.726 0.399 1.392 0.476 1.926 0.068 0.49-0.059 1.27-0.181 2.023 -0.153 0.934-0.31 1.901-0.147 2.526 0.244 0.931 0.411 2.904 1.291 3.958 0.781 0.935 1.583 1.899 1.857 2.685C46.871 105.403 46.5 105.778 45.772 105.475z" fill="#471b00" stroke-width="none" opacity="1" stroke="none"></path></g><g id="svga-group-ears-right" ><path id="SvgjsPath7920" d="M154.066 83.846c1.486-2.408 6.328-8.995 10.031-8.071 3.012 0.755 2.973 4.861 3.207 7.289 0.34 3.563 0.463 9.771-0.525 12.29 -0.951 2.418-3.961 7.092-5.828 8.874 -2.299 2.185-5.971 9.15-6.422 9.872 -0.711 1.142-2.137 2.776-4.326 2.647 -3.07-0.181-5.723-3.018-5.965-4.386C142.938 104.941 150.203 90.11 154.066 83.846z" fill="#753915" stroke="#471b00" stroke-width="1.5" opacity="1"></path><path id="SvgjsPath7921" d="M154.322 102.327c-0.869 1.039-1.688 2.022-1.957 2.89 -0.092 0.296-0.094 0.912-0.078 1.412 0.014 0.404 0.121 0.582 0.225 0.574 0.102-0.008 0.16-0.196 0.148-0.604 -0.01-0.315-0.012-0.655 0.008-0.921 0.189 0.151 0.445 0.278 0.783 0.278 0.195 0 0.416-0.041 0.66-0.144 1.195-0.498 0.865-2.068 1.229-2.677 0.314-0.523 0.584-0.975 1.305-1.277 1.309-0.549 4.693-2.554 5.131-4.11 1.184-4.218-3.471-9.489-3.934-10.21 0.234-0.517 0.463-0.995 0.668-1.403 0.264-0.521 0.604-1.145 1.006-1.795 0.787 1.384 5.725 7.929 4.699 12.343 -0.969 4.161-7.441 9.781-8.939 11.375 -0.279 0.299-0.453 0.591-0.381 0.664 0.074 0.072 0.367-0.104 0.646-0.4 1.516-1.606 8.031-7.245 9.033-11.557 0.078-0.33 0.131-0.671 0.162-1.02 0.211-0.331 0.904-2.537 1.262-5.492 0.455-3.756-0.205-8.901-0.41-9.918 0.508-0.039-0.254-0.217 0 0 0.311 0.266 0.523 0.548 0.617 0.508 0.094-0.041 0.029-0.381-0.258-0.671 -0.391-0.394-1.066-0.784-2.09-0.458 -2.48 0.786-4.457 3.836-5.68 6.257 -1.061 2.104-2.686 5.987-2.975 8.03 -0.076 0.546 0.049 1.317 0.182 2.134 0.146 0.896 0.297 1.824 0.154 2.375C155.316 99.364 155.176 101.304 154.322 102.327zM159.738 83.987c0.66-1.019 2.209-2.773 3.221-3.163 0.527 0.929 4.158 7.095 1.811 13.865C164.672 90.135 160.219 84.802 159.738 83.987zM152.75 105.246c0.273-0.785 1.076-1.75 1.857-2.685 0.879-1.053 1.047-3.026 1.291-3.958 0.162-0.625 0.006-1.592-0.146-2.526 -0.123-0.754-0.25-1.534-0.182-2.023 0.076-0.535 0.246-1.201 0.475-1.926 0.746 0.531 3.721 3.128 1.039 9.068 -0.203 0.133-0.402 0.249-0.584 0.325 -0.832 0.351-1.16 0.898-1.479 1.429 -0.35 0.586 0.029 2.074-1.055 2.525C153.238 105.778 152.867 105.403 152.75 105.246z" fill="#471b00" stroke-width="none" opacity="1" stroke="none"></path></g><g id="svga-group-faceshape-wrap" ><g id="svga-group-faceshape-single" ><path id="SvgjsPath8032" d="M158.785 76.762l-0.005 0c-0.012 0.053-10.717 44.373-18.919 56.95 -6.452 9.895-28.166 25.54-39.84 25.558 -11.671 0.02-33.437-15.559-39.918-25.433C51.861 121.285 41.017 77 41.005 76.946h-0.001c-1.298-4.911-1.994-10.066-2.002-15.382C38.949 28.09 66.155 0.919 99.773 0.867c33.621-0.052 60.913 27.033 60.964 60.507C160.746 66.69 160.068 71.846 158.785 76.762z" fill="#753915" stroke-width="none" opacity="1" stroke="none"></path><path id="SvgjsPath8033" d="M125.766 6.622c19.104 10.248 32.075 30.355 32.039 53.476 -0.009 5.316-0.704 10.471-2.003 15.382h-0.001c-0.012 0.053-10.856 44.339-19.099 56.891 -5.946 9.061-24.555 25.121-36.833 25.121 -12.279 0-30.886-16.061-36.833-25.121 -8.242-12.552-19.086-56.837-19.098-56.891h-0.001c-1.298-4.911-1.994-10.066-2.002-15.382C41.898 36.977 54.87 16.87 73.972 6.622 53.277 16.324 38.963 37.28 39.001 61.564c0.008 5.316 0.704 10.471 2.002 15.382h0.001c0.012 0.053 10.856 44.339 19.098 56.891 4.416 6.728 15.922 16.095 26.5 21.382 -0.529-0.226-1.062-0.466-1.599-0.717 5.408 2.875 10.664 4.763 14.713 4.768 0.049 0 0.103-0.005 0.152-0.005s0.103 0.005 0.152 0.005c4.049-0.005 9.305-1.893 14.714-4.768 -0.538 0.253-1.071 0.491-1.601 0.718 10.577-5.287 22.085-14.655 26.501-21.383 8.242-12.552 19.087-56.837 19.098-56.891h0.002c1.298-4.911 1.994-10.066 2.002-15.382C160.775 37.28 146.462 16.324 125.766 6.622z" fill="#6d320e" stroke-width="none" opacity="1" stroke="none"></path><path id="SvgjsPath8034" d="M158.785 76.762l-0.005 0c-0.012 0.053-10.717 44.373-18.919 56.95 -6.452 9.895-28.166 25.54-39.84 25.558 -11.671 0.02-33.437-15.559-39.918-25.433C51.861 121.285 41.017 77 41.005 76.946h-0.001c-1.298-4.911-1.994-10.066-2.002-15.382C38.949 28.09 66.155 0.919 99.773 0.867c33.621-0.052 60.913 27.033 60.964 60.507C160.746 66.69 160.068 71.846 158.785 76.762z" fill="none" stroke="#471b00" stroke-width="1.5" opacity="1"></path></g></g><g id="svga-group-mouth-single" ><path id="SvgjsPath7908" d="M99.867 142.685c-4.159 0-7.651-3.162-7.651-3.162 7.261 1.131 16.154-0.671 16.154-0.671S105.119 142.685 99.867 142.685z" fill="#662b08" stroke-width="none" opacity="1" stroke="none"></path><path id="SvgjsPath7909" d="M99.869 138.507c-2.691 0.025-8.86-1.635-11.18-2.938 -1.374-0.769-3.749-3.433-5.4-4.788 -0.635-0.521-0.371-1.528 0.466-1.569 2.036-0.099 4.65 0.979 5.876 1.169 2.565 0.389 5.805 1.835 10.195 1.835 3.262 0 6.828-1.15 9.101-1.574 1.367-0.254 4.529-1.376 6.755-1.501 0.838-0.05 1.18 0.777 0.56 1.316 -1.739 1.526-4.526 4.328-6.028 5.112C107.783 136.837 102.294 138.485 99.869 138.507z" fill="#000000" stroke-width="none" opacity="0.5"></path><path id="SvgjsPath7910" d="M86.859 129.328c0 0 0.286 2.427 0.722 3.12 0.6 0.954 4.257 2.914 5.717 3.188 0.993 0.184 2.814 0.476 3.816 0.613 1.085 0.148 1.695 0.015 2.791-0.021 1.179-0.038 2.186 0.132 3.336-0.135 0.819-0.19 3.215-0.834 3.997-1.145 0.604-0.242 1.814-0.643 2.364-0.992 0.456-0.288 1.866-1.333 2.146-1.795 0.366-0.605 0.709-2.752 0.709-2.752L86.859 129.328z" fill="#ffffff" stroke-width="none" opacity="1"></path><path id="SvgjsPath7911" d="M92.17 129.748c0 0-0.522 5.283-0.568 5.375 -0.047 0.092-0.179-5.375-0.179-5.375H92.17zM94.364 130.335l0.464 5.601 0.298-5.601H94.364zM99.485 131.161l0.579 5.088 0.375-5.176L99.485 131.161zM103.978 130.093c0.973 0.088 1.298 5.446 1.298 5.446l0.134-5.446H103.978zM107.705 129.438c0 0 0.386 5.114 0.44 5.018 0.053-0.097 0.153-5.018 0.153-5.018H107.705zM88.876 129.436l0.283 4.181 0.283-4.181H88.876zM110.375 129.011l0.086 4.38 0.432-4.413L110.375 129.011z" fill="#000000" stroke-width="none" opacity="0.1"></path><path id="SvgjsPath7912" d="M116.764 129.126c-1.218-0.406-3.771-0.125-5.061-0.294 -1.83-0.239-5.542-0.409-7.392-0.356 -1.161 0.034-3.449 0.457-4.608 0.484 -1.191 0.027-3.562-0.461-4.751-0.471 -1.888-0.012-5.689 0.214-7.54 0.534 -1.279 0.222-3.89-0.113-4.914 0.475 -0.237 0.137-0.095 0.75 0 0.981 0.862 2.089 4.188 5.489 7.067 7.497 3.698 2.579 7.586 3.38 10.643 3.381 4.035 0.003 8.785-2.247 12.762-5.639 1.758-1.5 3.982-4.091 4.353-5.537C117.512 129.451 117.079 129.231 116.764 129.126zM99.816 136.352c-2.488 0.019-8.26-1.229-10.697-2.494 -1.461-0.759-3.7-2.577-5.226-3.708 -0.588-0.435-0.454-0.789 0.321-0.822 1.882-0.084 5.042 0.944 6.177 1.1 2.371 0.324 5.366 1.531 9.425 1.531 3.013 0 6.312-0.959 8.414-1.311 1.264-0.213 4.833-1.278 6.89-1.384 0.775-0.04 0.926 0.276 0.354 0.727 -1.61 1.271-4.326 3.216-6.055 4.066C107.224 135.139 102.057 136.328 99.816 136.352z" fill="#98a2a2" stroke="#7b9393" stroke-width="0.75" opacity="1"></path><path id="SvgjsPath7913" d="M86.869 134.124c2.588 0.523 8.417 3.611 13.315 3.444 5.105-0.175 12.685-4.745 13.685-4.244 0.373 1.199-9.853 6.985-13.685 7.077C96.747 140.482 85.786 135.485 86.869 134.124zM99.485 131.161c3.109-0.042 6.909-0.442 9.469-1.672 -2.918-1.013-6.938 0.115-9.251 0.168 -3 0.07-5.51-0.934-8.289 0.058C94.069 130.622 96.798 131.198 99.485 131.161z" fill="#b1b1b1" stroke-width="none" opacity="1" stroke="none"></path><path id="SvgjsPath7914" d="M97.732 139.024c-1.881-0.424-1.945-0.596-0.162-0.42 1.09 0.106 2.18 0.132 3.238 0.03 0.141-0.015 0.281-0.029 0.419-0.049 1.195-0.157 2.479-0.546 3.768-1.051 2.015-0.792 2.051-0.6 0.053 0.446 -1.467 0.767-2.831 1.324-3.798 1.44l-0.062 0.007C100.364 139.509 99.123 139.34 97.732 139.024z" fill="#c1c1c1" stroke-width="none" opacity="1" stroke="none"></path><path id="SvgjsPath7915" d="M79.599 130.722c0 0-0.561-1.256-0.482-1.724 0.11-0.657 1.521-1.958 1.521-1.958s-0.854 1.498-0.986 1.971C79.523 129.468 79.599 130.722 79.599 130.722zM120.163 130.881c0 0 0.609-1.364 0.523-1.873 -0.119-0.714-1.652-2.127-1.652-2.127s0.929 1.628 1.072 2.142C120.245 129.519 120.163 130.881 120.163 130.881z" fill="#471b00" stroke-width="none" opacity="1" stroke="none"></path></g><g id="svga-group-eyes-left" ><g id="svga-group-eyesback-left"><path id="SvgjsPath8039" d="M86.66 84.231c0.748 1.472 1.181 3.05 1.181 4.654 0 3.108-1.716 5.337-3.133 6.88 -6.936 6.296-17.723 5.964-23.191-1.044 -0.984-1.617-1.528-3.528-1.518-5.667C65.019 76.267 78.859 72.676 86.66 84.231z" fill="url(#SvgjsRadialGradient8040)" opacity="1"></path></g><g id="svga-group-eyesiriswrapper-left" transform="translate(0 1)"><g id="svga-group-eyesiriscontrol-left" ><g id="svga-group-eyesiris-left" transform="matrix(0.8999999999999999 0 0 0.8999999999999999 7.5 8.699950027465832)"><path id="SvgjsPath7962" d="M85.611 90.706c-1.593 7.449-7.63 11.838-13.495 9.791 -5.861-2.044-9.322-9.749-7.728-17.199 1.592-7.456 7.644-11.843 13.505-9.796C83.748 75.545 87.206 83.25 85.611 90.706z" fill="#282978" stroke="#02034a" stroke-width="0.5" opacity="1"></path><path id="SvgjsPath7963" d="M85.349 87.868c-0.812 8.271-5.638 12.58-10.913 12.131 -4.873-0.417-9.23-4.993-9.636-12.893 1.688-0.616 3.925 0.385 5.887 0.003 -0.005 0.09-0.028 0.172-0.03 0.264 -0.159 3.033 1.753 5.675 4.266 5.891 2.522 0.214 4.689-2.081 4.844-5.113 0.018-0.395-0.002-0.783-0.048-1.157C81.467 87.33 83.607 86.998 85.349 87.868z" fill="#3b3c87" stroke-width="none" opacity="1"></path><path id="SvgjsPath7964" d="M76.59 82.329c-2.421-0.88-4.891 0.877-5.515 3.946 -0.625 3.051 0.832 6.248 3.252 7.129 2.42 0.885 4.89-0.876 5.521-3.93C80.476 86.406 79.014 83.212 76.59 82.329z" fill="#000000" stroke-width="none" opacity="0.9"></path><path id="SvgjsPath7965" d="M76.59 82.329c-2.421-0.88-4.891 0.877-5.515 3.946 -0.625 3.051 0.832 6.248 3.252 7.129 2.42 0.885 4.89-0.876 5.521-3.93C80.476 86.406 79.014 83.212 76.59 82.329z" fill="none" stroke="#02034a" stroke-width="0.75" opacity="1"></path><path id="SvgjsPath7966" d="M69.795 95.534c-0.23 1.02-1.479 0.586-1.253-0.438 0.225-0.988 0.823-1.593 1.199-2.462 0.405-0.929 1.523-0.098 1.117 0.832C70.549 94.183 69.972 94.735 69.795 95.534L69.795 95.534zM71.783 93.909c-0.344 0.51-0.795 2.402-0.99 3.021 -0.31 0.985 0.941 1.41 1.248 0.438 0.106-0.337 0.47-2.014 0.659-2.293C73.239 94.271 72.33 93.102 71.783 93.909L71.783 93.909zM74.48 98.779c0.674-0.992 0.606-2.127 0.591-3.362 -0.01-1.061-1.303-1.062-1.293 0 0.011 0.683 0.169 1.634-0.215 2.197C73.021 98.413 73.931 99.583 74.48 98.779L74.48 98.779zM75.8 95.212c0.013 1.022 0.108 2.02 0.346 2.998 0.249 1.012 1.497 0.58 1.253-0.438 -0.208-0.845-0.294-1.678-0.301-2.561C77.085 94.15 75.792 94.149 75.8 95.212L75.8 95.212z" fill="#ffffff" stroke-width="none" opacity="0.5"></path><path id="SvgjsPath7967" d="M82.694 84.601c-1.273 0.972-3.188 0.097-4.276-1.958 -1.083-2.056-0.924-4.512 0.355-5.482 1.272-0.977 3.189-0.1 4.268 1.956C84.129 81.173 83.973 83.626 82.694 84.601z" fill="#ffffff" stroke-width="none" opacity="0.8"></path></g></g></g><g id="svga-group-eyesfront-left"><path id="SvgjsPath8064" d="M55 89c0 13.808 8.507 24.999 19 24.999S93 102.808 93 89c0-13.809-8.507-25.001-19-25.001S55 75.191 55 89zM61.517 94.721c-0.984-1.617-1.528-3.528-1.518-5.667 5.02-12.787 18.86-16.378 26.661-4.822 0.748 1.472 1.181 3.05 1.181 4.654 0 3.108-1.716 5.337-3.133 6.88C77.772 102.061 66.985 101.729 61.517 94.721z" fill="#753915" stroke-width="none" opacity="1"></path><path id="SvgjsPath8065" d="M57.063 86.713c0.814 9.341 9.499 16.142 19.41 15.198 9.908-0.95 17.284-9.286 16.465-18.625 -0.814-9.342-9.5-16.145-19.412-15.199C63.615 69.038 56.243 77.374 57.063 86.713zM59.999 89.054c5.02-12.787 18.86-16.378 26.661-4.822 0.748 1.472 1.181 3.05 1.181 4.654 0 3.108-1.716 5.337-3.133 6.88 -6.936 6.296-17.723 5.964-23.191-1.044C60.532 93.104 59.988 91.193 59.999 89.054z" fill="url(#SvgjsRadialGradient8066)" opacity="1"></path><path id="SvgjsPath8070" d="M81.835 79.36c1.751 1.137 3.391 2.746 4.825 4.871 0.748 1.472 1.181 3.05 1.181 4.654 0 3.108-1.716 5.337-3.133 6.88 -6.936 6.296-17.723 5.964-23.191-1.044 -0.984-1.617-1.528-3.528-1.518-5.667 2.306-5.874 6.475-9.8 11.063-11.216 0.492-0.123 0.994-0.221 1.506-0.293C75.914 77.071 79.118 77.794 81.835 79.36z" fill="url(#SvgjsRadialGradient8071)" opacity="1"></path><path id="SvgjsPath8074" d="M85.831 76.642c-5.97-3.487-13.357-4.669-21.869-0.887C70.286 72.031 79.389 71.736 85.831 76.642z" fill="#471b00" stroke-width="none" opacity="1"></path><path id="SvgjsPath8075" d="M61.42 94.437c5.438 6.916 16.313 7.27 23.288 1.123C76.492 104.249 62.78 99.934 61.42 94.437zM89.378 80.015c-6.384-8.038-22.106-6.856-30.795-0.861 2.103-0.601 3.804-1.189 6.62-2.33 -5.615 2.601-5.615 4.669-10.263 9.476l2.246-1.852 -1.182 3.369c1.184-1.713 1.863-2.423 2.638-3.015 -0.296 1.064-0.473 1.714-0.709 3.015 1.58-2.138 2.498-3.246 3.724-4.197 -1.403 1.989-1.822 3.855-2.01 6.325 4.965-13.89 20.687-17.496 28.312-3.487 -0.464-2.242-1.42-3.989-2.482-5.556 1.747 0.8 3.175 2.443 4.492 4.965 -1.063-4.314-1.714-5.438-5.379-8.275L89.378 80.015z" fill="#000000" stroke-width="none" opacity="1"></path></g></g><g id="svga-group-eyes-right" ><g id="svga-group-eyesback-right"><path id="SvgjsPath8047" d="M113.34 84.231c-0.748 1.472-1.181 3.05-1.181 4.654 0 3.108 1.716 5.337 3.133 6.88 6.936 6.296 17.723 5.964 23.191-1.044 0.984-1.617 1.528-3.528 1.518-5.667C134.981 76.267 121.141 72.676 113.34 84.231z" fill="url(#SvgjsRadialGradient8048)" opacity="1"></path></g><g id="svga-group-eyesiriswrapper-right" transform="translate(0 1)"><g id="svga-group-eyesiriscontrol-right" ><g id="svga-group-eyesiris-right" transform="matrix(0.8999999999999999 0 0 0.8999999999999999 12.499999237060564 8.699950027465832)"><path id="SvgjsPath7968" d="M135.611 90.706c-1.593 7.449-7.63 11.838-13.495 9.791 -5.861-2.044-9.322-9.749-7.728-17.199 1.592-7.456 7.644-11.843 13.505-9.796C133.748 75.545 137.206 83.25 135.611 90.706z" fill="#282978" stroke="#02034a" stroke-width="0.5" opacity="1"></path><path id="SvgjsPath7969" d="M135.349 87.868c-0.812 8.271-5.638 12.58-10.913 12.131 -4.873-0.417-9.23-4.993-9.636-12.893 1.688-0.616 3.925 0.385 5.887 0.003 -0.005 0.09-0.028 0.172-0.03 0.264 -0.159 3.033 1.753 5.675 4.266 5.891 2.522 0.214 4.689-2.081 4.844-5.113 0.018-0.395-0.002-0.783-0.048-1.157C131.467 87.33 133.607 86.998 135.349 87.868z" fill="#3b3c87" stroke-width="none" opacity="1"></path><path id="SvgjsPath7970" d="M126.59 82.329c-2.421-0.88-4.891 0.877-5.515 3.946 -0.625 3.051 0.832 6.248 3.252 7.129 2.42 0.885 4.89-0.876 5.521-3.93C130.476 86.406 129.014 83.212 126.59 82.329z" fill="#000000" stroke-width="none" opacity="0.9"></path><path id="SvgjsPath7971" d="M126.59 82.329c-2.421-0.88-4.891 0.877-5.515 3.946 -0.625 3.051 0.832 6.248 3.252 7.129 2.42 0.885 4.89-0.876 5.521-3.93C130.476 86.406 129.014 83.212 126.59 82.329z" fill="none" stroke="#02034a" stroke-width="0.75" opacity="1"></path><path id="SvgjsPath7972" d="M119.795 95.534c-0.23 1.02-1.479 0.586-1.253-0.438 0.225-0.988 0.823-1.593 1.199-2.462 0.405-0.929 1.523-0.098 1.117 0.832C120.549 94.183 119.972 94.735 119.795 95.534L119.795 95.534zM121.783 93.909c-0.344 0.51-0.795 2.402-0.99 3.021 -0.31 0.985 0.941 1.41 1.248 0.438 0.106-0.337 0.47-2.014 0.659-2.293C123.239 94.271 122.33 93.102 121.783 93.909L121.783 93.909zM124.48 98.779c0.674-0.992 0.606-2.127 0.591-3.362 -0.01-1.061-1.303-1.062-1.293 0 0.011 0.683 0.169 1.634-0.215 2.197C123.021 98.413 123.931 99.583 124.48 98.779L124.48 98.779zM125.8 95.212c0.013 1.022 0.108 2.02 0.346 2.998 0.249 1.012 1.497 0.58 1.253-0.438 -0.208-0.845-0.294-1.678-0.301-2.561C127.085 94.15 125.792 94.149 125.8 95.212L125.8 95.212z" fill="#ffffff" stroke-width="none" opacity="0.5"></path><path id="SvgjsPath7973" d="M132.694 84.601c-1.273 0.972-3.188 0.097-4.276-1.958 -1.083-2.056-0.924-4.512 0.355-5.482 1.272-0.977 3.189-0.1 4.268 1.956C134.129 81.173 133.973 83.626 132.694 84.601z" fill="#ffffff" stroke-width="none" opacity="0.8"></path></g></g></g><g id="svga-group-eyesfront-right"><path id="SvgjsPath8085" d="M126 63.999c-10.493 0-19 11.192-19 25.001 0 13.808 8.507 24.999 19 24.999S145 102.808 145 89C145 75.191 136.493 63.999 126 63.999zM115.292 95.765c-1.417-1.542-3.133-3.771-3.133-6.88 0-1.604 0.433-3.182 1.181-4.654 7.801-11.556 21.642-7.964 26.661 4.822 0.011 2.139-0.533 4.05-1.518 5.667C133.015 101.729 122.228 102.061 115.292 95.765z" fill="#753915" stroke-width="none" opacity="1"></path><path id="SvgjsPath8086" d="M126.475 68.087c-9.912-0.946-18.598 5.857-19.412 15.199 -0.819 9.339 6.557 17.676 16.465 18.625 9.911 0.944 18.596-5.857 19.41-15.198C143.757 77.374 136.385 69.038 126.475 68.087zM138.483 94.721c-5.469 7.008-16.256 7.34-23.191 1.044 -1.417-1.542-3.133-3.771-3.133-6.88 0-1.604 0.433-3.182 1.181-4.654 7.801-11.556 21.642-7.964 26.661 4.822C140.012 91.193 139.468 93.104 138.483 94.721z" fill="url(#SvgjsRadialGradient8087)" opacity="1"></path><path id="SvgjsPath8091" d="M118.165 79.36c-1.751 1.137-3.391 2.746-4.825 4.871 -0.748 1.472-1.181 3.05-1.181 4.654 0 3.108 1.716 5.337 3.133 6.88 6.936 6.296 17.723 5.964 23.191-1.044 0.984-1.617 1.528-3.528 1.518-5.667 -2.306-5.874-6.475-9.8-11.063-11.216 -0.492-0.123-0.994-0.221-1.506-0.293C124.086 77.071 120.882 77.794 118.165 79.36z" fill="url(#SvgjsRadialGradient8092)" opacity="1"></path><path id="SvgjsPath8095" d="M114.169 76.642c5.97-3.487 13.357-4.669 21.869-0.887C129.714 72.031 120.611 71.736 114.169 76.642z" fill="#471b00" stroke-width="none" opacity="1"></path><path id="SvgjsPath8096" d="M115.292 95.56c6.975 6.147 17.85 5.792 23.288-1.123C137.22 99.934 123.508 104.249 115.292 95.56zM115.41 77.592c-3.665 2.837-4.315 3.96-5.379 8.275 1.317-2.522 2.745-4.165 4.492-4.965 -1.063 1.567-2.019 3.314-2.482 5.556 7.625-14.008 23.347-10.403 28.312 3.487 -0.188-2.47-0.606-4.335-2.01-6.325 1.226 0.951 2.144 2.059 3.724 4.197 -0.236-1.3-0.413-1.951-0.709-3.015 0.774 0.591 1.454 1.302 2.638 3.015l-1.182-3.369 2.246 1.852c-4.647-4.807-4.647-6.875-10.263-9.476 2.816 1.141 4.518 1.729 6.62 2.33 -8.688-5.995-24.411-7.177-30.795 0.861L115.41 77.592z" fill="#000000" stroke-width="none" opacity="1"></path></g></g><g id="svga-group-facehighlight-single" ><path id="SvgjsPath7653" d="M140.204 113.007c0.035 22.275-17.995 40.365-40.273 40.396 -22.274 0.036-40.361-17.993-40.396-40.272C59.501 90.857 77.53 72.77 99.808 72.735 122.083 72.701 140.171 90.73 140.204 113.007z" fill="url(#SvgjsRadialGradient7654)" opacity="1"></path><path id="SvgjsPath7657" d="M135,55.999c0,19.329-15.671,35-35,35c-19.329,0-35-15.671-35-35s15.671-35,35-35C119.329,20.999,135,36.67,135,55.999z" fill="url(#SvgjsRadialGradient7658)" opacity="1"></path></g><g id="svga-group-eyebrows-left" ><path id="SvgjsPath8097" d="M52.39 76.804c16.406-19.451 43.626-14.324 38.065-11.7C88.527 66.014 68.692 62.075 52.39 76.804z" fill="#8e653d" stroke-width="none" opacity="1" stroke="none"></path></g><g id="svga-group-eyebrows-right" ><path id="SvgjsPath8098" d="M147.619 76.796c-10.422-9.39-21.831-11.612-35.751-11.554 -4.2 0.015-3.035-1.712-1.846-2.059C113.752 62.098 133.915 60.618 147.619 76.796z" fill="#8e653d" stroke-width="none" opacity="1" stroke="none"></path></g><g id="svga-group-nose-single" ><path id="SvgjsPath7916" d="M99.044 91.436c0 0-0.827 19.066-0.713 23.254 0.032 1.188 2.32 4.304 2.164 6.575 0 0-4.462-0.325-5.914-0.838 -1.519-0.538-3.869-1.588-2.94-4.521C92.964 111.735 99.044 91.436 99.044 91.436z" fill="#662b08" stroke-width="none" opacity="1" stroke="none"></path><path id="SvgjsPath7917" d="M98.627 119.026c0 0-1.851-0.657-3.02-0.624 -1.064 0.033-1.218-0.676-1.11-1.079 0.108-0.403 0.473-0.654 1.501-0.38C97.027 117.219 98.627 119.026 98.627 119.026zM101.382 119.028c0 0 1.847-0.609 3.02-0.622 1.064-0.013 1.219-0.677 1.11-1.079 -0.108-0.404-0.473-0.657-1.501-0.383C102.982 117.222 101.382 119.028 101.382 119.028z" fill="#471b00" stroke-width="none" opacity="1" stroke="none"></path></g><g id="svga-group-hair-front" ><path id="SvgjsPath7956" d="M163.476 45.849C157.957 11.071 51.814-21.979 45.016 30.572c-0.885 18.136-10.912 73.919-11.9 84.041 6.018-18.799 20.431-5.47 38.764-49.857 4.9-11.864 11.813-39.917 31.311-41.801 9.464-0.893 16.743 3.867 19.483 12.72 8.666-4.414 8.823 13.935 10.045 23.533 1.612 12.513 0.039 18.399 7.431 27.51 0.063 0.161 1.351 1.595 1.363 1.609 11.489 12.621 22.998 12.145 25.989 24.744C168.675 118.003 161.736 45.363 163.476 45.849z" fill="#d6c4c4" stroke-width="none" opacity="0.1" stroke="none"></path><path id="SvgjsPath7957" d="M10.679 67.989c-0.08 0.52-0.14 1.05-0.18 1.58 -3.683 6.71-0.19 17.072 7.2 19.07 3.015 2.597 6.918 4.146 10.19 4.51C12.352 96.056 3.486 80.156 10.679 67.989zM140.989 150.802c1.873 11.332-8.278 12.377-17.511 19.258l-0.136-0.146c3.56-4.151 8.838-4.812 12.242-8.592 5.51-6.138-0.258-14.435 1.428-20.549 2.926-10.847 21.597-10.767 21.597-24.554 -0.088-11.4-10.183-10.74-13.68-25.996 3.991 4.223 8.235 7.215 14.113 9.352 2.064 2.779 5.38 10.297 2.086 14.754l-0.133-0.071c1.018-3.279 0.099-7.181-1.637-9.489 -1.885-2.487-3.539-2.963-5.204-3.87 6.479 8.318 6.148 15.227 6.144 15.296 0 18.127-24.507 11.586-19.896 31.825 0.395 1.726 0.462 2.093 0.595 2.789L140.989 150.802zM28.074 93.072c-0.721 0.188-1.471 0.338-2.282 0.473 -19.331 17.736 8.183 44.458 20.79 26.081l-0.148-0.132c-1.512 1.33-3.145 2.004-4.854 2.004h-0.001c-4.978-0.002-9.098-5.829-7.713-10.782 2.755-9.938 16.66-13.418 22.715-21.969 3.322-4.667 7.244-13.057 9.402-18.934l-0.181-0.083C56.737 86.019 42.105 94.836 28.074 93.072zM54.746 91.833c-2.594 6.695-17.633 13.882-13.478 23.168l0.189-0.06c-0.4-2.134 0.236-4.373 1.944-6.846 5.659-8.237 14.417-8.034 16.256-22.935l-0.188-0.059C58.019 87.842 57.463 88.981 54.746 91.833zM169.426 107.563c1.005 1.093 2.341 3.133 3.048 5.467l0.195-0.025c0.314-7.889-6.813-11.093-13.422-13.359 0.99 1.468 13.351 10.311 5.77 21.729 -6.407 9.553-20.878 9.986-24.507 22.293 0.191 2.607 1.072 5.197 1.342 8.249 1.865 3.505 1.438 5.546 0.955 6.777l0.176 0.092c2.649-3.987 0.84-6.468-0.039-8.81 -4.883-13.385 11.86-17.55 21.416-26.186C171.809 116.342 171.383 110.944 169.426 107.563zM173.211 87.674c4.254-0.131 8.963-2.941 9.957-8.197l-0.181-0.076c-3.981 5.667-9.384 4.417-10.994 3.249 4.146-3.207 6.866-7.883 7.496-13.841 0.855-8.086-2.466-16.957-6.196-21.562 0.679-4.414-0.745-5.51-3.217-7.753l-0.149 0.131c2.775 4.03-1.925 10.404-7.444 2.045 1.132 1.552 2.68 3.229 4.529 3.746 -5.866-36.958-29.602-49.74-43.027-44.981C79.132-29.613 36.629 3.565 29.402 59.413c-8.654-6.647-17.233-1.502-18.283 9.256 -2.856 27.867 36.579 37.724 57.34-6.717 5.763-12.363 13.758-38.861 34.479-40.863 0.731-0.07 1.461-0.106 2.166-0.106 8.938 0 15.002 5.705 17.664 14.319 9.215-4.692 12.382 13.048 13.681 23.25 1.714 13.297 0.041 19.554 7.897 29.234 0.067 0.171 1.436 1.697 1.448 1.711 12.213 13.413 23 8.257 26.729 19.893 1.64 5.134-1.395 9.365-4.83 13.418 1.683-0.594 5.142-0.965 8.508-2.992C187.004 113.299 188.721 98.575 173.211 87.674z" fill="#d6c4c4" stroke-width="none" opacity="1" stroke="none"></path><path id="SvgjsPath7958" d="M80.007 36.444c3.484-8.505 13.429-16.407 28.114-15.8 7.039 0.291 15.361 8.612 14.549 15.101C113.548 27.292 93.276 27.292 80.007 36.444z" fill="#b78383" stroke-width="none" opacity="1" stroke="none"></path><path id="SvgjsPath7959" d="M170.429 39.816c2.258 2.056 3.086 2.956 2.981 5.889 -1.468 6.625-9.488 4.38-13.608 0.529C167.771 50.245 173.41 45.705 170.429 39.816zM183.168 79.478l-0.05-0.021c-0.736 1.761-1.699 3.408-3.118 4.827 -7 5-16 2-22-3 4.172 4.768 9.765 6.677 15.508 6.609 -0.101-0.072-0.195-0.147-0.297-0.219C177.465 87.543 182.174 84.733 183.168 79.478zM21 106.283c0.924-5.081 3.351-9.303 6.474-13.071 0 0-0.799 0.187-1.682 0.333 -13.494 12.38-4.18 29.248 7.159 31.901C25.569 121.724 20.294 114.754 21 106.283zM65.802 69.73c-1.389 5.293-6.815 15.637-9.221 19.017 -6.055 8.55-19.96 12.031-22.715 21.969 -1.832 6.554 5.961 14.591 12.568 8.778l0.148 0.132c-0.396 0.577-0.815 1.104-1.248 1.604 -11.551 8.911-20.499-8.806-11.334-17.946C43.878 93.434 57.354 93.212 65.802 69.73zM27.801 93.135c-13.83 3.412-24.862-12.053-17.122-25.146 -0.08 0.52-0.14 1.05-0.18 1.58 -3.683 6.71-0.19 17.072 7.2 19.07C20.688 91.213 24.547 92.754 27.801 93.135zM169.188 122.389c-1.076 0.251-1.021 0.252-1.494 0.419 3.436-4.053 6.47-8.284 4.83-13.418 -3.797-11.849-14.94-6.297-27.454-20.715 -0.021-0.132-0.021-0.132 0 0 -8.636-9.933-6.913-16.879-8.62-30.123 -1.299-10.201-4.466-27.941-13.681-23.25 -3.2-10.356-10.696-15.091-19.83-14.213 -20.72 2.001-28.716 28.5-34.479 40.863C50.633 100.11 19.085 98.196 12.309 79.394c2.157 2.185 8.936 7.523 11.927 8.292C40.55 91.879 52 82.284 59 67.284c10-22 21-60 51-52 6 2 13 8 14 16 1-4 5.137-1.504 6-1 7.536 4.402 8 31 12 47 2 8 8 13 14 16 9 4 25 10 19 22 6.769-4.062 8.493-11.33 7.043-18.394C187.865 106.951 183.654 119.025 169.188 122.389zM161.129 114.329l-0.133-0.071c1.017-3.275 0.104-7.174-1.637-9.489 -1.885-2.487-3.539-2.963-5.204-3.87 4.465 5.581 6.358 12.247 6.144 15.296 0 8.941-6.206 12.02-11.986 15.351 4.062-3.166 8.695-5.614 10.688-10.262 1.146-3.44 1.423-9.372-2.048-13.682 -11.664-14.484-11.253-14.337-11.94-17.292 3.938 3.995 7.768 6.989 14.031 9.265C161.107 102.354 164.423 109.872 161.129 114.329zM172.669 113.004l-0.195 0.025c-0.707-2.334-2.043-4.374-3.048-5.467 1.957 3.382 2.383 8.779-5.066 16.228 -9.556 8.636-26.299 12.801-21.416 26.186 0.879 2.342 2.688 4.822 0.039 8.81l-0.176-0.092c0.483-1.231 0.91-3.272-0.955-6.777 -0.27-3.052-1.15-5.642-1.342-8.249 3.629-12.307 18.1-12.74 24.507-22.293 7.571-11.404-4.733-20.192-5.77-21.729C165.855 101.911 172.983 105.115 172.669 113.004zM138.919 11.468c1.651-0.094 6.902 0.992 11.702 5.47 0.264 0.246 1.177 0.876 1.267 1.242 -0.053-0.213-0.432-0.529-0.565-0.695 -8.649-10.731-20.844-10.137-26.215 1.18C128.837 12.739 132.46 11.238 138.919 11.468zM125.292 12.5c3.131-6.863 6.52-8.033 11.678-9.144 -2.425 0.7-4.488 1.909-6.559 3.308C128.204 8.155 126.642 10.248 125.292 12.5zM98.428-3.456c6.193 0.112 9.726 0.061 15.894 2.858 3.988 1.808 8.072 6.634 9.125 10.58 0.092 0.343 0.146 0.956 0.357 1.247 -0.157-0.216-0.236-0.559-0.338-0.802 -0.903-2.179-2.23-4.043-3.886-5.615 -3.045-2.892-9.305-6.081-13.272-7.017C103.713-2.817 101.07-3.128 98.428-3.456zM85.466 8.464c8.818-2.963 18.533-4.691 27.102-0.052 7.246 3.922 12.452 15.885 12.019 21.152 0.035-0.425-0.144-0.972-0.211-1.389 -0.442-2.74-1.213-5.677-3.733-9.784C112.622 5.322 100.155 4.512 85.466 8.464zM125.088 25.336c4.646-5.594 9.915-8.012 15.557-3.422 3.039 2.473 5.411 7.471 7.541 12.139 0.311 0.68 1.049 1.718 1.128 2.47 -0.023-0.226-3.622-5.88-3.745-6.071C137.46 18.09 132.274 18.675 125.088 25.336zM128.878 28.23c2.147-0.928 5.885-2.564 10.627 3.72 8.927 11.829 8.434 30.24 9.228 31.829 0 0-2.488-11.189-5.874-20.503C140.502 36.333 136.774 24.89 128.878 28.23zM129.505 0.941c-5.084 7.857-4.512 12.572-4.862 14.069C124.643 10.098 124.247 7.338 129.505 0.941zM51.946 19.75C56.418 12.484 62.261 5.563 69.609 1.06c8.727-4.957 20.542-5.78 22.963-5.192 -0.413-0.1-1.087 0.085-1.501 0.125C79.942-2.928 67.39 4.184 60.268 10.735 57.229 13.53 54.565 16.566 51.946 19.75zM84.603 10.169c-10.324 3.203-16.542 11.63-21.404 21.625C54.049 50.6 52.301 58.256 50.5 65.223 50.759 64.223 56.146 16.17 84.603 10.169zM22.081 63.668c-3.561 8.263 7.553 11.926 16.005 5.157 1.625-1.303 3.44-3.105 4.366-5.016C34.34 80.548 16.562 73.076 22.081 63.668zM19.685 76.354c3.221 6.726 11.029 8.173 17.526 5.532C47.338 77.77 48.468 69.088 49.138 67.6c-0.467 1.039-0.135 3.909-2.753 8.552C39.323 88.671 23.116 86.441 19.685 76.354zM151.572 46.991c5.011 7.583 12.652 33.006 27.642 15.851 -1.259 1.44-7.862 12.561-17.513 4.278 -2.713-2.719-4.492-6.374-6.011-9.85C154.922 55.511 151.572 46.991 151.572 46.991z" fill="#c7a2a2" stroke-width="none" opacity="1" stroke="none"></path><path id="SvgjsPath7960" d="M11.021 72.976c-0.083-1.398-0.053-2.837 0.098-4.307 0.713-7.312 4.967-12.225 10.584-12.225 2.024 0 4.145 0.678 6.218 1.957C18.393 55.373 12.423 63.637 11.021 72.976zM26.458 88.002c0.412 0.124 0.996 0.163 1.375 0.362 -1.165-0.611-2.362-1.095-3.475-1.823 -8.705-5.689-9.406-16.603-5.602-22.126 2-2.904 4.856-4.222 8.06-5.354C10.56 60.979 8.307 82.551 26.458 88.002zM68.477 36.558c8.522-15.251 18.99-26.346 36.584-25.088 8.769 0.627 12.573 5.472 13.573 6.249 -0.695-0.54-1.208-1.363-1.875-1.952C106 6.247 83.032 6.989 67.955 31.316 53.86 54.056 59.573 79.009 36.972 88.124 58.752 80.897 55.694 59.44 68.477 36.558zM140.555 15.934c4.046 2.542 6.225 7.406 8.431 11.449 3.468 6.355 11.339 20.026 18.525 19.247 -0.817 0.088-2.025-0.526-2.74-0.868 -6.921-3.315-10.014-14.387-13.951-20.79 -7.076-11.503-13.41-15.536-23.121-6.073C131.361 16.098 136.013 13.079 140.555 15.934zM150.674 55.099c0.313 0 1.294 3.863 1.411 4.243 3.23 10.488 5.633 20.354 13.769 24.604 3.326 1.738 7.543 1.937 11.065 0.615 -1.68 0.63-6.101 0.697-9.473-1.113C159.407 79 154.645 62.505 150.674 55.099 150.673 55.099 151.021 55.748 150.674 55.099zM162.796 64.039c8.201 8.268 16.567-2.15 16.567-2.15 -0.07-0.044-1.289 0.962-1.435 1.061 -5.791 3.958-11.011 5.188-19.353-9.521 -1.483-2.614-2.706-5.6-4.612-7.941C156.498 50.831 158.454 59.661 162.796 64.039zM160.279 89.302c9.286 3.633 14.87 4.469 17.569 14.461 0.243 0.9 0.716 2.036 0.731 2.972 -0.015-0.868-0.262-1.837-0.415-2.689 -2.922-16.191-16.892-13.159-24.917-22.424 -7.583-8.756-6.702-24.363-14.525-44.845C147.298 66.178 140.782 81.67 160.279 89.302zM72.029-3.178c1.241-1.198 3.136-1.921 4.725-2.482 7.571-2.674 15.332-1.807 21.078-1.52 13.311 0.664 19.81 4.694 25.242 10.029C109.762-14.638 80.875-11.717 72.029-3.178zM44.67 22.597c-1.168 2.621-2.494 5.509-3.051 8.347 0.083-0.421 0.374-0.872 0.547-1.259 2.896-6.466 5.574-10.3 9.528-15.151 3.799-5.568 9.38-11.069 15.787-13.439C59.604 3.042 50.129 10.354 44.67 22.597zM39.039 55.777c-0.198 1.042-0.562 2.207-0.573 3.274 0.009-0.869 0.568-1.976 0.821-2.793 2.163-7.005 3.842-10.827 6.375-17.01 2.431-5.937 3.638-11.355 10.621-20.705C45.945 29.388 41.813 41.125 39.039 55.777zM55.375 27.942c-2.789 4.838-6.141 16.149-6.712 20.02 0.157-1.067 2.891-7.599 3.657-9.29 1.558-3.547 3.591-6.816 5.289-10.283 6.162-12.574 12.357-15.401 14.494-16.916C65.062 14.781 60.126 19.601 55.375 27.942zM32.739 77.635c3.527 0.049 6.748-1.36 9.404-3.594 4.966-4.177 5.505-15.654 5.311-16.667 0.115 0.6-0.32 1.634-0.458 2.207 -2.021 8.361-5.425 11.157-6.411 12.335 -5.188 6.198-12.555 4.282-16.445 4.018C26.818 76.805 29.872 77.932 32.739 77.635zM135.581 7.312c2.286-0.523 5.451-1.355 8.763 0.376 0.767 0.4 1.354 0.956 2.052 1.447 -0.68-0.478-1.141-1.345-1.83-1.865 -4.273-3.233-12.625-4.116-18.211 7.018C128.618 11.019 131.579 8.227 135.581 7.312zM141.364 31.847c5.162 8.297 6.934 15.202 6.99 16.202 -0.257-4.489-2.794-13.511-5.681-17.594 -4.828-6.831-10.648-9.3-16.343-2.971C132.43 21.999 136.994 24.823 141.364 31.847zM115.443 7.317c4.175 3.956 6.33 6.555 8.45 11.981 0.154 0.395 0.785 1.475 0.709 1.904 0.18-1-2.36-12.5-8.289-16.704 -5.316-3.771-11.695-5.085-18.12-4.544C104.688 0.582 110.647 2.773 115.443 7.317zM26.531 114.318c0.908 3.285 3.005 5.68 5.192 8.166 -2.104-2.392-3.806-5.666-4.187-8.842 -1.254-10.454 14.183-19.624 18.236-22.463C35.697 96.374 23.477 103.265 26.531 114.318zM159 121.284c0.902-2.707 1.123-5.713 0.253-8.457 -1.509-4.762-10.313-12.876-13.038-18.543 2.083 9.288 12.847 11.595 12.382 22.561 -0.573 13.472-20.439 13.494-21.831 25.208 -0.852 7.131 5.628 15.771-4.449 21.886 -2.313 1.404-4.846 2.436-6.994 4.104 -1.688 1.312-2.598 2.547-1.235 1.572 6.083-4.354 11.355-5.69 14.86-9.83 5.911-6.979-2.328-15.025 2.204-22.31C144.34 132.352 155.849 128.633 159 121.284 160.102 117.979 157.008 125.932 159 121.284z" fill="#e5e5e5" stroke-width="none" opacity="1" stroke="none"></path><path id="SvgjsPath7961" d="M173.609 87.849c5.387-0.243 8.898-3.05 9.87-9.46 -3.175 4.882-8.078 5.779-11.181 4.17 11.266-8.857 8.878-24.411 1.141-35.03 0.742-3.228 0.077-6.223-4.45-8.89 2.911 2.471 1.497 7.196-1.66 6.74 -4.094-36.541-26.934-49.917-43.39-45.29 -13.518-9.722-28.565-14.841-45.87-10.29 -34.667 9.075-43.87 39.112-48.83 69.36 -2.077-1.411-4.948-3.106-7.42-3.13 -6.215-0.062-10.224 5.815-11.05 11.39 -8.445 12.359 0.59 28.023 14.71 26.25 -16.989 15.276 1.356 38.655 15.81 30.931 2.886-1.545 5.02-4.014 6-6.07 -4.84 6.229-13.562 0.649-13.23-5.819 0.458-8.869 13.948-13.878 20.28-20.321 -2.623 5.241-18.354 13.693-12.89 23.1 0.005 0 0.197 0.315 0.2 0.32 -2.039-12.234 16.625-11.175 18.2-31.201 11.19-20.805 16.276-50.683 34.67-60.46 10.764-5.729 23.353-3.221 28.26 11.44 12.934-7.735 13.381 35.532 13.93 38.91 0.96 6.084 4.058 11.426 8.271 15.91 2.857 13.654 9.712 13.542 12.34 21.32 0.77 2.29 0.88 4.98 0.319 7.32 -2.92 12.169-24.624 10.664-21.47 27.59 0.858 4.641 3.469 11.16-2.5 15.92 -3.733 2.997-8.958 4.384-11.45 8.729 9.444-7.482 20.484-8.248 19.74-19.079 1.473 3.192 1.471 5.439-0.27 8.369 0.026-0.029 0.779-0.87 0.779-0.909 6.333-7.552-4.379-11.542 2.33-20.29 5.887-7.674 30.81-16.702 25.37-30.301 0.769 1.268 1.858 3.806 2.29 5.04 -0.467 3.046-2.945 6.55-4.96 8.811 2.138-0.488 5.975-1.001 9.36-3.101C188.461 112.611 188.531 97.843 173.609 87.849zM17.099 88.099c-5.549-2.098-9.671-11.194-6.64-18.01C10.096 76.51 12.36 83.723 17.099 88.099zM10.679 67.989c-0.08 0.52-0.14 1.05-0.18 1.58 -3.683 6.71-0.19 17.072 7.2 19.07 3.015 2.597 6.918 4.146 10.19 4.51C12.352 96.056 3.486 80.156 10.679 67.989zM43.319 108.039c-1.445 2.091-2.427 4.432-1.96 6.921 -4.132-9.234 10.863-16.337 13.48-23.091 2.703-2.825 3.257-3.958 4.72-6.72C57.729 99.98 48.978 99.804 43.319 108.039zM56.499 88.689c-6.028 8.513-19.968 12.038-22.73 22 -1.855 6.634 6.043 14.762 12.73 8.88 -12.518 18.248-39.865-8.311-20.64-25.95 0.76-0.11 1.51-0.26 2.24-0.45 9.674 1.281 22.187-2.964 31.63-14.32 0.01 0 0.02-0.01 0.02-0.02 2.33-2.8 4.37-5.87 6.14-9.05C63.784 75.512 59.826 84.015 56.499 88.689zM123.419 169.979c3.541-4.132 8.822-4.794 12.24-8.59 5.546-6.178-0.225-14.516 1.45-20.59 2.91-10.792 21.6-10.715 21.6-24.58 -0.088-11.373-10.232-11.034-13.6-25.661 4.459 4.709 9.038 7.344 13.899 9.11 1.941 2.641 5.329 10.15 2.04 14.601 1.165-3.166 0.117-7.266-1.609-9.561 -2.066-2.728-3.826-3.043-5.681-4.15 6.864 8.566 6.44 15.63 6.44 15.63 0 17.419-23.907 12.546-20.25 30.23 0.196 1 0.624 2.692 0.89 4.09 -0.01-0.01-0.029-0.021-0.05-0.03 0.021 0.01 0.03 0.021 0.05 0.04C142.928 162.06 132.769 163.011 123.419 169.979zM161.739 124.229c-6.924 6.401-17.294 8.011-21.15 18.88 -0.306-10.538 13.433-10.289 18.5-19.979 1.69-3.222 1.953-7.32 1.601-8.061 0-2.538-1.591-7.867-6.271-13.88 7.516 4.415 7.361 11.318 6.431 13.481 2.209-1.546 3.365-7.719-0.98-14.281C168.039 107.914 169.85 116.119 161.739 124.229zM168.899 106.919c2.592 3.737 2.784 9.406-4.61 16.801 -9.573 8.647-26.357 12.809-21.439 26.29 0.885 2.365 2.672 4.772 0.05 8.72 0.597-1.519 0.777-3.598-0.96-6.86 -0.248-2.982-1.139-5.604-1.33-8.21 3.622-12.24 18.049-12.624 24.49-22.229 7.605-11.455-4.923-20.591-5.601-21.591 2.891 1.01 13.438 3.935 13.07 13.161C171.748 110.289 169.995 107.801 168.899 106.919zM176.149 119.729c-3.326 2.004-7.141 2.506-8.141 2.86 3.398-4.015 6.219-8.195 4.61-13.23 -3.758-11.723-14.523-6.502-26.75-19.93 -0.112-0.122-1.376-1.544-1.43-1.68 -7.846-9.677-6.185-15.976-7.891-29.21 -1.295-10.17-4.581-28.055-13.72-23.38 -2.851-9.242-9.671-15.153-19.9-14.17 -20.827 2.012-28.627 28.2-34.56 40.92 0 0.01 0 0.02-0.01 0.03 -20.624 44.127-59.998 34.618-57.14 6.74 1.021-10.465 9.459-15.968 18.26-9.08 7.36-57.481 50.768-88.344 94.45-59.08 14.854-4.919 37.499 9.926 42.96 44.76 -2.972-0.829-6.056-5.883-6.72-8.19 0.49 1.76 1.42 3.45 2.44 4.95 5.747 8.061 10.12 1.48 7.399-2.47 2.901 2.632 3.636 3.35 3.19 7.63 0.01 0.03 0.01 0.05-0.01 0.08 5.651 6.941 11.34 25.178-1.101 35.17h-0.01c-0.08 0.07-0.17 0.14-0.25 0.2 1.095 0.924 6.884 3.011 11.24-3.19 -0.965 5.104-5.571 8.12-10.17 8.12C188.649 98.474 186.91 113.239 176.149 119.729z" fill="#a86868" stroke-width="none" opacity="1" stroke="none"></path></g></g></g></g><defs id="SvgjsDefs7610"><radialGradient id="SvgjsRadialGradient7654" cx="100" cy="113" r="40" gradientUnits="userSpaceOnUse" class="svga-on-canvas-facehighlight-gradient-single-0"><stop id="SvgjsStop7655" stop-opacity="0.5" stop-color="#844925" offset="0" ></stop><stop id="SvgjsStop7656" stop-opacity="0" stop-color="#753915" offset="0.9" ></stop></radialGradient><radialGradient id="SvgjsRadialGradient7658" cx="100" cy="57" r="36" gradientUnits="userSpaceOnUse" class="svga-on-canvas-facehighlight-gradient-single-1"><stop id="SvgjsStop7659" stop-opacity="0.5" stop-color="#844925" offset="0" ></stop><stop id="SvgjsStop7660" stop-opacity="0" stop-color="#753915" offset="0.9" ></stop></radialGradient><radialGradient id="SvgjsRadialGradient7739" cx="-558.588" cy="-490.918" r="84.646" gradientTransform="matrix(0.096 -0.0248 0.0245 0.0961 140.5478 120.3577)" gradientUnits="userSpaceOnUse" class="svga-on-canvas-eyesiris-gradient-left-1"><stop id="SvgjsStop7740" stop-opacity="0.8" stop-color="#ffffff" offset="0" ></stop><stop id="SvgjsStop7741" stop-opacity="0" stop-color="#ffffff" offset="1" ></stop></radialGradient><radialGradient id="SvgjsRadialGradient7743" cx="-565.337" cy="-492.691" r="84.644" gradientTransform="matrix(0.0991 8.856325e-004 -0.0011 0.0991 130.3774 136.3533)" gradientUnits="userSpaceOnUse" class="svga-on-canvas-eyesiris-gradient-left-2"><stop id="SvgjsStop7744" stop-opacity="0.8" stop-color="#ffffff" offset="0" ></stop><stop id="SvgjsStop7745" stop-opacity="0" stop-color="#ffffff" offset="1" ></stop></radialGradient><linearGradient id="SvgjsLinearGradient7749" x1="122.283" y1="93.047" x2="123.61" y2="91.466" gradientTransform="matrix(1 0 0 1 -52 0)" gradientUnits="userSpaceOnUse" class="svga-on-canvas-eyesiris-gradient-left-5"><stop id="SvgjsStop7750" stop-opacity="1" stop-color="#ffffff" offset="0" ></stop><stop id="SvgjsStop7751" stop-opacity="0" stop-color="#ffffff" offset="1" ></stop></linearGradient><linearGradient id="SvgjsLinearGradient7753" x1="127" y1="85" x2="125" y2="87" gradientTransform="matrix(1 0 0 1 -50 0)" gradientUnits="userSpaceOnUse" class="svga-on-canvas-eyesiris-gradient-left-6"><stop id="SvgjsStop7754" stop-opacity="1" stop-color="#ffffff" offset="0" ></stop><stop id="SvgjsStop7755" stop-opacity="0" stop-color="#ffffff" offset="1" ></stop></linearGradient><linearGradient id="SvgjsLinearGradient7757" x1="130" y1="81" x2="126" y2="85" gradientTransform="matrix(1 0 0 1 -50 0)" gradientUnits="userSpaceOnUse" class="svga-on-canvas-eyesiris-gradient-left-7"><stop id="SvgjsStop7758" stop-opacity="1" stop-color="#ffffff" offset="0" ></stop><stop id="SvgjsStop7759" stop-opacity="0" stop-color="#ffffff" offset="1" ></stop></linearGradient><radialGradient id="SvgjsRadialGradient7762" cx="-578.76" cy="-490.73" r="84.646" gradientTransform="matrix(0.096 -0.0248 0.0245 0.0961 192.4794 119.8404)" gradientUnits="userSpaceOnUse" class="svga-on-canvas-eyesiris-gradient-right-1"><stop id="SvgjsStop7763" stop-opacity="0.8" stop-color="#ffffff" offset="0" ></stop><stop id="SvgjsStop7764" stop-opacity="0" stop-color="#ffffff" offset="1" ></stop></radialGradient><radialGradient id="SvgjsRadialGradient7766" cx="-584.778" cy="-487.329" r="84.644" gradientTransform="matrix(0.0991 8.856325e-004 -0.0011 0.0991 182.3104 135.839)" gradientUnits="userSpaceOnUse" class="svga-on-canvas-eyesiris-gradient-right-2"><stop id="SvgjsStop7767" stop-opacity="0.8" stop-color="#ffffff" offset="0" ></stop><stop id="SvgjsStop7768" stop-opacity="0" stop-color="#ffffff" offset="1" ></stop></radialGradient><linearGradient id="SvgjsLinearGradient7772" x1="120.284" y1="93.047" x2="121.611" y2="91.467" gradientUnits="userSpaceOnUse" class="svga-on-canvas-eyesiris-gradient-right-5"><stop id="SvgjsStop7773" stop-opacity="1" stop-color="#ffffff" offset="0" ></stop><stop id="SvgjsStop7774" stop-opacity="0" stop-color="#ffffff" offset="1" ></stop></linearGradient><linearGradient id="SvgjsLinearGradient7776" x1="127" y1="85" x2="125" y2="87" gradientUnits="userSpaceOnUse" class="svga-on-canvas-eyesiris-gradient-right-6"><stop id="SvgjsStop7777" stop-opacity="1" stop-color="#ffffff" offset="0" ></stop><stop id="SvgjsStop7778" stop-opacity="0" stop-color="#ffffff" offset="1" ></stop></linearGradient><linearGradient id="SvgjsLinearGradient7780" x1="130" y1="81" x2="126" y2="85" gradientUnits="userSpaceOnUse" class="svga-on-canvas-eyesiris-gradient-right-7"><stop id="SvgjsStop7781" stop-opacity="1" stop-color="#ffffff" offset="0" ></stop><stop id="SvgjsStop7782" stop-opacity="0" stop-color="#ffffff" offset="1" ></stop></linearGradient><linearGradient id="SvgjsLinearGradient7786" x1="100" y1="141" x2="100" y2="138" gradientUnits="userSpaceOnUse" class="svga-on-canvas-mouth-gradient-single-0"><stop id="SvgjsStop7787" stop-opacity="1" stop-color="#6d320e" offset="0.1" ></stop><stop id="SvgjsStop7788" stop-opacity="1" stop-color="#662b08" offset="1" ></stop></linearGradient><linearGradient id="SvgjsLinearGradient8036" x1="99.98" y1="171.27" x2="99.98" y2="136.351" gradientUnits="userSpaceOnUse" class="svga-on-canvas-chinshadow-gradient-single-0"><stop id="SvgjsStop8037" stop-opacity="0.8" stop-color="#662b08" offset="0" ></stop><stop id="SvgjsStop8038" stop-opacity="1" stop-color="#471b00" offset="0.7" ></stop></linearGradient><radialGradient id="SvgjsRadialGradient8040" cx="125.219" cy="89.891" r="13.439" gradientTransform="matrix(-1.0552 0.0927 0.0919 1.0549 197.7875 -17.4055)" gradientUnits="userSpaceOnUse" class="svga-on-canvas-eyesback-gradient-left-0"><stop id="SvgjsStop8041" stop-opacity="1" stop-color="#ffffff" offset="0" ></stop><stop id="SvgjsStop8042" stop-opacity="1" stop-color="#fdfefe" offset="0.544" ></stop><stop id="SvgjsStop8043" stop-opacity="1" stop-color="#f6f8f9" offset="0.74" ></stop><stop id="SvgjsStop8044" stop-opacity="1" stop-color="#eaeff2" offset="0.879" ></stop><stop id="SvgjsStop8045" stop-opacity="1" stop-color="#d9e3e8" offset="0.992" ></stop><stop id="SvgjsStop8046" stop-opacity="1" stop-color="#d8e2e7" offset="1" ></stop></radialGradient><radialGradient id="SvgjsRadialGradient8048" cx="125.219" cy="89.891" r="13.439" gradientTransform="matrix(1.0552 0.0927 -0.0919 1.0549 2.2125 -17.4055)" gradientUnits="userSpaceOnUse" class="svga-on-canvas-eyesback-gradient-right-0"><stop id="SvgjsStop8049" stop-opacity="1" stop-color="#ffffff" offset="0" ></stop><stop id="SvgjsStop8050" stop-opacity="1" stop-color="#fdfefe" offset="0.544" ></stop><stop id="SvgjsStop8051" stop-opacity="1" stop-color="#f6f8f9" offset="0.74" ></stop><stop id="SvgjsStop8052" stop-opacity="1" stop-color="#eaeff2" offset="0.879" ></stop><stop id="SvgjsStop8053" stop-opacity="1" stop-color="#d9e3e8" offset="0.992" ></stop><stop id="SvgjsStop8054" stop-opacity="1" stop-color="#d8e2e7" offset="1" ></stop></radialGradient><radialGradient id="SvgjsRadialGradient8056" cx="125.219" cy="89.891" r="13.439" gradientTransform="matrix(-1.0552 0.0927 0.0919 1.0549 197.7875 -17.4055)" gradientUnits="userSpaceOnUse" class="svga-on-canvas-eyesfront-gradient-left-0"><stop id="SvgjsStop8057" stop-opacity="1" stop-color="#ffffff" offset="0" ></stop><stop id="SvgjsStop8058" stop-opacity="1" stop-color="#fdfefe" offset="0.544" ></stop><stop id="SvgjsStop8059" stop-opacity="1" stop-color="#f6f8f9" offset="0.74" ></stop><stop id="SvgjsStop8060" stop-opacity="1" stop-color="#eaeff2" offset="0.879" ></stop><stop id="SvgjsStop8061" stop-opacity="1" stop-color="#d9e3e8" offset="0.992" ></stop><stop id="SvgjsStop8062" stop-opacity="1" stop-color="#d8e2e7" offset="1" ></stop></radialGradient><radialGradient id="SvgjsRadialGradient8066" cx="124.909" cy="84.956" fx="139.085" fy="84.626" r="17.962" gradientTransform="matrix(0.9998 0.0208 0.0193 -0.9282 -51.4325 161.2135)" gradientUnits="userSpaceOnUse" class="svga-on-canvas-eyesfront-gradient-left-3"><stop id="SvgjsStop8067" stop-opacity="1" stop-color="#662b08" offset="0" ></stop><stop id="SvgjsStop8068" stop-opacity="0.3" stop-color="#662b08" offset="0.7" ></stop><stop id="SvgjsStop8069" stop-opacity="0" stop-color="#753915" offset="1" ></stop></radialGradient><radialGradient id="SvgjsRadialGradient8071" cx="82.066" cy="77.677" r="19.326" gradientTransform="matrix(0.6928 -0.0978 0.0983 0.7033 9.9183 45.7976)" gradientUnits="userSpaceOnUse" class="svga-on-canvas-eyesfront-gradient-left-4"><stop id="SvgjsStop8072" stop-opacity="0" stop-color="#000000" offset="0.9" ></stop><stop id="SvgjsStop8073" stop-opacity="0.3" stop-color="#000000" offset="1" ></stop></radialGradient><radialGradient id="SvgjsRadialGradient8077" cx="125.219" cy="89.891" r="13.439" gradientTransform="matrix(1.0552 0.0927 -0.0919 1.0549 2.2125 -17.4055)" gradientUnits="userSpaceOnUse" class="svga-on-canvas-eyesfront-gradient-right-0"><stop id="SvgjsStop8078" stop-opacity="1" stop-color="#ffffff" offset="0" ></stop><stop id="SvgjsStop8079" stop-opacity="1" stop-color="#fdfefe" offset="0.544" ></stop><stop id="SvgjsStop8080" stop-opacity="1" stop-color="#f6f8f9" offset="0.74" ></stop><stop id="SvgjsStop8081" stop-opacity="1" stop-color="#eaeff2" offset="0.879" ></stop><stop id="SvgjsStop8082" stop-opacity="1" stop-color="#d9e3e8" offset="0.992" ></stop><stop id="SvgjsStop8083" stop-opacity="1" stop-color="#d8e2e7" offset="1" ></stop></radialGradient><radialGradient id="SvgjsRadialGradient8087" cx="124.909" cy="84.956" fx="139.085" fy="84.626" r="17.962" gradientTransform="matrix(-0.9998 0.0208 -0.0193 -0.9282 251.4325 161.2135)" gradientUnits="userSpaceOnUse" class="svga-on-canvas-eyesfront-gradient-right-3"><stop id="SvgjsStop8088" stop-opacity="1" stop-color="#662b08" offset="0" ></stop><stop id="SvgjsStop8089" stop-opacity="0.3" stop-color="#662b08" offset="0.7" ></stop><stop id="SvgjsStop8090" stop-opacity="0" stop-color="#753915" offset="1" ></stop></radialGradient><radialGradient id="SvgjsRadialGradient8092" cx="82.066" cy="77.677" r="19.326" gradientTransform="matrix(-0.6928 -0.0978 -0.0983 0.7033 190.0817 45.7978)" gradientUnits="userSpaceOnUse" class="svga-on-canvas-eyesfront-gradient-right-4"><stop id="SvgjsStop8093" stop-opacity="0" stop-color="#000000" offset="0.9" ></stop><stop id="SvgjsStop8094" stop-opacity="0.3" stop-color="#000000" offset="1" ></stop></radialGradient></defs></svg>