<svg xmlns="http://www.w3.org/2000/svg" x="0px" y="0px" viewBox="0 0 800 800" style="overflow:hidden!important;"><g id="svga-group-wrapper" transform="scale(4 4)"><g id="svga-group-backs-single"><path id="SvgjsPath3285" d="M225 225H-25V-25h250V225z" fill="#ecf0f1" stroke-width="none" opacity="1"></path><path id="SvgjsPath3286" d="M100 99.999l-10-150h20L100 99.999zM72.382-47.775L53.01-42.802 100 99.999 72.382-47.775zM36.5-36.265l-17.527 9.635L100 99.999 36.5-36.265zM4.607-16.192L-9.973-2.5 100 99.999 4.607-16.192zM-21.292 11.182l-10.717 16.887L100 99.999 -21.292 11.182zM-39.569 44.136l-6.18 19.022L100 99.999 -39.569 44.136zM-49.077 80.6l-1.256 19.961L100 99.999 -49.077 80.6zM-49.218 118.283l3.748 19.646L100 99.999 -49.218 118.283zM-39.983 154.817l8.516 18.098L100 99.999 -39.983 154.817zM-21.953 187.907l12.75 15.411L100 99.999 -21.953 187.907zM3.74 215.474l16.182 11.757L100 99.999 3.74 215.474zM35.481 235.785l18.597 7.363L100 99.999 35.481 235.785zM71.276 247.564l19.844 2.507L100 99.999 71.276 247.564zM108.877 250.071l19.844-2.507L100 99.999 108.877 250.071zM145.919 243.148l18.598-7.362L100 99.999 145.919 243.148zM180.076 227.231l16.183-11.756L100 99.999 180.076 227.231zM209.201 203.32l12.751-15.411L100 99.999 209.201 203.32zM231.465 172.917l8.519-18.098L100 99.999 231.465 172.917zM245.469 137.933l3.75-19.648L100 99.999 245.469 137.933zM250.332 100.564l-1.254-19.964L100 99.999 250.332 100.564zM245.749 63.161l-6.179-19.025L100 99.999 245.749 63.161zM232.009 28.072l-10.716-16.891L100 99.999 232.009 28.072zM209.974-2.498l-14.58-13.695L100 99.999 209.974-2.498zM181.028-26.627l-17.527-9.639L100 99.999 181.028-26.627zM146.992-42.8l-19.374-4.978L100 99.999 146.992-42.8z" fill="url(#SvgjsRadialGradient3287)" opacity="1"></path></g><g id="svga-group-subwrapper" ><g id="svga-group-hair-back" ><path id="SvgjsPath3454" d="M160.527 108.896c-0.826 32.13-25.267 102.589-58.469 102.589 -33.201 0-60.969-69.5-61.767-102.589 -1.15-47.67 26.917-86.339 60.118-86.339C133.611 22.558 161.753 61.229 160.527 108.896z" fill="#1c150e" stroke-width="none" opacity="1"></path></g><g id="svga-group-humanbody-single"><path id="SvgjsPath3141" d="M190.858 199.866c-6.008-10.158-13.474-11.973-19.628-13.936 -6.323-2.016-19.346-3.178-26.449-4.6 -6.86-1.373-23.153-5.789-23.339-13.488 -0.192-8.066 4.291-40.09 4.291-40.09H74.005c0 0 4.487 32.023 4.294 40.09 -0.184 7.699-16.48 12.115-23.341 13.488 -7.104 1.422-20.125 2.584-26.448 4.6 -6.156 1.963-13.624 3.777-19.632 13.936 -3.644 6.16-6.008 16.133-6.008 27.133h194C196.869 215.999 194.509 206.026 190.858 199.866z" fill="#e19e95" stroke-width="none" opacity="1" stroke="none"></path><path id="SvgjsPath3142" d="M121.442 167.843c2.495 10.929 18.165 13.698 26.293 15.325 21.909 4.379 33.772 5.134 42.297 19.539 2.903 4.916 5.459 15.864 5.962 24.153 1.835 0.291 0.531-17.432-5.136-26.994 -9.742-16.472-29.089-15.135-46.077-18.535C137.921 179.958 121.628 175.542 121.442 167.843L121.442 167.843zM78.558 167.843c-0.186 7.699-16.479 12.115-23.339 13.488 -16.988 3.4-36.335 2.063-46.077 18.535 -5.667 9.563-6.971 27.285-5.136 26.994 0.503-8.289 3.059-19.237 5.962-24.153 8.524-14.405 20.388-15.16 42.297-19.539C60.393 181.541 76.063 178.771 78.558 167.843L78.558 167.843z" fill="#f0beb7" stroke-width="none" opacity="1" stroke="none"></path><path id="SvgjsPath3143" d="M51.206 189.513c0 0 28.641 0.299 33.473 1.885 2.314 0.758 8.372 5.633 8.372 5.633s-6.556-3.17-8.658-3.758C79.51 191.909 51.206 189.513 51.206 189.513zM99.795 199.999c2.053-0.041 7.887-3.799 7.887-3.799s-5.574 2.059-7.342 2.16c-1.491 0.086-6.366-1.238-6.366-1.238S98.112 200.032 99.795 199.999zM117.008 192.757c6.75-1.818 29.786-3.23 29.786-3.23s-23.791-0.516-30.51 1.725c-2.252 0.752-7.562 5.16-7.562 5.16S114.786 193.354 117.008 192.757z" fill="#d28176" stroke-width="none" opacity="1" stroke="none"></path><path id="SvgjsPath3144" d="M190.858 199.866c-9.741-16.471-29.122-15.142-46.077-18.535 -6.86-1.373-23.153-5.789-23.339-13.488 -0.192-8.066 4.291-40.09 4.291-40.09H74.005c0 0 4.487 32.023 4.294 40.09 -0.184 7.699-16.48 12.115-23.341 13.488 -7.104 1.422-20.125 2.584-26.448 4.6 -6.156 1.963-13.624 3.777-19.632 13.936 -3.644 6.16-6.008 16.133-6.008 27.133h194C196.869 215.999 194.509 206.026 190.858 199.866z" fill="none" stroke="#b34e41" stroke-width="1.5" opacity="1"></path></g><g id="svga-group-chinshadow-single"><path id="SvgjsPath3441" d="M100.045 171.737c5.593-0.009 13.488-3.608 20.908-8.44 0.448-6.688 1.717-17.243 2.734-25.146 -13.955-1.813-33.739-1.771-47.623 0.105 1.008 7.831 2.258 18.226 2.713 24.89C86.31 168.063 94.37 171.746 100.045 171.737z" fill="url(#SvgjsLinearGradient3442)" opacity="1"></path></g><g id="svga-group-clothes-single" ><path id="SvgjsPath3423" d="M190.188 199.647c-9.662-17.92-26.803-14.749-44.614-19.556 -1.348 1.637-13.686 17.468-16.485 25.934 -1.572-1.256-3.449-2.938-4.804-4.477 -6.628-7.46-16.453-31.601-19.75-12.749 0.717-8.463 4.614-10.327 10.025-3.234 5.817 7.633 6.033 11.575 14.333 19.875 1.466-5.831 4.273-10.037 7.966-15.201 3.573-5.005 6.435-8.945 10.566-12.492 -2.261-1.226-4.647-2.217-6.801-3.596 -13.515-8.76-5.435-17.647-17.685-19.764 -0.096 1.058-0.217 2.245-0.317 3.137 2.619 1.29 3.128 6.32-0.905 10.002 -6.41 6.742-14.866 7.077-17.552 17.429l-0.006-0.001c-0.854 3.071-1.539 7.776-1.863 10.533l-4.542 0.389c-1.847-16.224-4.261-17.811-12.157-22.824 -5.231-3.321-12.489-8.335-9.698-14.003 0.318-0.656 0.705-1.059 1.186-1.361 -0.138-1.296-0.22-2.048-0.326-3.251 -12.216 2.312-4.037 11.604-17.651 19.873 -2.06 1.247-4.075 2.097-6.543 3.416 4.879 4.251 16.31 18.506 18.561 27.717 8.378-8.476 8.442-12.181 14.294-19.847 5.04-6.597 9.156-5.921 10.021 3.007 -0.476-2.682-1.603-6.787-4.045-6.787 -2.012 0-4.109 2.844-5.147 4.217 -5.809 7.667-6.742 13.154-15.352 20 -0.596-1.716-1.294-3.438-2.128-5.043 -3.412-6.604-13.291-19.595-14.342-20.887 -4.083 1.102-9.667 1.984-13.408 2.58 -24.442 3.897-33.916 8.81-37.519 44.213 89.639-0.87 126.166-0.49 192.932-0.49C195.594 218.524 193.953 206.642 190.188 199.647z" fill="#335529" stroke-width="none" opacity="1" stroke="none"></path><path id="SvgjsPath3424" d="M95.717 224.342c-3.653 0-6.286-0.061-7.83-0.178 0.466-2.48 1.856-7.125 2.656-9.437 -2.555-3.227-3.274-6.568-3.908-9.518 -0.377-1.754-0.705-3.274-1.361-4.468 0.136-0.077 0.49-0.274 0.49-0.274l-0.063-0.091c-1.685-2.413-3.682-5.039-5.754-6.277l0.34-0.566c1.692-2.82 4.515-7.526 6.942-9.985 4.186 3.168 8.991 9.141 10.865 12.259l0.035 0.057 0.066-0.01c1.296-0.193 2.722-0.309 3.815-0.309 2.926-4.474 7.014-9.048 10.768-12 1.966 1.719 5.101 6.956 6.614 9.487 0.293 0.488 0.517 0.863 0.65 1.074 -2.356 1.583-4.58 4.592-5.434 5.822l-0.054 0.077 0.074 0.059c0.338 0.263 0.988 0.809 1.331 1.15 -0.691 5.103-2.874 10.362-5.725 13.645 0.685 2.18 0.951 4.674 1.32 8.126l0.123 1.141c-0.251 0.003-0.797 0.014-1.564 0.029C107.169 224.216 101.044 224.342 95.717 224.342 95.718 224.342 95.718 224.342 95.717 224.342z" fill="#141111" stroke-width="none" opacity="1"></path><path id="SvgjsPath3425" d="M113.911 202.273c-0.201 4.322-1.702 7.874-4.265 12.068 2.646-3.301 5.655-8.274 6.313-13.127 -2.801-2.801-12.774-7.511-23.341-3.521C101.263 195.991 111.48 197.412 113.911 202.273z" fill="#2c2526" stroke-width="none" opacity="1"></path><path id="SvgjsPath3426" d="M143.952 181.126c-2.462 2.676-4.609 5.634-7.094 9.113 -3.192 4.465-5.719 8.218-7.293 12.92 1.813-9.701 7.918-18.479 15.435-25.159 -7.906-1.438-11.68-8.559-13.549-15.792 1.174 3.502 2.683 7.736 9.173 11.943 2.153 1.379 4.54 2.37 6.801 3.596C147.273 177.877 143.952 181.126 143.952 181.126zM186 198c5.681 7.102 8.332 16.221 10.11 25.565 -0.919-7.689-2.586-17.72-5.923-23.918 -9.662-17.92-26.803-14.749-44.614-19.556 -0.158 0.191-0.471 0.584-0.897 1.131C159.32 183.163 176.369 185.48 186 198zM52.575 177.747c2.261-1.226 4.647-2.217 6.801-3.596 6.49-4.207 7.999-8.441 9.173-11.943C66.68 169.441 62.906 176.563 55 178c7.517 6.681 13.621 15.458 15.435 25.159 -1.574-4.702-4.101-8.455-7.293-12.92 -2.484-3.479-4.632-6.438-7.094-9.113C56.048 181.126 52.727 177.877 52.575 177.747zM55.324 181.223c-0.427-0.547-0.739-0.939-0.897-1.131 -17.812 4.807-34.952 1.636-44.614 19.556 -3.337 6.198-5.004 16.229-5.923 23.918C5.668 214.221 8.319 205.102 14 198 23.631 185.48 40.68 183.163 55.324 181.223z" fill="#545b8e" stroke-width="none" opacity="1"></path><path id="SvgjsPath3427" d="M143.952 181.126c-2.462 2.676-4.609 5.634-7.094 9.113 -3.192 4.465-5.719 8.218-7.293 12.92 1.813-9.701 7.918-18.479 15.435-25.159 -7.906-1.438-11.68-8.559-13.549-15.792 1.174 3.502 2.683 7.736 9.173 11.943 2.153 1.379 4.54 2.37 6.801 3.596C147.273 177.877 143.952 181.126 143.952 181.126zM186 198c5.681 7.102 8.332 16.221 10.11 25.565 -0.919-7.689-2.586-17.72-5.923-23.918 -9.662-17.92-26.803-14.749-44.614-19.556 -0.158 0.191-0.471 0.584-0.897 1.131C159.32 183.163 176.369 185.48 186 198zM52.575 177.747c2.261-1.226 4.647-2.217 6.801-3.596 6.49-4.207 7.999-8.441 9.173-11.943C66.68 169.441 62.906 176.563 55 178c7.517 6.681 13.621 15.458 15.435 25.159 -1.574-4.702-4.101-8.455-7.293-12.92 -2.484-3.479-4.632-6.438-7.094-9.113C56.048 181.126 52.727 177.877 52.575 177.747zM55.324 181.223c-0.427-0.547-0.739-0.939-0.897-1.131 -17.812 4.807-34.952 1.636-44.614 19.556 -3.337 6.198-5.004 16.229-5.923 23.918C5.668 214.221 8.319 205.102 14 198 23.631 185.48 40.68 183.163 55.324 181.223z" fill="#44643a" stroke-width="none" opacity="1" stroke="none"></path><path id="SvgjsPath3428" d="M118.303 173c-4.485 2.492-8.283 4.938-10.802 8.379 0.979 0.283 3.556 0.964 4.767 2.375 -4.003 3.142-6.432 6.012-9.915 11.611 0.397-3.133 0.558-5.563 1.203-7.858 0.188-0.914 0.39-1.785 0.604-2.553l0.006 0.001c2.686-10.352 11.142-10.687 17.552-17.429 4.033-3.682 3.524-8.712 0.905-10.002 0.101-0.892 0.222-2.079 0.317-3.137 0.672 0.116 1.271 0.257 1.828 0.413C133.028 161.766 123.939 170.584 118.303 173zM80.601 173c4.485 2.492 9.97 5.445 12.482 8.587 -0.979 0.283-4.14 0.756-5.351 2.167 4.551 4.245 7.303 7.188 10.266 11.982 -0.397-3.133-0.908-5.935-1.554-8.229 -0.188-0.914-0.39-1.785-0.604-2.553l-0.006 0.001c-2.686-10.352-11.142-10.687-17.552-17.429 -4.033-3.682-3.524-8.712-0.905-10.002 -0.101-0.892-0.222-2.079-0.317-3.137 -0.672 0.116-1.271 0.257-1.828 0.413C68.311 162.904 75.536 170.056 80.601 173z" fill="#24461b" stroke-width="none" opacity="1" stroke="none"></path><path id="SvgjsPath3429" d="M123.859 159.785c0.569 2.32-0.34 4.21-1.75 5.82 0.01-1.72 0.16-3.45 0.319-5.15 0.08-0.84 0.171-1.689 0.25-2.529C123.219 158.295 123.639 158.896 123.859 159.785zM77.309 160.815c0.11 1.47 0.24 2.939 0.27 4.41 -1.22-1.53-1.95-3.271-1.44-5.42 0.17-0.74 0.48-1.271 0.89-1.65C77.129 159.045 77.219 159.926 77.309 160.815z" fill="#18360f" stroke-width="none" opacity="1" stroke="none"></path><path id="SvgjsPath3430" d="M192.56 200.686c-8.84-20.244-29.707-17.8-46.46-21.05 0.696-0.843 1.549-1.73 1.739-1.9 -2.635-1.86-11.126-5.595-14.239-12.38 -2.229-4.835-1.683-10.37-10.851-11.26 -0.503 2.816-1.225 9.009-1.09 12 -9.604 9.907-19.063 5.479-20.226 29.359l0.779-0.018c0 0 0.221-0.146 0.229-0.215 2.844-23.354 10.041-17.837 19.347-27.627 4.168-3.829 3.449-8.9 0.94-10.13 0.109-0.99 0.21-1.971 0.3-2.961 7.887 1.39 7.203 5.838 9.67 11.271 3.279 7.224 11.345 10.264 14.55 11.99 -4.338 3.729-7.473 8.221-10.939 13.069 -5.453 7.563-6.714 11.421-7.471 14.41 -8.276-8.33-8.281-11.981-14.2-19.74 -6.311-8.277-10.367-3.908-10.289 5.37 0.18-2.319 1.569-10.83 5.51-8.6 4.556 2.544 9.029 13.352 14.35 19.34 1.42 1.611 3.248 3.229 4.93 4.58 2.071-6.931 9.616-16.647 14.271-23.13 0.71-0.98 1.44-1.94 2.2-2.86 6.49 1.69 13.26 2.46 19.83 3.66 23.784 4.36 28.162 17.492 30.88 42.44 -37.937 0.194-79.138-0.603-192.71 0.489 1.646-16.292 4.431-29.61 14.5-36.81 4.32-3.1 9.33-4.72 14.49-5.75 7.19-1.43 14.66-2.17 21.79-4.02 0.83 1.01 1.62 2.05 2.39 3.13 8.804 12.243 11.1 14.931 14.07 22.85 10.018-7.514 14.024-21.616 19.54-24.05 3.84-1.69 5.08 6.42 5.26 8.729 0.075-9.841-4.519-15.681-13.81-0.22 -4.578 7.621-5.792 9.687-10.66 14.59 -1.955-7.948-12.36-22.256-18.44-27.5 3.772-2.028 10.592-4.438 14.24-11.3 2.409-4.707 1.339-10.294 9.69-11.89 0.09 1.029 0.2 2.05 0.31 3.08 -2.287 1.441-2.683 6.284 0.97 9.67 3.29 3.609 7.75 5.67 11.67 8.55 4.621 3.419 6.449 6.918 7.92 19.15 0.032 0.267 0.375 0.777 0.375 0.777l0.643-0.083c-0.379-8.482-1.601-15.681-6.567-19.825 -4.29-3.668-10.305-6.005-13.94-10.1 0.11-3.072-0.706-9.294-1.1-11.64 -8.308 0.811-8.378 5.859-10.14 10.279 -2.667 6.687-9.6 10.256-14.65 13.311 0.335 0.333 1.129 1.187 1.74 1.91 -6.99 1.369-14.23 1.76-21.24 2.989 -10.46 1.83-20.33 7.12-24.83 17.19 -3.418 7.642-4.409 18.603-4.66 26.99 -0.01 0.06-0.01 0.13-0.01 0.189 0.14 0.01 0.29 0.01 0.43 0.01 120.323 1.226 192.229-0.51 193.23-0.51C196.819 225.494 196.378 209.429 192.56 200.686zM122.109 165.605c0.015-2.591 0.373-5.593 0.569-7.68C124.151 158.933 125.021 162.281 122.109 165.605zM77.579 165.226c-2.446-3.068-1.66-6.042-0.55-7.07C77.261 160.228 77.537 163.13 77.579 165.226z" fill="#0e2707" stroke-width="none" opacity="1" stroke="none"></path></g><g id="svga-group-head" ><g id="svga-group-ears-left" ><path id="SvgjsPath3418" d="M46.778 83.745c-2.623-1.422-8.575-8.182-11.138-7.219 -1.655 0.62-2.377 5.286-2.638 7.174 -0.333 2.425-0.929 7.405-0.328 9.781 0.725 2.866 3.631 8.169 5.37 10.589 1.468 2.039 5.211 5.568 6.407 7.769 0.759 1.396 1.493 5.159 4.083 4.916 1.674-0.157 5.537-2.95 5.744-4.274C55.406 105.296 51.943 86.543 46.778 83.745z" fill="#e19e95" stroke="#b34e41" stroke-width="1.5" opacity="1"></path><path id="SvgjsPath3419" d="M43.313 99.25c-0.125-0.534 0.006-1.432 0.133-2.3 0.115-0.791 0.224-1.538 0.158-2.066 -0.251-1.978-1.66-5.737-2.578-7.775 -1.059-2.343-2.771-5.296-4.919-6.057 -0.888-0.316-1.473 0.061-1.813 0.443 -0.248 0.281-0.305 0.61-0.223 0.649 0.082 0.039 0.266-0.234 0.535-0.491 0.219-0.21 0.542-0.391 0.983-0.354 -0.178 0.985-1.091 6.32-0.696 9.957 0.311 2.86 1.489 4.996 1.673 5.316 0.028 0.337 0.073 0.667 0.139 0.987 0.869 4.175 4.648 8.921 5.963 10.476 0.243 0.285 0.496 0.456 0.56 0.388 0.062-0.07-0.087-0.354-0.33-0.642 -1.298-1.545-5.042-6.274-5.879-10.302 -0.89-4.273 2.167-10.609 2.849-11.949 0.348 0.629 0.643 1.234 0.87 1.737 0.179 0.396 0.378 0.858 0.581 1.358 -0.402 0.699-3.211 5.802-2.187 9.886 0.38 1.505 2.088 3.447 3.223 3.979 0.624 0.293 0.859 0.731 1.13 1.237 0.314 0.589 0.673 1.255 1.708 1.738 0.211 0.097 0.402 0.138 0.571 0.138 0.293 0 0.515-0.122 0.679-0.271 0.017 0.258 0.016 0.588 0.007 0.893 -0.01 0.395 0.041 0.717 0.129 0.725s0.182-0.305 0.192-0.696c0.016-0.483 0.013-1.081-0.067-1.367 -0.232-0.842-0.942-1.792-1.694-2.798C44.27 101.098 43.504 100.074 43.313 99.25zM36.538 95.548c-2.035-6.554 0-12.573 0.458-13.472 0.795 0.754 2.108 2.125 2.679 3.111C39.258 85.976 36.623 91.14 36.538 95.548zM45.318 105.137c-0.938-0.438-1.253-1.024-1.557-1.591 -0.275-0.514-0.56-1.044-1.281-1.383 -0.157-0.074-0.33-0.186-0.505-0.314 -2.324-5.75 0.254-8.264 0.899-8.779 0.199 0.703 0.346 1.348 0.411 1.865 0.061 0.475-0.05 1.229-0.156 1.959 -0.132 0.904-0.268 1.839-0.127 2.445 0.211 0.902 0.999 1.957 1.76 2.977 0.677 0.905 1.373 1.839 1.609 2.601C46.271 105.067 45.949 105.43 45.318 105.137z" fill="#b34e41" stroke-width="none" opacity="1" stroke="none"></path></g><g id="svga-group-ears-right" ><path id="SvgjsPath3420" d="M152.961 83.745c2.623-1.422 8.574-8.182 11.137-7.219 1.656 0.62 2.379 5.286 2.639 7.174 0.334 2.425 0.928 7.405 0.328 9.781 -0.725 2.866-3.631 8.169-5.371 10.589 -1.467 2.039-5.211 5.568-6.406 7.769 -0.76 1.396-1.492 5.159-4.084 4.916 -1.674-0.157-5.535-2.95-5.744-4.274C144.332 105.296 147.795 86.543 152.961 83.745z" fill="#e19e95" stroke="#b34e41" stroke-width="1.5" opacity="1"></path><path id="SvgjsPath3421" d="M154.729 102.088c-0.752 1.006-1.463 1.957-1.695 2.798 -0.078 0.286-0.082 0.884-0.066 1.367 0.012 0.392 0.105 0.704 0.193 0.696s0.139-0.33 0.129-0.725c-0.01-0.305-0.01-0.635 0.006-0.893 0.164 0.148 0.387 0.271 0.68 0.271 0.168 0 0.359-0.041 0.57-0.138 1.035-0.483 1.395-1.149 1.709-1.738 0.271-0.506 0.506-0.943 1.131-1.237 1.133-0.532 2.842-2.473 3.223-3.979 1.023-4.084-1.785-9.187-2.188-9.886 0.203-0.5 0.402-0.962 0.582-1.358 0.225-0.503 0.521-1.108 0.869-1.737 0.682 1.34 3.738 7.676 2.848 11.949 -0.838 4.028-4.582 8.757-5.879 10.302 -0.242 0.288-0.393 0.571-0.33 0.642 0.064 0.068 0.318-0.103 0.561-0.388 1.314-1.555 5.094-6.301 5.963-10.476 0.066-0.32 0.111-0.65 0.139-0.987 0.184-0.32 1.363-2.457 1.674-5.316 0.395-3.637-0.518-8.972-0.695-9.957 0.441-0.038 0.764 0.143 0.982 0.354 0.268 0.257 0.453 0.53 0.535 0.491 0.08-0.039 0.023-0.369-0.223-0.649 -0.342-0.382-0.926-0.759-1.813-0.443 -2.148 0.761-3.861 3.713-4.92 6.057 -0.92 2.038-2.326 5.797-2.578 7.775 -0.066 0.528 0.043 1.275 0.158 2.066 0.127 0.868 0.256 1.766 0.133 2.3C156.234 100.074 155.469 101.098 154.729 102.088zM160.064 85.187c0.57-0.986 1.883-2.357 2.678-3.111 0.457 0.899 2.494 6.918 0.459 13.472C163.115 91.14 160.48 85.976 160.064 85.187zM153.367 104.916c0.236-0.762 0.932-1.695 1.609-2.601 0.762-1.02 1.549-2.075 1.76-2.977 0.141-0.606 0.006-1.541-0.127-2.445 -0.105-0.73-0.217-1.485-0.156-1.959 0.066-0.517 0.213-1.162 0.412-1.865 0.645 0.515 3.223 3.029 0.898 8.779 -0.176 0.129-0.348 0.241-0.504 0.314 -0.723 0.339-1.008 0.869-1.281 1.383 -0.305 0.567-0.619 1.154-1.559 1.591C153.789 105.43 153.467 105.067 153.367 104.916z" fill="#b34e41" stroke-width="none" opacity="1" stroke="none"></path></g><g id="svga-group-faceshape-wrap" ><g id="svga-group-faceshape-single" ><path id="SvgjsPath3438" d="M158.918 76.762l-0.005 0c-0.012 0.053-8.517 40.707-16.719 53.285 -6.452 9.894-30.366 29.938-42.04 29.956 -11.671 0.02-35.637-19.958-42.119-29.833C49.794 117.618 41.15 77 41.138 76.946h-0.001c-1.298-4.911-1.994-10.066-2.002-15.382C39.082 28.09 66.289 0.919 99.907 0.867c33.621-0.052 60.913 27.033 60.963 60.507C160.879 66.69 160.201 71.846 158.918 76.762z" fill="#e19e95" stroke-width="none" opacity="1" stroke="none"></path><path id="SvgjsPath3439" d="M125.898 6.622c19.104 10.248 32.075 30.355 32.039 53.476 -0.009 5.316-0.704 10.471-2.003 15.382h-0.001c-0.012 0.053-8.656 40.672-16.898 53.224 -5.946 9.061-26.755 29.522-39.033 29.522 -12.279 0-33.086-20.462-39.033-29.522 -8.242-12.552-16.887-53.17-16.898-53.224H44.07c-1.298-4.911-1.994-10.066-2.002-15.382C42.031 36.977 55.003 16.87 74.105 6.622 53.411 16.324 39.096 37.28 39.134 61.564c0.008 5.316 0.704 10.471 2.002 15.382h0.001C41.15 77 49.794 117.618 58.036 130.17c4.416 6.728 18.123 20.495 28.7 25.782 -0.529-0.226-1.062-0.466-1.599-0.717 5.408 2.875 10.664 4.763 14.713 4.768 0.049 0 0.103-0.005 0.152-0.005s0.103 0.005 0.152 0.005c4.048-0.005 9.304-1.893 14.713-4.768 -0.538 0.252-1.071 0.491-1.601 0.717 10.577-5.286 24.285-19.055 28.701-25.782 8.241-12.552 16.887-53.17 16.897-53.224h0.002c1.298-4.911 1.994-10.066 2.002-15.382C160.908 37.28 146.595 16.324 125.898 6.622z" fill="#d98f85" stroke-width="none" opacity="1" stroke="none"></path><path id="SvgjsPath3440" d="M158.918 76.762l-0.005 0c-0.012 0.053-8.517 40.707-16.719 53.285 -6.452 9.894-30.366 29.938-42.04 29.956 -11.671 0.02-35.637-19.958-42.119-29.833C49.794 117.618 41.15 77 41.138 76.946h-0.001c-1.298-4.911-1.994-10.066-2.002-15.382C39.082 28.09 66.289 0.919 99.907 0.867c33.621-0.052 60.913 27.033 60.963 60.507C160.879 66.69 160.201 71.846 158.918 76.762z" fill="none" stroke="#b34e41" stroke-width="1.5" opacity="1"></path></g></g><g id="svga-group-mouth-single" ><path id="SvgjsPath3407" d="M100.263 141.54c-4.719-0.009-6.612-4.209-6.612-4.209 5.683 2.58 12.793 0.279 12.793 0.279S105.001 141.549 100.263 141.54z" fill="url(#SvgjsLinearGradient3408)" opacity="1"></path><path id="SvgjsPath3411" d="M84.579 130.51c2.964-0.119 8.822-0.646 10.971-0.483 1.11 0.083 2.931 1.055 4.128 1.386 0.833 0.232 3.999-0.863 4.85-0.868 2.231-0.017 7.069 1.347 9.668 1.884 0.144 0.029 0 0 0 0s-6.394 6.945-14.582 6.487C90.345 138.398 84.579 130.51 84.579 130.51S84.431 130.515 84.579 130.51z" fill="#98a2a2" stroke="#7b9393" stroke-width="0.75" opacity="1"></path><path id="SvgjsPath3412" d="M114.438 132.221c-0.069-0.135-0.53-0.26-0.702-0.234 -0.31 0.047-0.533 0.41-1.182 0.484 -0.752 0.088-4.73 0.86-5.815 0.826 -2.183-0.069-4.689 0.593-6.774 0.477 -2.085-0.117-5.367-1.225-7.536-1.421 -1.078-0.097-5.5-1.407-6.232-1.592 -0.631-0.159-0.681-0.533-0.935-0.642 -0.178-0.076-0.691-0.023-0.83 0.097 -0.119 0.104-0.083 0.588 0.001 0.72 0.206 0.321 0.969 0.462 1.527 0.601 0.773 0.195 5.261 1.52 6.369 1.62 2.147 0.196 5.472 1.376 7.575 1.493 2.103 0.118 4.657-0.62 6.818-0.551 1.112 0.037 5.147-0.737 5.943-0.829 0.575-0.066 1.292-0.189 1.557-0.422C114.349 132.735 114.509 132.359 114.438 132.221z" fill="#4a7474" stroke-width="none" opacity="1" stroke="none"></path><path id="SvgjsPath3413" d="M99.704 137.573c-3.663-0.204-9.44-2.02-11.651-4.388 1.353 0.208 4.28 0.509 5.624 0.734 1.657 0.279 3.953 1.059 5.642 1.258 1.824 0.215 4.317-0.25 6.098-0.446 1.485-0.162 3.788-0.698 5.271-0.758C108.192 135.866 103.241 137.77 99.704 137.573zM105.648 132.674c1.33-0.085 3.404-0.664 4.729-0.713 -1.492-0.52-3.736-0.521-5.32-0.737 -1.366-0.184-3.451 0.729-4.804 0.85 -1.527 0.138-3.341-1.272-4.761-1.408 -1.542-0.146-4.761 0.299-6.273 0.641 1.292 0.177 4.103 0.455 5.375 0.718 1.559 0.321 3.797 1.021 5.416 1.111C101.665 133.227 104.008 132.781 105.648 132.674z" fill="#b1b1b1" stroke-width="none" opacity="1" stroke="none"></path><path id="SvgjsPath3414" d="M99.711 136.739c-2.181-0.124-5.804-1.12-7.369-2.499 0.401 0.025 1.565 0.154 1.95 0.201 0.122 0.016 0.243 0.032 0.363 0.053 0.629 0.104 1.237 0.32 1.886 0.543 0.63 0.219 2.061 0.496 2.764 0.588 0.138 0.02 0.277 0.029 0.416 0.037 0.867 0.05 2.478-0.064 3.274-0.223 0.505-0.1 0.98-0.203 1.469-0.262 0.267-0.033 0.555-0.049 0.881-0.051 0.28-0.003 0.572 0.005 0.861 0.018C104.739 136.09 101.957 136.865 99.711 136.739z" fill="#c1c1c1" stroke-width="none" opacity="1" stroke="none"></path><path id="SvgjsPath3415" d="M82.599 131.485c0 0-0.561-1.254-0.482-1.724 0.11-0.655 1.521-1.956 1.521-1.956s-0.854 1.497-0.986 1.969C82.523 130.231 82.599 131.485 82.599 131.485z" fill="#b34e41" stroke-width="none" opacity="1" stroke="none"></path></g><g id="svga-group-eyes-left" ><g id="svga-group-eyesback-left"><path id="SvgjsPath3327" d="M76.925 80.872c4.607 0.618 8.048 3.822 11.044 9 0.004 0.006 0.013 0.004 0.018 0.009 0.008 0.032 0.022 0.063 0.029 0.094 0.29 1.188-0.752 2.198-2.068 2.988 -4.747 0.924-9.302 2.162-14.155 1.625 -9.719-1.074-10.042-6.145-10.551-7.458 -0.291-1.299-0.374-2.626-0.397-3.883 1.844 0.032 3.983-1.056 5.781-1.555C68.731 81.108 73.444 80.404 76.925 80.872z" fill="url(#SvgjsRadialGradient3328)" opacity="1"></path></g><g id="svga-group-eyesiriswrapper-left" transform="translate(0 1)"><g id="svga-group-eyesiriscontrol-left" ><g id="svga-group-eyesiris-left" ><path id="SvgjsPath3385" d="M83.206 89.25c-1.231 4.522-5.896 7.187-10.429 5.944 -4.528-1.241-7.203-5.918-5.97-10.442 1.23-4.526 5.905-7.19 10.434-5.947C81.768 80.045 84.439 84.723 83.206 89.25z" fill="#4e60a3" stroke="#152975" stroke-width="0.5" opacity="1"></path><path id="SvgjsPath3386" d="M73.962 81.918l-0.221-0.395c-0.776 0.308-1.524 0.631-2.232 0.973l0.524 1.267 -0.066 0.732 -2.021-1.189c-0.66 0.367-1.273 0.75-1.867 1.14l0.005 0.013 -0.692 0.78 1.107 1.132 -1.491 0.813 0.563 0.931 2.633 0.262 -2.468 1.673 2.641-0.146L68.984 92.3l3.255-1.969 -0.875 3.349 1.883-3.093 0.363 3.319 0.544-2.936 0.5-0.061 0.709 3.329 0.216-0.998c0.284-0.074 1.018 0.997 1.297 0.922l-0.829-3.621 1.817 3.621 -0.737-3.756 2.236 2.905c0.08-0.025 0.278-1.204 0.357-1.228l-1.392-2.081 2.53 0.763 -1.518-1.643 -1.219-1.009 5.083 1.137 -2.83-1.723 2-0.818 -4.329-0.437 4.281-2.27 -3.875 0.988 -1.043-0.565 -0.256-0.501 0.074-1.199 0.086-1.967 -1.768 3.113 -0.156-2.279 -0.222-0.597c-0.354 0.124-0.702 0.245-1.043 0.375L73.962 81.918z" fill="#6777b2" stroke-width="none" opacity="1"></path><path id="SvgjsPath3387" d="M83.303 85.237c-7.429 0.338-11.206 1.927-16.591 3.727 -1.038-4.574 1.839-9.12 6.42-10.149C77.712 77.786 82.267 80.661 83.303 85.237z" fill="#384b94" stroke-width="none" opacity="0.9"></path><path id="SvgjsPath3388" d="M76.234,84.165c-1.869-0.536-3.777,0.532-4.258,2.395c-0.484,1.853,0.64,3.793,2.51,4.329c1.871,0.537,3.781-0.532,4.264-2.386C79.237,86.639,78.107,84.7,76.234,84.165z" fill="#000000" stroke-width="none" opacity="0.8"></path><path id="SvgjsPath3389" d="M76.234,84.165c-1.869-0.536-3.777,0.532-4.258,2.395c-0.484,1.853,0.64,3.793,2.51,4.329c1.871,0.537,3.781-0.532,4.264-2.386C79.237,86.639,78.107,84.7,76.234,84.165z" fill="none" stroke="#152975" stroke-width="0.75" opacity="1"></path><path id="SvgjsPath3390" d="M68.812 92.044c0.868 1.378 2.021 2.416 3.653 2.762 1.879 0.398 2.094-2.101 0.748-2.387 -1.02-0.215-1.667-0.715-2.199-1.561C70.039 89.31 68.029 90.803 68.812 92.044L68.812 92.044z" fill="#ffffff" stroke-width="none" opacity="0.5"></path><path id="SvgjsPath3391" d="M76.468 83.449c1.316 0.265 2.082 1.087 2.747 2.323 1.222 2.272 4.676 0.252 3.453-2.019 -1.073-1.995-2.86-3.703-5.138-4.162C74.615 79.004 74.206 82.993 76.468 83.449L76.468 83.449z" fill="url(#SvgjsLinearGradient3392)" opacity="1"></path></g></g></g><g id="svga-group-eyesfront-left"><path id="SvgjsPath3352" d="M55.5 88c0 13.808 8.283 24.999 18.5 24.999S92.5 101.808 92.5 88c0-13.809-8.283-25.001-18.5-25.001S55.5 74.191 55.5 88zM61.241 87.132c-0.291-1.299-0.374-2.626-0.397-3.883 1.844 0.032 3.983-1.056 5.781-1.555 2.106-0.586 6.819-1.29 10.3-0.822 4.607 0.618 8.048 3.822 11.044 9 0.004 0.006 0.013 0.004 0.018 0.009 0.008 0.032 0.022 0.063 0.029 0.094 0.29 1.188-0.752 2.198-2.068 2.988 -4.747 0.924-9.302 2.162-14.155 1.625C62.073 93.516 61.75 88.445 61.241 87.132z" fill="#e19e95" stroke-width="none" opacity="1" stroke="none"></path><path id="SvgjsPath3353" d="M75.005 100.952c9.299 1.281 17.73-4.324 18.83-12.528 1.101-8.205-5.541-15.895-14.842-17.18 -9.301-1.28-17.729 4.326-18.829 12.53C59.064 91.977 65.704 99.664 75.005 100.952zM60.844 83.249c1.844 0.032 3.983-1.056 5.781-1.555 2.106-0.586 6.819-1.29 10.3-0.822 4.607 0.618 8.048 3.822 11.044 9 0.004 0.006 0.013 0.004 0.018 0.009 0.008 0.032 0.022 0.063 0.029 0.094 0.29 1.188-0.752 2.198-2.068 2.988 -4.747 0.924-9.302 2.162-14.155 1.625 -9.719-1.074-10.042-6.145-10.551-7.458C60.95 85.833 60.867 84.506 60.844 83.249z" fill="url(#SvgjsRadialGradient3354)" opacity="1"></path><path id="SvgjsPath3358" d="M61.241 87.132c-0.291-1.299-0.374-2.626-0.397-3.883 1.844 0.032 3.983-1.056 5.781-1.555 2.106-0.586 6.819-1.29 10.3-0.822 4.607 0.618 8.048 3.822 11.044 9 0.004 0.006 0.013 0.004 0.018 0.009 0.008 0.032 0.022 0.063 0.029 0.094 0.29 1.188-0.752 2.198-2.068 2.988 -4.747 0.924-9.302 2.162-14.155 1.625C62.073 93.516 61.75 88.445 61.241 87.132z" fill="url(#SvgjsRadialGradient3359)" opacity="1"></path><path id="SvgjsPath3362" d="M76.428 75.952c3.311 0.503 6.572 2.172 9.612 4.298 0.65 0.455 1.396 0.972 2.57 1.622 -0.834-0.189-1.614-0.667-2.343-1.106 0.76 0.798 1.475 1.76 2.063 2.694 -2.63-3.653-7.485-6.286-11.574-7.082 -3.927-0.765-10.991 0.142-16.17 3.104C65.306 76.058 72.317 75.327 76.428 75.952z" fill="#b34e41" stroke-width="none" opacity="1" stroke="none"></path><path id="SvgjsPath3363" d="M88.054 89.86c-0.034 0.003-0.066-0.014-0.084-0.043 -2.996-5.044-6.437-8.167-11.045-8.769 -3.479-0.456-8.192 0.23-10.3 0.801 -1.867 0.505-4.106 1.641-5.996 1.518 -1.754-0.115-3.748-1.511-4.801-2.513 1.128 0.843 4.185 1.027 5.099 0.811 -0.282-0.073-1.853-1.056-2.157-1.348 0.741 0.422 3.617 0.862 4.542 0.628 -0.265-0.14-1.585-1.042-1.891-1.398 0.14 0.122 3.378 0.74 5.034 0.188 9.938-3.31 18.034-0.452 21.862 9.95 0.014 0.035 0.009 0.074-0.011 0.105 -0.021 0.031-0.054 0.051-0.091 0.055L88.054 89.86zM61.004 86.846c-0.644 2.483 1.093 7.881 10.4 8.505 6.612 0.442 15.696-2.737 14.568-2.526 -4.756 0.9-9.318 2.112-14.181 1.589C60.769 93.227 61.832 87.027 61.004 86.846z" fill="#0f190c" stroke-width="none" opacity="1" stroke="none"></path></g></g><g id="svga-group-eyes-right" ><g id="svga-group-eyesback-right"><path id="SvgjsPath3335" d="M123.075 80.872c-4.607 0.618-8.048 3.822-11.044 9 -0.004 0.006-0.013 0.004-0.018 0.009 -0.008 0.032-0.022 0.063-0.029 0.094 -0.29 1.188 0.752 2.198 2.068 2.988 4.747 0.924 9.302 2.162 14.155 1.625 9.719-1.074 10.042-6.145 10.551-7.458 0.291-1.299 0.374-2.626 0.397-3.883 -1.844 0.032-3.983-1.056-5.781-1.555C131.269 81.108 126.556 80.404 123.075 80.872z" fill="url(#SvgjsRadialGradient3336)" opacity="1"></path></g><g id="svga-group-eyesiriswrapper-right" transform="translate(0 1)"><g id="svga-group-eyesiriscontrol-right" ><g id="svga-group-eyesiris-right" ><path id="SvgjsPath3395" d="M133.199 89.25c-1.231 4.522-5.896 7.187-10.429 5.944 -4.528-1.241-7.203-5.918-5.97-10.442 1.23-4.526 5.905-7.19 10.434-5.947C131.761 80.045 134.433 84.723 133.199 89.25z" fill="#4e60a3" stroke="#152975" stroke-width="0.5" opacity="1"></path><path id="SvgjsPath3396" d="M123.955 81.918l-0.221-0.395c-0.776 0.308-1.524 0.631-2.232 0.973l0.524 1.267 -0.066 0.732 -2.021-1.189c-0.66 0.367-1.273 0.75-1.867 1.14l0.005 0.013 -0.692 0.78 1.107 1.132L117 87.182l0.563 0.931 2.633 0.262 -2.468 1.673 2.641-0.146 -1.392 2.398 3.255-1.969 -0.875 3.349 1.883-3.093 0.363 3.319 0.544-2.936 0.5-0.061 0.709 3.329 0.216-0.998c0.284-0.074 1.018 0.997 1.297 0.922l-0.829-3.621 1.817 3.621 -0.737-3.756 2.236 2.905c0.08-0.025 0.278-1.204 0.357-1.228l-1.392-2.081 2.53 0.763 -1.518-1.643 -1.219-1.009 5.083 1.137 -2.83-1.723 2-0.818 -4.329-0.437 4.281-2.27 -3.875 0.988 -1.043-0.565 -0.256-0.501 0.074-1.199 0.086-1.967 -1.768 3.113 -0.156-2.279 -0.222-0.597c-0.354 0.124-0.702 0.245-1.043 0.375L123.955 81.918z" fill="#6777b2" stroke-width="none" opacity="1"></path><path id="SvgjsPath3397" d="M133.296 85.237c-7.429 0.338-11.206 1.927-16.591 3.727 -1.038-4.574 1.839-9.12 6.42-10.149C127.705 77.786 132.26 80.661 133.296 85.237z" fill="#384b94" stroke-width="none" opacity="0.9"></path><path id="SvgjsPath3398" d="M126.229,84.165c-1.869-0.536-3.777,0.532-4.259,2.395c-0.484,1.853,0.641,3.793,2.509,4.329c1.873,0.537,3.78-0.532,4.266-2.386C129.229,86.639,128.101,84.7,126.229,84.165z" fill="#000000" stroke-width="none" opacity="0.8"></path><path id="SvgjsPath3399" d="M126.229,84.165c-1.869-0.536-3.777,0.532-4.259,2.395c-0.484,1.853,0.641,3.793,2.509,4.329c1.873,0.537,3.78-0.532,4.266-2.386C129.229,86.639,128.101,84.7,126.229,84.165z" fill="none" stroke="#152975" stroke-width="0.75" opacity="1"></path><path id="SvgjsPath3400" d="M118.805 92.044c0.868 1.378 2.021 2.416 3.653 2.762 1.879 0.398 2.094-2.101 0.748-2.387 -1.02-0.215-1.667-0.715-2.199-1.561C120.032 89.31 118.022 90.803 118.805 92.044L118.805 92.044z" fill="#ffffff" stroke-width="none" opacity="0.5"></path><path id="SvgjsPath3401" d="M126.461 83.449c1.316 0.265 2.082 1.087 2.747 2.323 1.222 2.272 4.676 0.252 3.453-2.019 -1.073-1.995-2.86-3.703-5.138-4.162C124.608 79.004 124.199 82.993 126.461 83.449L126.461 83.449z" fill="url(#SvgjsLinearGradient3402)" opacity="1"></path></g></g></g><g id="svga-group-eyesfront-right"><path id="SvgjsPath3373" d="M126 62.999c-10.217 0-18.5 11.193-18.5 25.001 0 13.808 8.283 24.999 18.5 24.999S144.5 101.808 144.5 88C144.5 74.191 136.217 62.999 126 62.999zM128.208 94.589c-4.854 0.537-9.408-0.702-14.155-1.625 -1.316-0.791-2.358-1.8-2.068-2.988 0.007-0.032 0.021-0.063 0.029-0.094 0.005-0.005 0.014-0.003 0.018-0.009 2.996-5.178 6.437-8.382 11.044-9 3.48-0.468 8.193 0.236 10.3 0.822 1.798 0.499 3.938 1.587 5.781 1.555 -0.023 1.257-0.106 2.583-0.397 3.883C138.25 88.445 137.927 93.516 128.208 94.589z" fill="#e19e95" stroke-width="none" opacity="1" stroke="none"></path><path id="SvgjsPath3374" d="M139.836 83.774c-1.101-8.205-9.528-13.811-18.829-12.53 -9.301 1.285-15.942 8.976-14.842 17.18 1.1 8.204 9.531 13.809 18.83 12.528C134.296 99.664 140.936 91.977 139.836 83.774zM138.759 87.132c-0.509 1.313-0.832 6.384-10.551 7.458 -4.854 0.537-9.408-0.702-14.155-1.625 -1.316-0.791-2.358-1.8-2.068-2.988 0.007-0.032 0.021-0.063 0.029-0.094 0.005-0.005 0.014-0.003 0.018-0.009 2.996-5.178 6.437-8.382 11.044-9 3.48-0.468 8.193 0.236 10.3 0.822 1.798 0.499 3.938 1.587 5.781 1.555C139.133 84.506 139.05 85.833 138.759 87.132z" fill="url(#SvgjsRadialGradient3375)" opacity="1"></path><path id="SvgjsPath3379" d="M138.759 87.132c0.291-1.299 0.374-2.626 0.397-3.883 -1.844 0.032-3.983-1.056-5.781-1.555 -2.106-0.586-6.819-1.29-10.3-0.822 -4.607 0.618-8.048 3.822-11.044 9 -0.004 0.006-0.013 0.004-0.018 0.009 -0.008 0.032-0.022 0.063-0.029 0.094 -0.29 1.188 0.752 2.198 2.068 2.988 4.747 0.924 9.302 2.162 14.155 1.625C137.927 93.516 138.25 88.445 138.759 87.132z" fill="url(#SvgjsRadialGradient3380)" opacity="1"></path><path id="SvgjsPath3383" d="M123.572 75.952c-3.311 0.503-6.572 2.172-9.612 4.298 -0.65 0.455-1.396 0.972-2.57 1.622 0.834-0.189 1.614-0.667 2.343-1.106 -0.76 0.798-1.475 1.76-2.063 2.694 2.63-3.653 7.485-6.286 11.574-7.082 3.927-0.765 10.991 0.142 16.17 3.104C134.694 76.058 127.683 75.327 123.572 75.952z" fill="#b34e41" stroke-width="none" opacity="1" stroke="none"></path><path id="SvgjsPath3384" d="M111.784 89.846c-0.037-0.003-0.07-0.024-0.091-0.055 -0.02-0.031-0.024-0.07-0.011-0.105 3.828-10.402 11.925-13.26 21.862-9.95 1.656 0.552 4.895-0.067 5.034-0.188 -0.306 0.355-1.626 1.258-1.891 1.398 0.925 0.234 3.801-0.206 4.542-0.628 -0.305 0.292-1.875 1.275-2.157 1.348 0.914 0.216 3.971 0.032 5.099-0.811 -1.053 1.002-3.047 2.398-4.801 2.513 -1.89 0.124-4.129-1.012-5.996-1.518 -2.107-0.571-6.82-1.256-10.3-0.801 -4.608 0.602-8.049 3.725-11.045 8.769 -0.018 0.029-0.05 0.046-0.084 0.043L111.784 89.846zM128.208 94.413c-4.862 0.523-9.425-0.688-14.181-1.589 -1.128-0.211 7.956 2.969 14.568 2.526 9.308-0.624 11.044-6.021 10.4-8.505C138.168 87.027 139.231 93.227 128.208 94.413z" fill="#0f190c" stroke-width="none" opacity="1" stroke="none"></path></g></g><g id="svga-group-facehighlight-single" ><path id="SvgjsPath3133" d="M140.204 113.007c0.035 22.275-17.995 40.365-40.273 40.396 -22.274 0.036-40.361-17.993-40.396-40.272C59.501 90.857 77.53 72.77 99.808 72.735 122.083 72.701 140.171 90.73 140.204 113.007z" fill="url(#SvgjsRadialGradient3134)" opacity="1"></path><path id="SvgjsPath3137" d="M135,55.999c0,19.329-15.671,35-35,35c-19.329,0-35-15.671-35-35s15.671-35,35-35C119.329,20.999,135,36.67,135,55.999z" fill="url(#SvgjsRadialGradient3138)" opacity="1"></path></g><g id="svga-group-eyebrows-left" ><path id="SvgjsPath3405" d="M56.113 70.739c32.178-9.407 39.48 9.836 32.802 3.849C81.977 68.368 65.958 68.92 56.113 70.739z" fill="#d6c4c4" stroke-width="none" opacity="1" stroke="none"></path></g><g id="svga-group-eyebrows-right" ><path id="SvgjsPath3406" d="M143.889 70.731c-9.304-1.701-22.773-2.38-30.946 2.53 -1.01 0.606-5.017 4.041-3.951 1.625C110.929 70.486 123.744 64.882 143.889 70.731z" fill="#d6c4c4" stroke-width="none" opacity="1" stroke="none"></path></g><g id="svga-group-nose-single" ><path id="SvgjsPath3416" d="M99.774 119.881c-0.868 0-1.793 0.006-2.595-0.354 -0.858-0.387-1.429-0.54-2.317-0.86 -0.858-0.31-1.889 0.445-2.748 0.516 -0.694 0.057-1.487-0.142-1.911-0.685 -1.43-1.829 0.273-2.953 0.273-2.953s-0.557 1.283-0.202 1.853c0.304 0.485 0.752 0.882 1.306 1.015 0.923 0.225 1.802-0.454 2.708-0.525 1.013-0.079 1.748-0.097 2.482 0.495 0.732 0.591 1.532 0.704 2.463 0.752 0.865 0.045 1.771 0.082 2.583-0.251 0.709-0.289 1.303-0.797 1.967-1.17 1.414-0.792 2.525 0.202 4.001 0.604 1.182 0.323 2.456-0.82 1.993-2.122 -0.264-0.741-0.221-1.183-0.221-1.183s1.126 0.511 1.059 1.768c-0.085 1.566-1.45 2.665-2.992 2.253 -0.758-0.2-1.574-0.771-2.378-0.626 -0.818 0.146-1.446 0.147-2.126 0.594C102.092 119.673 101.004 119.881 99.774 119.881z" fill="#b34e41" stroke-width="none" opacity="1" stroke="none"></path><path id="SvgjsPath3417" d="M93.63 110.544c0 0 3.096-4.31 5.907-4.362 2.605-0.048 6.032 3.786 6.032 3.786s-3.158-1.323-6.284-1.104C96.495 109.06 93.63 110.544 93.63 110.544z" fill="#d98f85" stroke-width="none" opacity="1" stroke="none"></path></g><g id="svga-group-hair-front" ><path id="SvgjsPath3456" d="M146.93 34.899H51.19l2.047 63.665c0.413-1.002 6.167-11.347 6.883-9.885 27.017-13.333 35.79-30.203 41.162-43.761 -8.006 33.653-27.315 38.394-27.315 38.394 4.23-0.47 16.372-1.724 24.386-10.048 1.049-1.109 9.917-7.806 17.639-28.686 1.598 17.179 9.102 35.856 21.778 43.817 -4.244-8.364-9.812-29.919-10.834-45.113 7.041 34.369 14.163 52.434 20.596 64.606 2.186 4.135 6.498 11.445 5.991 11.344C155.064 127.09 146.93 34.899 146.93 34.899z" fill="#3b3128" stroke-width="none" opacity="0.1"></path><path id="SvgjsPath3457" d="M123.977 2.768c-3.083-1.172-5.286-2.017-8.009-2.746 -0.046-1-52.547-15.95-79.211 46.22C30 65.827 26.418 96.013 32.644 115.821c1.439 4.387 5.438 10.615 9.24 31.491 1.83 10.049 3.275 17.985 14.18 29.005 2.863 2.896 10.198 8.648 11.516 13.763 4.04-22.237-3.639-28.484-10.942-34.448 -5.008-4.09-9.886-5.026 3.084-1.95 0 0 2.742-0.172 8.082-3.547 -8.452 1.78-14.496-1.088-18.395-7.845 -5.153-8.931-5.126-22.432 0.063-31.404 5.211 2.94 4.943 17.158 5.213 18.975 2.336-7.38-1.068-29.004-1.447-31.296 -0.086-1.031 1.344-4.568 1.344-4.568 0.413-1.002 4.823-9.035 5.539-7.572 27.017-13.333 35.79-30.203 41.162-43.761 -8.006 33.653-26.338 40.13-26.338 40.13 4.23-0.47 15.395-3.46 23.408-11.784 1.049-1.109 10.575-11.543 18.297-32.423 1.598 17.179 9.354 36.563 19.454 48.129 -4.244-8.364-8.146-30.494-9.168-45.688 7.041 34.369 15.773 50.895 22.206 63.066 2.186 4.135 4.633 11.112 4.126 11.011 1.542 7.857-1.689 25.994-16.881 30.317 2.979 0.559 5.525 0.628 7.732 0.33 -16.469 16.26-7.259 25.821-4.188 43.015 0.856-3.048 0.825-6.172 5.466-12.909 8.701-12.646 1.984-12.887 12.664-33.732 11.454-22.361 10.121-31.09 11.148-37.028C169.358 104.3 175.752 22.291 123.977 2.768z" fill="#3b3128" stroke-width="none" opacity="1"></path><path id="SvgjsPath3458" d="M67.764 188.989c0.423-2.594 0.691-4.943 0.835-7.097C68.471 184.053 68.198 186.411 67.764 188.989zM74 74c12.458-18.076 20-31 24-50 -9.526 21.91-26.401 39.19-40.852 57.299 -0.179-4.145 0.471-27.813 19.151-56.07C53.909 45.714 44.072 74.808 50 92.329c-4.381-9.265-7.631-27.423-4.534-39.992C32.93 82.071 50.324 95.5 55.201 114.308c-1.344-18.182-3.149-14.727-0.619-20.983 0.353-0.856 2.804-5.552 2.941-4.476 1.148-1.746 2.267-3.1 2.597-2.425 27.017-13.333 35.79-30.203 41.162-43.761 -8.006 33.653-26.338 40.13-26.338 40.13 12.432-1.38 32.048-22.872 29.337-54.052C99.279 46.741 86.458 62.405 74 74zM167.643 69.768C168.346 85.58 166.535 100.791 164 116c-2-14-5.646-30.432-12.166-48.964 5.535 25.6 4.855 34.796 5.16 44.698 -13.146-28.627-26.344-53.284-31.411-82.828C124.631 39.739 127.384 55.924 129 68c-4.369-9.761-9.298-21.428-11.084-39.259 0 3.435-0.399 5.222-1.558 9.477 1.731 17.014 9.773 37.078 19.745 48.497 -4.244-8.364-8.146-30.494-9.168-45.688 7.041 34.369 15.773 50.895 22.206 63.066 1.876 3.549 3.938 9.179 4.167 10.643 0.038 0.242 0.031 0.383-0.041 0.368 0.158 0.808 0.264 1.729 0.313 2.728 1.77 4.593 2.528 7.402 1.474 10.785 -1.525 4.895-9.049 15.63-18.668 16.805 8.743 2.063 14.341-2.79 18.97-8.827 -6.923 15.946-21.127 8.797-15.486 51.65 0.701-2.468 1.708-6.844 5.527-12.388 8.701-12.646 1.984-12.887 12.664-33.732 11.454-22.361 10.121-31.09 11.148-37.028C169.274 104.75 170.52 89.027 167.643 69.768zM44.483 143.565c2.989 1.909 6.538 10.618 16.535 9.841C41.105 148.271 42 120.18 42 103c-1.471 4.902-2.685 10.05-3.438 15.315 -11.3-30.764-4.969-64.11 9.831-92.716 -4.203 5.701-8.144 12.5-11.637 20.643 -16.692 48.389-0.499 78.419 0.992 83.356 6.717 22.247 2.683 30.923 18.315 46.719 2.863 2.896 10.198 8.648 11.516 13.763C71.369 164.985 48.613 158.099 44.483 143.565zM142.95 25.75c15.545 14.046 21.195 45.833 21.328 69.442C164.39 100.162 164.413 46.131 142.95 25.75zM154.875 82.765c3.342 20.038-2.521-42.627-24.576-58.441C143.508 35.305 152.316 67.792 154.875 82.765zM70.88 22.753c5.942-4.945-2.793 2-5.802 4.808C54.54 37.09 50.033 46.996 47.94 57.751 51.505 42.729 59.444 32.739 70.88 22.753zM84.705 24.485c2.822-2.594-13.942 8.265-22.912 41.27C68.529 45.157 77.302 31.847 84.705 24.485z" fill="#2c2219" stroke-width="none" opacity="1"></path><path id="SvgjsPath3459" d="M151.671 107.902c17.19 26.816 3.447 35.355 1.861 40.974C155.307 142.587 164.622 133.223 151.671 107.902zM163.42 128.026c0.103-1 3.263-9.188 0.12-24.545 -1.706-8.337-4.72-16.315-6.759-24.558C160.708 97.38 165.319 109.35 163.42 128.026zM40.778 139.904c0.025-1.461-5.489-18.724 2.449-40.017C31.997 123.286 40.828 137.053 40.778 139.904zM47.054 108.148c-0.2-0.831-0.822-1.722-1.174-2.497 -13.39-29.399-4.231-52.055 7.184-80.645C37.802 57.778 30.55 77.146 47.054 108.148zM76.707 21.78c0.036-0.038 3.867-3.963 3.917-3.95 -0.095-0.025-0.761 0.712-0.836 0.781C58.372 38.149 45.057 58.889 48.989 87.389 46.38 61.056 58.712 40.895 76.707 21.78zM99.998 17.774c-3.237 8.17-26.894 43.475-42.375 62.038C83.633 50.897 99.614 20.587 99.998 17.774zM82.755 80.445c-0.234 0.139-2.196 1.563-2.301 1.506 0.045 0.024 1.552-0.942 1.671-1.005 26.81-14.112 29.966-31.518 36.614-59.983C111.34 47.604 106.258 66.473 82.755 80.445zM155.396 106.15c-4.141-9.261-29.368-64.249-29.976-80.447C125.997 52.586 154.947 105.149 155.396 106.15zM148.657 74.301c0.361 1.587 0.849 3.182 1.121 4.785 -3.42-20.115-5.357-34.698-17.969-50.635C140.228 39.304 143.225 50.447 148.657 74.301zM136.445 21.347c0 0.068-0.079 0.248-0.18 0.171 16.048 12.281 24.425 58.902 24.777 59.902 -1.188-3.375 0.299-28.648-19.299-53.957 -1.58-2.04-3.319-4.493-5.468-5.976 0.061 0.017 0.187-0.063 0.143-0.136 0.066 0.106 0.143 0.201 0.221 0.3C136.731 21.704 136.445 21.53 136.445 21.347z" fill="#4a423a" stroke-width="none" opacity="1"></path><path id="SvgjsPath3460" d="M152.811 150.46c-5.664 16.369-6.497 17.491-6.497 17.491C145.881 168.951 149.452 157.542 152.811 150.46zM145.609 171.244c-0.081 0.287-0.612 2.203-0.539 1.967 1.925-5.472 3.814-6.661 5.754-14.988C148.631 165.023 148.427 163.099 145.609 171.244zM146.069 171.593c-3.171 4.709-3.991 7.679-3.865 7.369 0.093-0.278 0.782-1.668 1.515-2.844 1.649-2.668 3.643-4.701 5.109-9.896C148.427 167.289 147.835 169.096 146.069 171.593zM50.233 166.038c3.835 4.714-0.635 0.469-6.922-14.783C45.74 159.453 47.645 162.625 50.233 166.038zM55.452 171.15c-1.002-0.743-7.178-6.813-9.562-11.396C49.341 167.897 56.454 171.917 55.452 171.15zM52.553 170.327c10.604 9.982-2.789-2.537-3.953-4.89C48.6 165.438 48.617 166.515 52.553 170.327z" fill="#3b3128" stroke-width="none" opacity="1"></path><path id="SvgjsPath3461" d="M167.879 61.476c-12.103-57.797-52.05-61.709-49.288-60.534C82.706-11.776 39.498 11.482 30.849 62.735c-2.427 14.398-3.457 40.922 0.152 51.061 2.023 5.684 3.274 8.689 5.778 15.28 7.917 21.966-0.744 33.347 24.319 52.629 3.111 2.404 5.166 5.576 6.57 9.28 0.011-0.021 0.206-1.185 0.21-1.21 3.034-17.218 1.952-26.859-14.556-37.602 4.582 2.664 10.785 1.913 14.707-2.328 -18.17 5.154-26.956-19.264-18.035-37.71 3.31 7.742 4.615 15.037 4.415 19.26 3.667-11.231 1.363-15.783-0.26-36.23 1.382-3.195 3.084-5.784 5.23-8.52 18.811-9.406 32.957-18.133 42.583-45.857 -2.319 7.76-3.984 15.355-10.583 25.527 -8.651 13.359-12.577 13.816-17.96 16.7 4.453 0 10.501-1.322 18.886-6.369 -1.375 1.17-2.601 2.299-5.326 4.209 13.693-8.82 23.971-21.423 29.379-42.638 -3.583 16.868-5.419 32.085-22.899 41.488 17.491-8.862 20.781-21.575 23.227-41.07 1.759 30.597 16.143 46.195 21.084 49.76 -6.279-10.305-9.001-34.624-11.224-50.274 2.413 14.985 1.465 10.331 5.243 24.954 6.901 26.356 15.578 41.213 20.585 51.722 2.062 14.443-4.134 27.799-17.385 30.438 3.135 1.249 6.225 1.409 8.729 0.8 -18.508 18.508-7.2 24.044-3.8 43.63 1.291-8.023 5.813-11.861 9.25-18.229 3.456-6.434 2.206-13.346 6.01-21.3C167.924 123.713 178.348 111.793 167.879 61.476zM136.719 145.355c10.184-1.965 18.639-15.794 17.193-27.181 3.127 7.31 3.785 12.573-0.413 18.921C149.909 143.246 143.775 147.014 136.719 145.355zM155.356 136.595L155.356 136.595c-0.008-0.008-0.009-0.01-0.027-0.01C155.316 136.585 155.341 136.58 155.356 136.595zM168.709 105.035c-2.086 29.331-15.352 38.543-17.63 54 -2.551 17.787-8.397 14.561-11.22 28.42 -3.092-17.286-11.779-25.501 4.99-41.729 7.597-2.349 15.125-11.563 12.619-23.141 -3.939-18.205-19.696-28.375-30.75-85.2 0.001 0.021 0.004 0.041 0.005 0.062 -0.188-0.892-0.424-1.969-0.574-2.721 -0.041-0.039-1.392-8.322 0.028 1.145 0.448 15.911 4.518 40.049 9.187 49.243 -14.321-18.218-17.941-38.157-18.659-46.634 0.132-1.054 0.262-2.123 0.391-3.217v0.001c0.594-4.784 1.755-12.568-0.516 1.36 -7.278 20.704-16.344 31.664-18.591 34.042 -7.751 8.047-19.589 11.732-22.89 12.03 19.078-8.456 25.617-31.208 28.85-51.12 -0.116 0.562-1.372 6.57-1.26 6.01 -5.817 15.457-13.401 33.887-42.791 48.39 21.149-26.064 32.342-46.549 37.38-60.3 -10.229 24.39-39.564 59.988-42.96 68.23 -1.051-33.877 10.756-57.804 22.45-68.31 -12.185 9.517-27.02 37.211-24.03 73.01 1.093 6.624 3.499 23.741 2.033 30.36 0.267-4.023-0.573-9.699-1.343-12.41v-0.011c-3.027-10.95-10.455-19.118-11.85-31.479 -1.26-11.15-0.79-22.64 4.16-32.88 -3.67 6.9-5.469 14.376-5.76 22.17 -0.845 22.599 5.915 24.877 9.065 36.278 -9.468 16.356-1.527 45.11 17.855 39.802 -11.657 9.495-21.668-7.561-23.435-10.817 -2.728-6.707-3.268-14.404-3.604-21.543 -0.12 51.119 33.988 27.358 27.697 71.093 -0.804-3.887-10.145-12.2-11.137-13.202 -15.067-15.233-11.885-24.441-17-41.98 -2.092-9.778-4.664-13.319-6.303-18.315 -6.389-20.335-2.216-50.915 4.113-69.265 12.133-28.275 31.378-46.868 62-47.87 7.224-0.239 22.339 2.489 13.6 1.26 4.341 0.897 6.861 1.884 10.97 3.44 50.765 19.143 45.277 99.834 44.92 101.77C168.719 105.005 168.709 105.015 168.709 105.035z" fill="#0d0905" stroke-width="none" opacity="1"></path></g></g></g></g><defs id="SvgjsDefs3090"><radialGradient id="SvgjsRadialGradient3134" cx="100" cy="113" r="40" gradientUnits="userSpaceOnUse" class="svga-on-canvas-facehighlight-gradient-single-0"><stop id="SvgjsStop3135" stop-opacity="0.5" stop-color="#f0beb7" offset="0" ></stop><stop id="SvgjsStop3136" stop-opacity="0" stop-color="#e19e95" offset="0.9" ></stop></radialGradient><radialGradient id="SvgjsRadialGradient3138" cx="100" cy="57" r="36" gradientUnits="userSpaceOnUse" class="svga-on-canvas-facehighlight-gradient-single-1"><stop id="SvgjsStop3139" stop-opacity="0.5" stop-color="#f0beb7" offset="0" ></stop><stop id="SvgjsStop3140" stop-opacity="0" stop-color="#e19e95" offset="0.9" ></stop></radialGradient><radialGradient id="SvgjsRadialGradient3219" cx="-558.588" cy="-490.918" r="84.646" gradientTransform="matrix(0.096 -0.0248 0.0245 0.0961 140.5478 120.3577)" gradientUnits="userSpaceOnUse" class="svga-on-canvas-eyesiris-gradient-left-1"><stop id="SvgjsStop3220" stop-opacity="0.8" stop-color="#ffffff" offset="0" ></stop><stop id="SvgjsStop3221" stop-opacity="0" stop-color="#ffffff" offset="1" ></stop></radialGradient><radialGradient id="SvgjsRadialGradient3223" cx="-565.337" cy="-492.691" r="84.644" gradientTransform="matrix(0.0991 8.856325e-004 -0.0011 0.0991 130.3774 136.3533)" gradientUnits="userSpaceOnUse" class="svga-on-canvas-eyesiris-gradient-left-2"><stop id="SvgjsStop3224" stop-opacity="0.8" stop-color="#ffffff" offset="0" ></stop><stop id="SvgjsStop3225" stop-opacity="0" stop-color="#ffffff" offset="1" ></stop></radialGradient><linearGradient id="SvgjsLinearGradient3229" x1="122.283" y1="93.047" x2="123.61" y2="91.466" gradientTransform="matrix(1 0 0 1 -52 0)" gradientUnits="userSpaceOnUse" class="svga-on-canvas-eyesiris-gradient-left-5"><stop id="SvgjsStop3230" stop-opacity="1" stop-color="#ffffff" offset="0" ></stop><stop id="SvgjsStop3231" stop-opacity="0" stop-color="#ffffff" offset="1" ></stop></linearGradient><linearGradient id="SvgjsLinearGradient3237" x1="130" y1="81" x2="126" y2="85" gradientTransform="matrix(1 0 0 1 -50 0)" gradientUnits="userSpaceOnUse" class="svga-on-canvas-eyesiris-gradient-left-7"><stop id="SvgjsStop3238" stop-opacity="1" stop-color="#ffffff" offset="0" ></stop><stop id="SvgjsStop3239" stop-opacity="0" stop-color="#ffffff" offset="1" ></stop></linearGradient><radialGradient id="SvgjsRadialGradient3242" cx="-578.76" cy="-490.73" r="84.646" gradientTransform="matrix(0.096 -0.0248 0.0245 0.0961 192.4794 119.8404)" gradientUnits="userSpaceOnUse" class="svga-on-canvas-eyesiris-gradient-right-1"><stop id="SvgjsStop3243" stop-opacity="0.8" stop-color="#ffffff" offset="0" ></stop><stop id="SvgjsStop3244" stop-opacity="0" stop-color="#ffffff" offset="1" ></stop></radialGradient><radialGradient id="SvgjsRadialGradient3246" cx="-584.778" cy="-487.329" r="84.644" gradientTransform="matrix(0.0991 8.856325e-004 -0.0011 0.0991 182.3104 135.839)" gradientUnits="userSpaceOnUse" class="svga-on-canvas-eyesiris-gradient-right-2"><stop id="SvgjsStop3247" stop-opacity="0.8" stop-color="#ffffff" offset="0" ></stop><stop id="SvgjsStop3248" stop-opacity="0" stop-color="#ffffff" offset="1" ></stop></radialGradient><linearGradient id="SvgjsLinearGradient3252" x1="120.284" y1="93.047" x2="121.611" y2="91.467" gradientUnits="userSpaceOnUse" class="svga-on-canvas-eyesiris-gradient-right-5"><stop id="SvgjsStop3253" stop-opacity="1" stop-color="#ffffff" offset="0" ></stop><stop id="SvgjsStop3254" stop-opacity="0" stop-color="#ffffff" offset="1" ></stop></linearGradient><linearGradient id="SvgjsLinearGradient3260" x1="130" y1="81" x2="126" y2="85" gradientUnits="userSpaceOnUse" class="svga-on-canvas-eyesiris-gradient-right-7"><stop id="SvgjsStop3261" stop-opacity="1" stop-color="#ffffff" offset="0" ></stop><stop id="SvgjsStop3262" stop-opacity="0" stop-color="#ffffff" offset="1" ></stop></linearGradient><radialGradient id="SvgjsRadialGradient3287" cx="100" cy="100" r="150" gradientUnits="userSpaceOnUse" class="svga-on-canvas-backs-gradient-single-1"><stop id="SvgjsStop3288" stop-opacity="0" stop-color="#ecf0f1" offset="0" ></stop><stop id="SvgjsStop3289" stop-opacity="1" stop-color="#c6dce2" offset="0.2" ></stop><stop id="SvgjsStop3290" stop-opacity="0" stop-color="#c6dce2" offset="1" ></stop></radialGradient><radialGradient id="SvgjsRadialGradient3328" cx="125.523" cy="88.627" r="13.218" gradientTransform="matrix(-1.0975 0.096 0.0956 1.0928 203.2283 -20.8703)" gradientUnits="userSpaceOnUse" class="svga-on-canvas-eyesback-gradient-left-0"><stop id="SvgjsStop3329" stop-opacity="1" stop-color="#ffffff" offset="0" ></stop><stop id="SvgjsStop3330" stop-opacity="1" stop-color="#fdfefe" offset="0.544" ></stop><stop id="SvgjsStop3331" stop-opacity="1" stop-color="#f6f8f9" offset="0.74" ></stop><stop id="SvgjsStop3332" stop-opacity="1" stop-color="#eaeff2" offset="0.879" ></stop><stop id="SvgjsStop3333" stop-opacity="1" stop-color="#d9e3e8" offset="0.992" ></stop><stop id="SvgjsStop3334" stop-opacity="1" stop-color="#d8e2e7" offset="1" ></stop></radialGradient><radialGradient id="SvgjsRadialGradient3336" cx="125.523" cy="88.627" r="13.218" gradientTransform="matrix(1.0975 0.096 -0.0956 1.0928 -3.2288 -20.8703)" gradientUnits="userSpaceOnUse" class="svga-on-canvas-eyesback-gradient-right-0"><stop id="SvgjsStop3337" stop-opacity="1" stop-color="#ffffff" offset="0" ></stop><stop id="SvgjsStop3338" stop-opacity="1" stop-color="#fdfefe" offset="0.544" ></stop><stop id="SvgjsStop3339" stop-opacity="1" stop-color="#f6f8f9" offset="0.74" ></stop><stop id="SvgjsStop3340" stop-opacity="1" stop-color="#eaeff2" offset="0.879" ></stop><stop id="SvgjsStop3341" stop-opacity="1" stop-color="#d9e3e8" offset="0.992" ></stop><stop id="SvgjsStop3342" stop-opacity="1" stop-color="#d8e2e7" offset="1" ></stop></radialGradient><radialGradient id="SvgjsRadialGradient3344" cx="125.523" cy="88.627" r="13.218" gradientTransform="matrix(-1.0975 0.096 0.0956 1.0928 203.2283 -20.8703)" gradientUnits="userSpaceOnUse" class="svga-on-canvas-eyesfront-gradient-left-0"><stop id="SvgjsStop3345" stop-opacity="1" stop-color="#ffffff" offset="0" ></stop><stop id="SvgjsStop3346" stop-opacity="1" stop-color="#fdfefe" offset="0.544" ></stop><stop id="SvgjsStop3347" stop-opacity="1" stop-color="#f6f8f9" offset="0.74" ></stop><stop id="SvgjsStop3348" stop-opacity="1" stop-color="#eaeff2" offset="0.879" ></stop><stop id="SvgjsStop3349" stop-opacity="1" stop-color="#d9e3e8" offset="0.992" ></stop><stop id="SvgjsStop3350" stop-opacity="1" stop-color="#d8e2e7" offset="1" ></stop></radialGradient><radialGradient id="SvgjsRadialGradient3354" cx="122.915" cy="85.507" fx="136.35" fy="84.425" r="17.038" gradientTransform="matrix(0.9926 0.1216 0.1079 -0.8805 -54.1424 145.8439)" gradientUnits="userSpaceOnUse" class="svga-on-canvas-eyesfront-gradient-left-3"><stop id="SvgjsStop3355" stop-opacity="1" stop-color="#d28176" offset="0" ></stop><stop id="SvgjsStop3356" stop-opacity="0.3" stop-color="#d28176" offset="0.7" ></stop><stop id="SvgjsStop3357" stop-opacity="0" stop-color="#e19e95" offset="1" ></stop></radialGradient><radialGradient id="SvgjsRadialGradient3359" cx="78.447" cy="85.328" r="26.192" gradientTransform="matrix(0.7158 -0.1012 0.1016 0.7275 7.9808 45.9445)" gradientUnits="userSpaceOnUse" class="svga-on-canvas-eyesfront-gradient-left-4"><stop id="SvgjsStop3360" stop-opacity="0" stop-color="#000000" offset="0.9" ></stop><stop id="SvgjsStop3361" stop-opacity="0.3" stop-color="#000000" offset="1" ></stop></radialGradient><radialGradient id="SvgjsRadialGradient3365" cx="125.523" cy="88.627" r="13.218" gradientTransform="matrix(1.0975 0.096 -0.0956 1.0928 -3.2288 -20.8703)" gradientUnits="userSpaceOnUse" class="svga-on-canvas-eyesfront-gradient-right-0"><stop id="SvgjsStop3366" stop-opacity="1" stop-color="#ffffff" offset="0" ></stop><stop id="SvgjsStop3367" stop-opacity="1" stop-color="#fdfefe" offset="0.544" ></stop><stop id="SvgjsStop3368" stop-opacity="1" stop-color="#f6f8f9" offset="0.74" ></stop><stop id="SvgjsStop3369" stop-opacity="1" stop-color="#eaeff2" offset="0.879" ></stop><stop id="SvgjsStop3370" stop-opacity="1" stop-color="#d9e3e8" offset="0.992" ></stop><stop id="SvgjsStop3371" stop-opacity="1" stop-color="#d8e2e7" offset="1" ></stop></radialGradient><radialGradient id="SvgjsRadialGradient3375" cx="122.915" cy="85.507" fx="136.35" fy="84.425" r="17.038" gradientTransform="matrix(-0.9926 0.1216 -0.1079 -0.8805 254.1424 145.8439)" gradientUnits="userSpaceOnUse" class="svga-on-canvas-eyesfront-gradient-right-3"><stop id="SvgjsStop3376" stop-opacity="1" stop-color="#d28176" offset="0" ></stop><stop id="SvgjsStop3377" stop-opacity="0.3" stop-color="#d28176" offset="0.7" ></stop><stop id="SvgjsStop3378" stop-opacity="0" stop-color="#e19e95" offset="1" ></stop></radialGradient><radialGradient id="SvgjsRadialGradient3380" cx="78.447" cy="85.328" r="26.192" gradientTransform="matrix(-0.7158 -0.1012 -0.1016 0.7275 192.0192 45.9445)" gradientUnits="userSpaceOnUse" class="svga-on-canvas-eyesfront-gradient-right-4"><stop id="SvgjsStop3381" stop-opacity="0" stop-color="#000000" offset="0.9" ></stop><stop id="SvgjsStop3382" stop-opacity="0.3" stop-color="#000000" offset="1" ></stop></radialGradient><linearGradient id="SvgjsLinearGradient3392" x1="130" y1="81" x2="126" y2="85" gradientTransform="matrix(1 0 0 1 -50 0)" gradientUnits="userSpaceOnUse" class="svga-on-canvas-eyesiris-gradient-left-6"><stop id="SvgjsStop3393" stop-opacity="1" stop-color="#ffffff" offset="0" ></stop><stop id="SvgjsStop3394" stop-opacity="0" stop-color="#ffffff" offset="1" ></stop></linearGradient><linearGradient id="SvgjsLinearGradient3402" x1="130" y1="81" x2="126" y2="85" gradientUnits="userSpaceOnUse" class="svga-on-canvas-eyesiris-gradient-right-6"><stop id="SvgjsStop3403" stop-opacity="1" stop-color="#ffffff" offset="0" ></stop><stop id="SvgjsStop3404" stop-opacity="0" stop-color="#ffffff" offset="1" ></stop></linearGradient><linearGradient id="SvgjsLinearGradient3408" x1="100" y1="141" x2="100" y2="138" gradientUnits="userSpaceOnUse" class="svga-on-canvas-mouth-gradient-single-0"><stop id="SvgjsStop3409" stop-opacity="1" stop-color="#d98f85" offset="0.1" ></stop><stop id="SvgjsStop3410" stop-opacity="1" stop-color="#d28176" offset="1" ></stop></linearGradient><linearGradient id="SvgjsLinearGradient3442" x1="99.98" y1="171.27" x2="99.98" y2="136.351" gradientUnits="userSpaceOnUse" class="svga-on-canvas-chinshadow-gradient-single-0"><stop id="SvgjsStop3443" stop-opacity="0.8" stop-color="#d28176" offset="0" ></stop><stop id="SvgjsStop3444" stop-opacity="1" stop-color="#b34e41" offset="0.7" ></stop></linearGradient></defs></svg>